<?xml version="1.0" standalone="no"?>
<!DOCTYPE svg PUBLIC "-//W3C//DTD SVG 1.1//EN" "http://www.w3.org/Graphics/SVG/1.1/DTD/svg11.dtd" >
<svg>
<metadata>
Created by FontForge 20090914 at Mon Nov  1 06:23:31 2021
 By www-data
Copyright (c) 2021 by Zamroni Hamzah. All rights reserved.
</metadata>
<defs>
<font id="Sugar-Regular" horiz-adv-x="597" >
  <font-face 
    font-family="Sugar"
    font-weight="400"
    font-stretch="normal"
    units-per-em="1000"
    panose-1="0 0 0 0 0 0 0 0 0 0"
    ascent="800"
    descent="-200"
    x-height="543"
    cap-height="700"
    bbox="-77.6315 -380.002 1170 991"
    underline-thickness="0"
    underline-position="0"
    unicode-range="U+000A-U+F007"
  />
<missing-glyph horiz-adv-x="527" 
d="M477 700v-700h-427v700h427zM263 371l186 309h-371zM457 47v605l-181 -302zM71 650v-601l180 301zM79 21h370l-185 308z" />
    <glyph glyph-name=".notdef" horiz-adv-x="527" 
d="M477 700v-700h-427v700h427zM263 371l186 309h-371zM457 47v605l-181 -302zM71 650v-601l180 301zM79 21h370l-185 308z" />
    <glyph glyph-name=".null" horiz-adv-x="0" 
 />
    <glyph glyph-name=".null" horiz-adv-x="0" 
 />
    <glyph glyph-name="uni000A" unicode="&#xa;" horiz-adv-x="0" 
 />
    <glyph glyph-name="uni000D" unicode="&#xd;" horiz-adv-x="0" 
 />
    <glyph glyph-name="space" unicode=" " horiz-adv-x="300" 
 />
    <glyph glyph-name="exclam" unicode="!" horiz-adv-x="221" 
d="M55 641c-2.66699 25.333 1.83301 44.333 13.5 57s25.167 19 40.5 19s29.333 -6.33301 42 -19s17.667 -31.667 15 -57l-52 -527h-10zM110 87c13.333 0 24.667 -4.66797 34 -14.001s14 -20.666 14 -33.999s-4.66699 -24.666 -14 -33.999s-20.666 -14 -33.999 -14
s-24.666 4.66699 -33.999 14c-7.33301 7.33301 -11.833 15.5 -13.5 24.5s-0.833984 18.167 2.49902 27.5c4 9.33301 10.167 16.666 18.5 21.999s17.166 8 26.499 8z" />
    <glyph glyph-name="quotedbl" unicode="&#x22;" horiz-adv-x="241" 
d="M122 684c0 15.333 4.33301 26.667 13 34s18 11 28 11c10.667 0 20.167 -3.83301 28.5 -11.5s12.5 -19.5 12.5 -35.5c0 -8.66699 -1.83301 -18 -5.5 -28s-8.5 -19.5 -14.5 -28.5s-12.333 -17.167 -19 -24.5s-13 -13 -19 -17l-2 1c9.33301 12 13.5 22.333 12.5 31
s-4 16.5 -9 23.5s-10.5 14 -16.5 21s-9 14.833 -9 23.5zM36 684.001c0 15.333 4.33301 26.667 13 34s18 11 28 11c10.667 0 20.167 -3.83301 28.5 -11.5s12.5 -19.5 12.5 -35.5c0 -8.66699 -2 -18 -6 -28s-8.83301 -19.5 -14.5 -28.5s-12 -17.167 -19 -24.5
s-13.5 -13 -19.5 -17l-1 1c9.33301 12 13.333 22.333 12 31s-4.5 16.5 -9.5 23.5s-10.333 14 -16 21s-8.5 14.833 -8.5 23.5z" />
    <glyph glyph-name="numbersign" unicode="#" horiz-adv-x="765" 
d="M544 450l-58 -219h174l-5 -17h-174l-57 -214h-22l58 214h-218l-57 -214h-22l57 214h-186l5 17h186l59 219h-179l5 17h178l63 233h21l-62 -233h217l63 233h22l-63 -233h182l-5 -17h-182zM523 450h-218l-58 -219h217z" />
    <glyph glyph-name="dollar" unicode="$" horiz-adv-x="622" 
d="M318 402l92.499 -30.4971c30.333 -10.333 57.666 -22.5 81.999 -36.5s44 -30.333 59 -49s22.5 -41.667 22.5 -69c0 -40 -7 -74.167 -21 -102.5s-32.667 -51.833 -56 -70.5s-50.5 -32.667 -81.5 -42s-63.5 -15 -97.5 -17v-90h-13v89c-72 -2 -143 8.66699 -213 32
c-17.333 6 -29.333 14.667 -36 26s-9 22.666 -7 33.999s7.83301 21.166 17.5 29.499s21.5 12.5 35.5 12.5c11.333 0 22.333 -2.66699 33 -8c54 -26.667 110.667 -45.667 170 -57v248c-30 9.33301 -59.5 19.333 -88.5 30s-54.667 23.334 -77 38.001s-40.5 31.667 -54.5 51
s-21 42.333 -21 69c0 44 6.83301 80.5 20.5 109.5s31.834 52.333 54.501 70s48.334 30 77.001 37s58.334 10.5 89.001 10.5v89h13v-90c62.667 -2 122.334 -16 179.001 -42c14 -6.66699 23.5 -14.834 28.5 -24.501s6.66699 -19.167 5 -28.5s-6.33398 -17.333 -14.001 -24
s-17.5 -10 -29.5 -10c-12.667 0 -26.334 4.33301 -41.001 13c-20 12.667 -40.667 24.167 -62 34.5s-43.333 19.166 -66 26.499v-258zM304.999 664.003c-16 4.66699 -31.667 8.33398 -47 11.001s-29.666 4 -42.999 4c-32.667 0 -59.334 -7.83301 -80.001 -23.5
s-31 -41.834 -31 -78.501c0 -24 5.5 -44.833 16.5 -62.5s25.833 -33 44.5 -46s40.167 -24.5 64.5 -34.5s49.5 -19.333 75.5 -28v258zM317.999 50.0029c26 -4 51.001 -5.99805 75.001 -5.99805c22 0 42.167 2 60.5 6s34.166 10 47.499 18s23.833 18.167 31.5 30.5
s11.5 27.166 11.5 44.499c0 21.333 -6.33301 39.666 -19 54.999s-29.5 28.833 -50.5 40.5s-45.167 22.167 -72.5 31.5s-55.333 18.333 -84 27v-247z" />
    <glyph glyph-name="percent" unicode="%" horiz-adv-x="607" 
d="M527 724l-434 -743h-13l434 743h13zM188 442c-32 0 -58.667 6.83301 -80 20.5s-37.333 30.5 -48 50.5s-16 42 -16 66s5.33301 46 16 66s26.667 36.833 48 50.5s48 20.5 80 20.5s58.667 -6.83301 80 -20.5s37.333 -30.5 48 -50.5s16 -42 16 -66s-5.33301 -46 -16 -66
s-26.667 -36.833 -48 -50.5s-48 -20.5 -80 -20.5zM153 703c-18 -4.66699 -31.333 -14.835 -40 -30.502s-13.334 -33.5 -14.001 -53.5s2 -40.667 8 -62s14.667 -40.333 26 -57s24.666 -29.5 39.999 -38.5s32 -11.167 50 -6.5s31.333 14.834 40 30.501
s13.334 33.334 14.001 53.001s-2 40.167 -8 61.5s-14.667 40.5 -26 57.5s-24.666 30 -39.999 39s-32 11.167 -50 6.5zM418 257.999c32 0 58.667 -6.83301 80 -20.5s37.333 -30.5 48 -50.5s16 -42 16 -66s-5.33301 -46 -16 -66s-26.667 -36.833 -48 -50.5
s-48 -20.5 -80 -20.5s-58.667 6.83301 -80 20.5s-37.333 30.5 -48 50.5s-16 42 -16 66s5.33301 46 16 66s26.667 36.833 48 50.5s48 20.5 80 20.5zM453 -3.00098c18 4.66699 31.333 14.834 40 30.501s13.334 33.5 14.001 53.5s-2 40.667 -8 62s-14.667 40.333 -26 57
s-24.666 29.5 -39.999 38.5s-32 11.167 -50 6.5s-31.333 -14.834 -40 -30.501s-13.334 -33.5 -14.001 -53.5s2 -40.667 8 -62s14.667 -40.333 26 -57s24.666 -29.5 39.999 -38.5s32 -11.167 50 -6.5z" />
    <glyph glyph-name="ampersand" unicode="&#x26;" horiz-adv-x="662" 
d="M599 410c11.333 -48 14.6611 -94.502 9.99414 -139.502s-16.667 -86.167 -36 -123.5c6 -18.667 9.16699 -38.167 9.5 -58.5s-2.83398 -41.5 -9.50098 -63.5s-17.167 -45.167 -31.5 -69.5s-33.166 -49.5 -56.499 -75.5l-2 2c21.333 42 31.666 86 30.999 132
c0 17.333 -2.33301 33.333 -7 48c-28 -24 -59 -42.333 -93 -55s-69.333 -18.334 -106 -17.001c-55.333 0 -101.333 8.66699 -138 26s-65.167 39.333 -85.5 66s-32.5 55.834 -36.5 87.501s-1.16699 61.834 8.5 90.501s26.167 53.667 49.5 75s52.333 35.333 87 42l1 -3
c-23.333 -6 -42.166 -18 -56.499 -36s-23.166 -38.833 -26.499 -62.5s-1.16602 -48.334 6.50098 -74.001s21.5 -49.167 41.5 -70.5s46.5 -39 79.5 -53s73.167 -21 120.5 -21c30 0 56.5 2.66699 79.5 8s43.167 12.666 60.5 21.999c-11.333 28.667 -28 55.667 -50 81
s-46.167 49.833 -72.5 73.5l-81 69.5c-27.667 22.667 -52.667 45.167 -75 67.5s-40.666 45.166 -54.999 68.499s-21.5 47.333 -21.5 72c0 31.333 5 58.833 15 82.5s23.333 43.334 40 59.001s35.834 27.334 57.501 35.001s44.167 11.5 67.5 11.5
c25.333 0 50.5 -4.5 75.5 -13.5s48.167 -22.5 69.5 -40.5c11.333 -9.33301 18.333 -19 21 -29s2.83398 -19.167 0.500977 -27.5s-7 -15.166 -14 -20.499s-14.833 -8 -23.5 -8c-8 0 -16.167 2.5 -24.5 7.5s-16.166 13.167 -23.499 24.5c-19.333 30 -40.5 52 -63.5 66
s-45.167 21 -66.5 21c-25.333 0 -46.666 -8.66699 -63.999 -26s-26 -42 -26 -74c0 -21.333 7.83301 -42.5 23.5 -63.5s35.834 -42.167 60.501 -63.5s52 -43.166 82 -65.499s59.167 -45.833 87.5 -70.5s54.333 -50.667 78 -78s41.167 -56.333 52.5 -87
c10 20 15.667 41.667 17 65s-0.833984 46.333 -6.50098 69s-14.167 44.167 -25.5 64.5s-25 37.833 -41 52.5c-12 11.333 -20 22.5 -24 33.5s-4.83301 20.833 -2.5 29.5s7 15.667 14 21s14.833 8 23.5 8c13.333 0 27.166 -6.83301 41.499 -20.5s25.5 -37.5 33.5 -71.5z" />
    <glyph glyph-name="quotesingle" unicode="'" horiz-adv-x="155" 
d="M36 684c0 15.333 4.33301 26.667 13 34s18 11 28 11c10.667 0 20.167 -3.83301 28.5 -11.5s12.5 -19.5 12.5 -35.5c0 -8.66699 -2 -18 -6 -28s-8.83301 -19.5 -14.5 -28.5s-12 -17.167 -19 -24.5s-13.5 -13 -19.5 -17l-1 1c9.33301 12 13.333 22.333 12 31
s-4.5 16.5 -9.5 23.5s-10.333 14 -16 21s-8.5 14.833 -8.5 23.5z" />
    <glyph glyph-name="parenleft" unicode="(" horiz-adv-x="277" 
d="M268 768c-38.667 -68 -68 -141.333 -88 -220s-30.167 -158 -30.5 -238s9 -158 28 -234s47.833 -145.333 86.5 -208l-6 -5c-68 68 -119.167 140.333 -153.5 217s-51.5 154.5 -51.5 233.5s17.5 157.5 52.5 235.5s87.833 152 158.5 222z" />
    <glyph glyph-name="parenright" unicode=")" horiz-adv-x="277" 
d="M13 771c70.667 -70 123.5 -144 158.5 -222s52.5 -156.5 52.5 -235.5s-17.167 -156.833 -51.5 -233.5s-85.5 -149 -153.5 -217l-6 5c38.667 62.667 67.5 132 86.5 208s28.333 154 28 234s-10.333 159.333 -30 238s-49.167 152 -88.5 220z" />
    <glyph glyph-name="asterisk" unicode="*" horiz-adv-x="297" 
d="M219 650c9.33301 2.66699 17.168 1.83496 23.501 -2.49805s10.5 -10 12.5 -17s1.83301 -14 -0.5 -21s-8.16602 -11.833 -17.499 -14.5c-7.33301 -2.66699 -16 -4 -26 -4c-9.33301 0 -18.833 0.833008 -28.5 2.5s-19.167 2.16699 -28.5 1.5
c10.667 -9.33301 22.5 -17 35.5 -23s23.5 -14.667 31.5 -26s8.5 -21.833 1.5 -31.5s-15.833 -14.5 -26.5 -14.5c-9.33301 0 -16.666 4 -21.999 12c-8 11.333 -13 24 -15 38s-5.66699 27.667 -11 41c-5.33301 -13.333 -8.83301 -27 -10.5 -41s-6.5 -26.667 -14.5 -38
c-3.33301 -4.66699 -7 -7.83398 -11 -9.50098s-8 -2.5 -12 -2.5c-5.33301 0 -10.333 1.33301 -15 4s-8.33398 6.16699 -11.001 10.5s-4 9.33301 -4 15s2 11.167 6 16.5c8 11.333 18.5 20 31.5 26s24.833 13.667 35.5 23c-9.33301 0.666992 -18.833 0.166992 -28.5 -1.5
s-19.167 -2.5 -28.5 -2.5c-10 0 -18.667 1.33301 -26 4c-8.66699 2.66699 -14.5 7.5 -17.5 14.5s-3.33301 14 -1 21s6.66602 12.667 12.999 17s14.166 5.16602 23.499 2.49902c13.333 -4.66699 25 -12.167 35 -22.5s20.667 -19.166 32 -26.499
c-3.33301 13.333 -8.5 26.333 -15.5 39s-10.5 26 -10.5 40c0 9.33301 3 16.5 9 21.5s12.667 7.5 20 7.5s14 -2.5 20 -7.5s9 -12.167 9 -21.5c0 -14 -3.33301 -27.333 -10 -40s-11.667 -25.667 -15 -39c11.333 7.33301 22 16.166 32 26.499s21.667 17.833 35 22.5z" />
    <glyph glyph-name="plus" unicode="+" horiz-adv-x="385" 
d="M350 367v-15h-150v-149h-15v149h-150v15h150v150h15v-150h150z" />
    <glyph glyph-name="comma" unicode="," horiz-adv-x="177" 
d="M37 59c0 18.667 5.33105 32.6641 15.998 41.9971s22.334 14 35.001 14c13.333 0 25.166 -4.83301 35.499 -14.5s15.5 -24.5 15.5 -44.5c0 -11.333 -2.33301 -23.166 -7 -35.499s-10.667 -24 -18 -35s-15.333 -21.167 -24 -30.5s-16.667 -16.666 -24 -21.999l-2 2
c12 14.667 17.333 27.5 16 38.5s-5.16602 21 -11.499 30s-13.166 17.833 -20.499 26.5s-11 18.334 -11 29.001z" />
    <glyph glyph-name="hyphen" unicode="-" horiz-adv-x="336" 
d="M21 297v14h294v-14h-294z" />
    <glyph glyph-name="period" unicode="." horiz-adv-x="188" 
d="M94 114c15.333 0 28.498 -5.66797 39.498 -17.001s16.5 -24.666 16.5 -39.999s-5.66699 -28.5 -17 -39.5s-24.666 -16.5 -39.999 -16.5c-7.33301 0 -14.5 1.33301 -21.5 4s-13.167 6.66699 -18.5 12c-8 8.66699 -13 18.5 -15 29.5s-1 21.833 3 32.5
c4.66699 10.667 11.834 19.167 21.501 25.5s20.167 9.5 31.5 9.5z" />
    <glyph glyph-name="slash" unicode="/" horiz-adv-x="510" 
d="M485 732l-434 -744h-13l434 744h13z" />
    <glyph glyph-name="zero" unicode="0" horiz-adv-x="703" 
d="M351 717c47.333 0 89.5 -9.83301 126.5 -29.5s68.333 -46.334 94 -80.001s45.334 -72.5 59.001 -116.5s20.5 -90.333 20.5 -139s-6.83301 -95 -20.5 -139s-33.334 -82.667 -59.001 -116s-57 -60 -94 -80s-79.167 -30 -126.5 -30c-46.667 0 -88.667 10 -126 30
s-68.666 46.667 -93.999 80s-44.833 72 -58.5 116s-20.5 90.333 -20.5 139s6.83301 95 20.5 139s33.167 82.833 58.5 116.5s56.666 60.334 93.999 80.001s79.333 29.5 126 29.5zM395 10c26.667 -1.33301 50.001 4.33105 70.001 16.998s36.667 29.834 50 51.501
s23.333 46.834 30 75.501s10 58.334 10 89.001c0 65.333 -5.66699 125.333 -17 180s-27.833 101.667 -49.5 141s-47.667 70.333 -78 93s-64.5 35 -102.5 37c-30.667 1.33301 -56.334 -5.16699 -77.001 -19.5s-37.167 -33.666 -49.5 -57.999s-21 -52.166 -26 -83.499
s-7.5 -63.333 -7.5 -96c0 -60.667 5.5 -116.834 16.5 -168.501s27 -96.334 48 -134.001s46.833 -67.334 77.5 -89.001s65.667 -33.5 105 -35.5z" />
    <glyph glyph-name="one" unicode="1" horiz-adv-x="307" 
d="M261 7v-7h-213v7h60v530c0 17.333 -0.5 31 -1.5 41s-3.5 17.667 -7.5 23s-9.66699 8.83301 -17 10.5s-17.333 2.5 -30 2.5l149 102v-709h60z" />
    <glyph glyph-name="two" unicode="2" horiz-adv-x="529" 
d="M475 176l-15.001 -174.999l-422 -1v6c6 14.667 18.5 33.5 37.5 56.5l66 77.5l79 92.5c27.667 33 53 66.667 76 101s42 68.5 57 102.5s22.5 66.333 22.5 97c0 48 -8.16699 86.667 -24.5 116s-37.166 44 -62.499 44c-16 0 -33.5 -6.83301 -52.5 -20.5
s-38.5 -35.5 -58.5 -65.5c-11.333 -16.667 -22.5 -28.334 -33.5 -35.001s-21.5 -10 -31.5 -10c-10.667 0 -20 3.5 -28 10.5s-12.833 15.333 -14.5 25s0.333008 19.834 6 30.501s16.167 19.667 31.5 27c32 15.333 63.167 27.333 93.5 36s59.5 13 87.5 13
c25.333 0 48.666 -3.83301 69.999 -11.5s39.833 -19.5 55.5 -35.5s27.834 -36.333 36.501 -61s13 -54.334 13 -89.001c0 -30.667 -6.66699 -60.167 -20 -88.5s-30.5 -55.5 -51.5 -81.5s-45 -50.833 -72 -74.5l-81 -68l-78.5 -62.5c-25.333 -20 -47 -39 -65 -57h242
c26.667 0 48 0.833008 64 2.5s28.5 5.66699 37.5 12s15.5 16.333 19.5 30s7.33301 32.5 10 56.5h6z" />
    <glyph glyph-name="three" unicode="3" horiz-adv-x="596" 
d="M309 404c56.667 4 103.003 -3.16699 139.003 -21.5s62.167 -42.5 78.5 -72.5s23.166 -63.167 20.499 -99.5s-14.5 -70.166 -35.5 -101.499s-50.833 -57.5 -89.5 -78.5s-85.667 -31.5 -141 -31.5c-38.667 0 -76.334 6.5 -113.001 19.5s-68 33.5 -94 61.5
c-14 14.667 -22.667 28.667 -26 42s-3.33301 25.166 0 35.499s9.33301 18.5 18 24.5s18 9 28 9c10.667 0 20.667 -4 30 -12s16.666 -20.667 21.999 -38c12 -46 32 -79.667 60 -101s58 -32 90 -32c30 0 56.5 9.5 79.5 28.5s41.5 42.833 55.5 71.5s22.667 59.5 26 92.5
s0 63.833 -10 92.5s-27.167 52.5 -51.5 71.5s-57.5 28.5 -99.5 28.5v8l175 218h-238c-26.667 0 -48 -0.833008 -64 -2.5s-28.5 -5.66699 -37.5 -12s-15.5 -16.333 -19.5 -30s-7.66699 -32.5 -11 -56.5h-6l15 182h388v-63z" />
    <glyph glyph-name="four" unicode="4" horiz-adv-x="572" 
d="M523 7l-0.000976562 -6.99805h-213v7h60v124h-335l256 557c4.66699 10 11 17.333 19 22s16.333 7 25 7s16.834 -2.16699 24.501 -6.5s13.5 -10.333 17.5 -18s5.5 -16.834 4.5 -27.501s-5.83301 -22.334 -14.5 -35.001l-285 -419h288v253l93 110v-363h57v-79l-57 -1v-124
h60z" />
    <glyph glyph-name="five" unicode="5" horiz-adv-x="584" 
d="M99 381c8.66699 19.333 20 36.502 34 51.502s30 27.667 48 38s37.333 18.166 58 23.499s41.667 8 63 8c28.667 0 56.667 -5 84 -15s51.833 -25.333 73.5 -46s39.167 -47 52.5 -79s20 -70 20 -114c0 -40.667 -7.16699 -76.834 -21.5 -108.501s-33.5 -58.5 -57.5 -80.5
s-51.333 -38.667 -82 -50s-62.334 -17 -95.001 -17c-34.667 0 -69 6.5 -103 19.5s-65 33.5 -93 61.5c-14 13.333 -23 26.5 -27 39.5s-4.66699 24.5 -2 34.5s7.83398 18 15.501 24s16.167 9 25.5 9c11.333 0 22.5 -5 33.5 -15s19.833 -26.667 26.5 -50
c10.667 -39.333 26.834 -68.333 48.501 -87s45.167 -28 70.5 -28c20 0 39.667 5.5 59 16.5s36.833 27 52.5 48s28.334 46.833 38.001 77.5s14.5 66 14.5 106c0 37.333 -5.33301 70 -16 98s-24.667 51.333 -42 70s-36.833 32.667 -58.5 42s-43.834 14 -66.501 14
c-17.333 0 -34.5 -2.83301 -51.5 -8.5s-32.5 -14.167 -46.5 -25.5s-26.333 -25.5 -37 -42.5s-18.334 -36.833 -23.001 -59.5l-9 1h-3l42 363h234c26.667 0 48 0.833008 64 2.5s28.5 5.66699 37.5 12s15.5 16.333 19.5 30s7.66699 32.5 11 56.5h6l-16 -181l-356 -1z" />
    <glyph glyph-name="six" unicode="6" horiz-adv-x="582" 
d="M124 345c9.33301 28 21.167 52.167 35.5 72.5s30.333 37.333 48 51s36.167 23.667 55.5 30s39 9.5 59 9.5c26 0 51.5 -5.33301 76.5 -16s47.333 -26.167 67 -46.5s35.334 -45.333 47.001 -75s17.5 -63.167 17.5 -100.5c0 -44.667 -6.83301 -84.167 -20.5 -118.5
s-32.167 -63 -55.5 -86s-49.833 -40.333 -79.5 -52s-60.5 -17.5 -92.5 -17.5c-45.333 0 -84 10.5 -116 31.5s-57.167 48.667 -75.5 83s-30.333 73.333 -36 117s-4.66699 88.167 3 133.5s21.667 89.5 42 132.5s46.833 81 79.5 114s71.5 58.833 116.5 77.5
s96.167 26.667 153.5 24c16.667 -0.666992 29.167 -5.83398 37.5 -15.501s11.666 -19.5 9.99902 -29.5s-8.83398 -18 -21.501 -24s-32 -6 -58 0c-36 8 -68 12 -96 12c-46 0 -82 -9.33301 -108 -28s-45.667 -42.667 -59 -72s-21.666 -62.166 -24.999 -98.499
s-5 -72.5 -5 -108.5zM122.001 250c0 -38 4.83105 -72.0029 14.498 -102.003s22.334 -55.167 38.001 -75.5s33.5 -35.833 53.5 -46.5s40.333 -16 61 -16c19.333 0 38.333 5 57 15s35.167 25.333 49.5 46s25.833 47 34.5 79s13 70 13 114c0 36.667 -4.16699 68.5 -12.5 95.5
s-19.5 49.333 -33.5 67s-30 30.834 -48 39.501s-36.667 13 -56 13c-20.667 0 -41.167 -5 -61.5 -15s-38.666 -24.667 -54.999 -44s-29.5 -43.166 -39.5 -71.499s-15 -61.166 -15 -98.499z" />
    <glyph glyph-name="seven" unicode="7" horiz-adv-x="543" 
d="M505 693c-44 -27.333 -82.166 -65.1621 -114.499 -113.495s-59.333 -101.833 -81 -160.5s-38.167 -119.5 -49.5 -182.5s-18 -123.167 -20 -180.5c-0.666992 -20.667 -5.83398 -35.834 -15.501 -45.501s-20.167 -14.5 -31.5 -14.5c-12 0 -22.667 5.16699 -32 15.5
s-13 25.166 -11 44.499c6.66699 68 18 130.833 34 188.5s35.5 110.167 58.5 157.5s48.5 89.666 76.5 126.999s57 70 87 98h-228c-26.667 0 -48 -0.833008 -64 -2.5s-28.5 -5.83398 -37.5 -12.501s-15.5 -16.834 -19.5 -30.501s-7.66699 -32.5 -11 -56.5l-6 1l15 174h450v-7z
" />
    <glyph glyph-name="eight" unicode="8" horiz-adv-x="587" 
d="M366 392c22 -12.667 43.1689 -26 63.502 -40s38.333 -29.5 54 -46.5s28.167 -36 37.5 -57s14 -44.5 14 -70.5c0 -28.667 -6.33301 -55 -19 -79s-30.5 -44.333 -53.5 -61s-50.833 -29.667 -83.5 -39s-69 -14 -109 -14c-47.333 1.33301 -86.833 10.5 -118.5 27.5
s-55.834 38.333 -72.501 64s-26.167 54 -28.5 85s2.33398 61 14.001 90s30.167 55.5 55.5 79.5s56.666 41.667 93.999 53c-16 10 -31 20.5 -45 31.5s-26.167 23.5 -36.5 37.5s-18.5 29.5 -24.5 46.5s-9 36.167 -9 57.5c0 19.333 4.5 38.333 13.5 57s22 35.334 39 50.001
s38 26.334 63 35.001s53.5 13 85.5 13h2c42.667 0 78.167 -6.83301 106.5 -20.5s50 -31 65 -52s23.5 -44.167 25.5 -69.5s-1.66699 -49.833 -11 -73.5s-24.333 -44.834 -45 -63.501s-46.334 -32.334 -77.001 -41.001zM162.002 584c0 -21.333 5.66797 -40.502 17.001 -57.502
s26.166 -32.833 44.499 -47.5s39.166 -28.5 62.499 -41.5l71 -39.5c14.667 12 27.334 27.333 38.001 46s18.5 38.834 23.5 60.501s6.66699 43.5 5 65.5s-7.33398 42.167 -17.001 60.5s-23.667 33.833 -42 46.5s-41.833 20.334 -70.5 23.001
c-47.333 0 -81.166 -10.5 -101.499 -31.5s-30.5 -49.167 -30.5 -84.5zM288.003 -2.00195c22.667 0 43.9971 3.16797 63.9971 9.50098s37.5 15.666 52.5 27.999s26.833 27.5 35.5 45.5s13 39 13 63c0 34 -7.16699 62.5 -21.5 85.5s-32.666 43 -54.999 60
s-47.166 32.5 -74.499 46.5s-53.666 28.333 -78.999 43c-19.333 -10.667 -36 -27.334 -50 -50.001s-24.333 -47.667 -31 -75s-9.16699 -55.666 -7.5 -84.999s8.16699 -56.333 19.5 -81s28 -45.167 50 -61.5s50 -25.833 84 -28.5z" />
    <glyph glyph-name="nine" unicode="9" horiz-adv-x="582" 
d="M294 712c45.333 1.33301 84.1689 -8.3291 116.502 -28.9961s58.166 -47.834 77.499 -81.501s32.166 -72.334 38.499 -116.001s6.16602 -88.167 -0.500977 -133.5s-19.667 -89.666 -39 -132.999s-45 -81.833 -77 -115.5s-70.333 -60.334 -115 -80.001
s-95.667 -28.834 -153 -27.501c-16.667 0.666992 -29.334 5.66699 -38.001 15s-12.167 19 -10.5 29s8.83398 18.167 21.501 24.5s32 6.83301 58 1.5c35.333 -7.33301 65.333 -11 90 -11c46.667 0 83.334 9.5 110.001 28.5s46.5 43.5 59.5 73.5s20.833 63.5 23.5 100.5
s3.66699 73.5 3 109.5c-9.33301 -28.667 -21.166 -53.5 -35.499 -74.5s-30.333 -38.333 -48 -52s-36.334 -23.834 -56.001 -30.501s-39.5 -10 -59.5 -10c-26 0 -51.333 5.16699 -76 15.5s-46.834 25.5 -66.501 45.5s-35.5 44.5 -47.5 73.5s-18.333 61.833 -19 98.5
c-0.666992 44.667 5.5 84.167 18.5 118.5s30.833 63.333 53.5 87s48.834 41.667 78.501 54s60.5 18.833 92.5 19.5zM138.003 440.005c0.666992 -36 5.5 -67.335 14.5 -94.002s20.5 -48.667 34.5 -66s30 -30.166 48 -38.499s36.333 -12.5 55 -12.5
c21.333 0 42.333 5.16699 63 15.5s39 25.333 55 45s28.667 43.834 38 72.501s13.666 61.667 12.999 99c-0.666992 38 -6 71.667 -16 101s-23 54 -39 74s-34 35.333 -54 46s-40.333 16 -61 16c-20 0 -39.167 -5.16699 -57.5 -15.5s-34.5 -26 -48.5 -47
s-25.167 -47.667 -33.5 -80s-12.166 -70.833 -11.499 -115.5z" />
    <glyph glyph-name="colon" unicode=":" horiz-adv-x="202" 
d="M101 366c-15.333 0 -28.5 5.5 -39.5 16.5s-16.5 24.5 -16.5 40.5c0 15.333 5.5 28.5 16.5 39.5s24.167 16.5 39.5 16.5s28.5 -5.5 39.5 -16.5s16.5 -24.167 16.5 -39.5c0 -16 -5.5 -29.5 -16.5 -40.5s-24.167 -16.5 -39.5 -16.5zM101 235
c15.333 0 28.499 -5.5 39.499 -16.5s16.5 -24.5 16.5 -40.5c0 -15.333 -5.5 -28.5 -16.5 -39.5s-24.167 -16.5 -39.5 -16.5c-16 0 -29.667 5.66699 -41 17c-8 8 -13 17.5 -15 28.5s-1 21.833 3 32.5c4.66699 10.667 11.834 19.167 21.501 25.5s20.167 9.5 31.5 9.5z" />
    <glyph glyph-name="semicolon" unicode=";" horiz-adv-x="203" 
d="M101 366c-15.333 0 -28.5 5.5 -39.5 16.5s-16.5 24.5 -16.5 40.5c0 15.333 5.5 28.5 16.5 39.5s24.167 16.5 39.5 16.5s28.5 -5.5 39.5 -16.5s16.5 -24.167 16.5 -39.5c0 -16 -5.5 -29.5 -16.5 -40.5s-24.167 -16.5 -39.5 -16.5zM50 179
c0 18.667 5.33105 32.6641 15.998 41.9971s22.667 14 36 14c12.667 0 24.167 -4.83301 34.5 -14.5s15.5 -24.167 15.5 -43.5c0 -11.333 -2.33301 -23.166 -7 -35.499s-10.667 -24.166 -18 -35.499s-15.333 -21.5 -24 -30.5s-16.667 -16.167 -24 -21.5l-2 1
c12 15.333 17.333 28.333 16 39s-5.16602 20.5 -11.499 29.5s-13.166 17.833 -20.499 26.5s-11 18.334 -11 29.001z" />
    <glyph glyph-name="less" unicode="&#x3c;" horiz-adv-x="210" 
d="M104 322l63 -130h-25l-103 130l103 131h25z" />
    <glyph glyph-name="equal" unicode="=" horiz-adv-x="265" 
d="M237 410v-16h-210v16h210zM27 325h210v-15h-210v15z" />
    <glyph glyph-name="greater" unicode="&#x3e;" horiz-adv-x="210" 
d="M170 322l-103 -130h-25l64 130l-64 131h25z" />
    <glyph glyph-name="question" unicode="?" horiz-adv-x="489" 
d="M57 666c9.33301 7.33301 21.1689 14.3291 35.502 20.9961s30 12.334 47 17.001s35 8.33398 54 11.001s37.833 4 56.5 4c25.333 0 49.666 -2.66699 72.999 -8s44.166 -13.833 62.499 -25.5s33 -27.167 44 -46.5s16.5 -43 16.5 -71c0 -34.667 -6.66699 -64.5 -20 -89.5
s-30 -47.667 -50 -68s-41.833 -39.666 -65.5 -57.999s-45.5 -38.5 -65.5 -60.5s-36.667 -47.167 -50 -75.5s-20 -62.5 -20 -102.5h-9c0 42.667 4.66699 80 14 112s21.166 60.5 35.499 85.5s29.833 47.667 46.5 68s32.167 40.5 46.5 60.5s26.166 41 35.499 63
s14 46.667 14 74c0 20 -3 38 -9 54s-14.167 29.833 -24.5 41.5s-22.166 20.667 -35.499 27s-27.666 9.5 -42.999 9.5c-21.333 0 -42.666 -6.83301 -63.999 -20.5s-40.666 -35.5 -57.999 -65.5c-7.33301 -13.333 -15.666 -23 -24.999 -29s-18.333 -9 -27 -9
s-16.334 2.5 -23.001 7.5s-11.334 11.5 -14.001 19.5s-2.33398 16.833 0.999023 26.5s10.333 18.834 21 27.501zM173.003 -9.00391c-13.333 0 -24.666 4.66699 -33.999 14s-14 20.666 -14 33.999s4.66699 24.666 14 33.999s20.666 14 33.999 14s24.666 -4.66699 33.999 -14
s14 -20.666 14 -33.999s-4.66699 -24.666 -14 -33.999s-20.666 -14 -33.999 -14z" />
    <glyph glyph-name="at" unicode="@" horiz-adv-x="857" 
d="M436 708c64.667 0 120.671 -11.5068 168.004 -34.5068s86.333 -53 117 -90s52.834 -79.333 66.501 -127s19.167 -96 16.5 -145s-13.5 -96.833 -32.5 -143.5s-45.833 -88 -80.5 -124l-9 10c34 34.667 60 74.5 78 119.5s28.333 91.167 31 138.5s-2.66602 94 -15.999 140
s-34.666 86.833 -63.999 122.5s-67 64.5 -113 86.5s-100 33 -162 33c-60.667 0 -113.834 -9.83301 -159.501 -29.5s-83.834 -45.667 -114.501 -78s-54.167 -69.166 -70.5 -110.499s-25.5 -83.666 -27.5 -126.999s3 -85.666 15 -126.999s30.5 -78.166 55.5 -110.499
s56.833 -58.333 95.5 -78s83.334 -29.5 134.001 -29.5c27.333 0 51.166 2.66699 71.499 8s37 15.333 50 30s22.667 35.167 29 61.5s9.5 60.5 9.5 102.5v54c-4 -20 -10.667 -37.167 -20 -51.5s-20.166 -26.166 -32.499 -35.499s-25.833 -16.333 -40.5 -21
s-29.334 -7 -44.001 -7c-16 0 -31.333 2.5 -46 7.5s-27.834 12.333 -39.501 22s-21 21.667 -28 36s-10.5 30.833 -10.5 49.5c0 20.667 3.66699 38.167 11 52.5s16.666 26.5 27.999 36.5s23.333 18.5 36 25.5l36 19.5c11.333 6 20.666 12.167 27.999 18.5s11 13.833 11 22.5
c0 12.667 -3.66699 22.5 -11 29.5s-16.333 10.5 -27 10.5s-21.667 -3.66699 -33 -11l-7 -5c-8 -5.33301 -16.333 -8 -25 -8c-8 0 -14.5 2.5 -19.5 7.5s-7.66699 11 -8 18s2 13.833 7 20.5s13.167 12 24.5 16c24.667 8.66699 50 16.167 76 22.5s50.667 9.5 74 9.5
c18 0 34.667 -2.5 50 -7.5s28.666 -13.167 39.999 -24.5s20.166 -26.666 26.499 -45.999s9.5 -43.333 9.5 -72v-167c0 -44.667 -6.16699 -82.167 -18.5 -112.5s-28.833 -54.666 -49.5 -72.999s-44.667 -31.333 -72 -39s-56 -11.5 -86 -11.5c-54 0 -101.167 10.333 -141.5 31
s-73.666 47.667 -99.999 81s-45.5 71.5 -57.5 114.5s-16.833 86.833 -14.5 131.5s12.166 88.5 29.499 131.5s42 81.167 74 114.5s71.5 60.333 118.5 81s101.5 31 163.5 31zM524.004 456.993c0 29.333 -5.50391 50.333 -16.5039 63s-24.833 19 -41.5 19
c-13.333 0 -27 -3.16699 -41 -9.5s-27.667 -15.166 -41 -26.499c-5.33301 -4 -7.66602 -8.5 -6.99902 -13.5s4.33398 -8.16699 11.001 -9.5c9.33301 -2.66699 17.166 -7.83398 23.499 -15.501s9.5 -18.167 9.5 -31.5c0 -12.667 -4.66699 -23.667 -14 -33
s-19.666 -19.166 -30.999 -29.499s-21.666 -22.333 -30.999 -36s-14 -31.167 -14 -52.5c0 -33.333 9 -58.333 27 -75s38.333 -25 61 -25c12.667 0 25.334 2.5 38.001 7.5s24 12.667 34 23s18 23.166 24 38.499s9 33 9 53v153z" />
    <glyph glyph-name="A" unicode="A" horiz-adv-x="752" 
d="M758 0l-311.998 0.00195312v7c23.333 0 41.666 1.66699 54.999 5s22.333 10.166 27 20.499s5 25 1 44s-12 43.833 -24 74.5l-6 13h-336l-9 -22c-12 -30.667 -19.667 -55 -23 -73s-2.33301 -31.667 3 -41s15 -15.166 29 -17.499s32.333 -3.5 55 -3.5v-7h-224v7
c14.667 0 27.667 0.666992 39 2s21.666 4.66602 30.999 9.99902s18.166 13.166 26.499 23.499s16.833 24.5 25.5 42.5l210 517l-39 98h97l207 -506c16.667 -41.333 31 -74.333 43 -99s23.833 -43.5 35.5 -56.5s24.334 -21.5 38.001 -25.5s30.5 -6 50.5 -6v-7z
M495.002 175.002l-162 409l-166 -409h328z" />
    <glyph glyph-name="A" unicode="&#xc2;" horiz-adv-x="752" 
d="M758 0l-311.998 0.00195312v7c23.333 0 41.666 1.66699 54.999 5s22.333 10.166 27 20.499s5 25 1 44s-12 43.833 -24 74.5l-6 13h-336l-9 -22c-12 -30.667 -19.667 -55 -23 -73s-2.33301 -31.667 3 -41s15 -15.166 29 -17.499s32.333 -3.5 55 -3.5v-7h-224v7
c14.667 0 27.667 0.666992 39 2s21.666 4.66602 30.999 9.99902s18.166 13.166 26.499 23.499s16.833 24.5 25.5 42.5l210 517l-39 98h97l207 -506c16.667 -41.333 31 -74.333 43 -99s23.833 -43.5 35.5 -56.5s24.334 -21.5 38.001 -25.5s30.5 -6 50.5 -6v-7z
M495.002 175.002l-162 409l-166 -409h328z" />
    <glyph glyph-name="B" unicode="B" horiz-adv-x="605" 
d="M369 381c47.333 -3.33301 86.5 -15.165 117.5 -35.498s54 -44.5 69 -72.5s21.833 -58 20.5 -90s-10.833 -61.5 -28.5 -88.5s-43.5 -49.5 -77.5 -67.5s-76 -27 -126 -27h-321v7h58v685h-58v8h295c44 0 81 -7 111 -21s53.167 -31.833 69.5 -53.5
s25.833 -45.334 28.5 -71.001s-1.33301 -50.334 -12 -74.001s-28.167 -44.5 -52.5 -62.5s-55.5 -30.333 -93.5 -37zM174 381.001h143.999c26 0 47.833 7.66699 65.5 23s31 34.5 40 57.5s13.833 47.833 14.5 74.5s-3.16602 51.5 -11.499 74.5s-21.5 42.167 -39.5 57.5
s-41 23 -69 23h-144v-310zM336.999 9.00098c31.333 0 57.332 9 77.999 27s35.834 40.5 45.501 67.5s14 56.167 13 87.5s-7.33301 60.5 -19 87.5s-29 49.5 -52 67.5s-51.167 27 -84.5 27h-144v-364h163z" />
    <glyph glyph-name="C" unicode="C" horiz-adv-x="686" 
d="M666 258c-8 -44.667 -22.333 -83.833 -43 -117.5s-45.167 -61.834 -73.5 -84.501s-59.333 -39.5 -93 -50.5s-67.834 -16.5 -102.501 -16.5c-40 0 -79.333 7.5 -118 22.5s-73.167 37.167 -103.5 66.5s-54.833 66.166 -73.5 110.499s-28 95.833 -28 154.5
c0 61.333 9.66699 114.833 29 160.5s44.833 83.667 76.5 114s68 53 109 68s83.5 22.5 127.5 22.5c37.333 0 74.166 -5.16699 110.499 -15.5s70.833 -26.166 103.5 -47.499c22 -14 34.833 -28.833 38.5 -44.5s1.16699 -28.167 -7.5 -37.5s-21.667 -13.333 -39 -12
s-36 11.333 -56 30c-31.333 30 -65.666 52.167 -102.999 66.5s-74.666 21.5 -111.999 21.5c-30.667 0 -60.334 -5 -89.001 -15s-53.667 -25 -75 -45s-38.5 -45 -51.5 -75s-19.5 -65 -19.5 -105c0 -60 9.16699 -112.5 27.5 -157.5s42.333 -82.5 72 -112.5
s63.5 -52.333 101.5 -67s76.333 -22 115 -22c28.667 0 56.834 4 84.501 12s53.5 19.833 77.5 35.5s45.667 35.334 65 59.001s35 51.167 47 82.5z" />
    <glyph glyph-name="D" unicode="D" horiz-adv-x="677" 
d="M307 700c56.667 -0.666992 106.167 -11.1641 148.5 -31.4971s77.666 -47 105.999 -80s49.5 -70.667 63.5 -113s21 -85.333 21 -129s-7 -86.334 -21 -128.001s-35.167 -78.834 -63.5 -111.501s-63.666 -58.834 -105.999 -78.501s-91.833 -29.167 -148.5 -28.5h-284v7h58
v685h-58v8h284zM307 9.00293c40 0 75 9.83105 105 29.498s55.167 45.5 75.5 77.5s35.5 68.333 45.5 109s15 82.334 15 125.001s-5 84.334 -15 125.001s-25.167 77 -45.5 109s-45.5 57.833 -75.5 77.5s-65 29.5 -105 29.5h-133v-682h133z" />
    <glyph glyph-name="E" unicode="E" horiz-adv-x="555" 
d="M530 150l-10.0029 -150.002h-498v7h60v685h-60v8h473v-2l9 -161l-5 -1c-3.33301 18.667 -7.5 37.334 -12.5 56.001s-12.333 35.334 -22 50.001s-22.667 26.5 -39 35.5s-37.833 13.5 -64.5 13.5h-186v-331h157c16.667 0 29.834 2.83301 39.501 8.5
s16.834 12.834 21.501 21.501s7.5 18.167 8.5 28.5s1.5 20.5 1.5 30.5h6l-5 -184h-7c0 13.333 -0.166992 25.166 -0.5 35.499s-2.5 19.333 -6.5 27s-10.5 13.5 -19.5 17.5s-21.833 6 -38.5 6h-157v-342h212c26.667 0 48.167 3.83301 64.5 11.5s29.333 18 39 31
s16.834 28.167 21.501 45.5s8.66699 35.333 12 54z" />
    <glyph glyph-name="F" unicode="F" horiz-adv-x="519" 
d="M504 537l-6.00098 -1.00293c-3.33301 18.667 -7.33301 37.334 -12 56.001s-11.834 35.334 -21.501 50.001s-22.667 26.5 -39 35.5s-37.833 13.5 -64.5 13.5h-186v-369h157c16.667 0 29.834 2.83301 39.501 8.5s16.834 12.834 21.501 21.501s7.5 18.334 8.5 29.001
s1.5 21 1.5 31h6l-5 -185h-7c0 13.333 -0.166992 25.166 -0.5 35.499s-2.5 19.333 -6.5 27s-10.5 13.5 -19.5 17.5s-21.833 6 -38.5 6h-157v-306h60v-7h-213v7h60v685h-60v8h473v-2z" />
    <glyph glyph-name="G" unicode="G" horiz-adv-x="744" 
d="M732 366v-7.00293h-69v-359h-5l-94 139c-10 -24.667 -23 -46.167 -39 -64.5s-33.833 -33.666 -53.5 -45.999s-41 -21.666 -64 -27.999s-46.5 -9.5 -70.5 -9.5c-36.667 0 -73.167 7.33301 -109.5 22s-69 36.667 -98 66s-52.5 66 -70.5 110s-27 95.333 -27 154
c0 61.333 9.66699 114.833 29 160.5s44.833 83.667 76.5 114s68 53 109 68s83.5 22.5 127.5 22.5c37.333 0 74.166 -5.16699 110.499 -15.5s70.833 -26.166 103.5 -47.499c22 -14 34.833 -28.833 38.5 -44.5s1.16699 -28.167 -7.5 -37.5s-21.667 -13.333 -39 -12
s-36 11.333 -56 30c-31.333 30 -65.666 52.167 -102.999 66.5s-74.666 21.5 -111.999 21.5c-30.667 0 -60.334 -5 -89.001 -15s-53.667 -25 -75 -45s-38.5 -45 -51.5 -75s-19.5 -65 -19.5 -105c0 -60 9.5 -112.5 28.5 -157.5s43.5 -82.333 73.5 -112
s63.5 -51.834 100.5 -66.501s73.5 -22 109.5 -22c26 0 50.833 4 74.5 12s44.5 19.667 62.5 35s32.333 34.833 43 58.5s16 50.834 16 81.501v101h-84v7h234z" />
    <glyph glyph-name="H" unicode="H" horiz-adv-x="682" 
d="M599 692v-685h60v-7h-213v7h60v326h-331v-326h60v-7h-213v7h60v685h-60v8h213v-8h-60v-350h331v350h-60v8h213v-8h-60z" />
    <glyph glyph-name="I" unicode="I" horiz-adv-x="257" 
d="M175 692v-685h60v-7h-213v7h60v685h-60v8h213v-8h-60z" />
    <glyph glyph-name="J" unicode="J" horiz-adv-x="253" 
d="M234 700l-0.00195312 -7.99902h-61v-527c0 -23.333 -2.16699 -46.5 -6.5 -69.5s-11.666 -44.167 -21.999 -63.5s-24.166 -36 -41.499 -50s-39.333 -24 -66 -30l-2 5c7.33301 9.33301 13.833 19.166 19.5 29.499s10.5 23 14.5 38s7 33.667 9 56s3 50.5 3 84.5v527h-60v8
h213z" />
    <glyph glyph-name="K" unicode="K" horiz-adv-x="629" 
d="M175 7h60v-7h-213v7h60v685h-60v8h213v-8h-60v-685zM644 696c-14.667 0 -28.6719 -0.830078 -42.0049 -2.49707s-27.166 -6 -41.499 -13s-30.166 -17.333 -47.499 -31s-37.666 -32.834 -60.999 -57.501l-195 -207l218 -272c9.33301 -12.667 19.833 -25.834 31.5 -39.501
s24.334 -25.834 38.001 -36.501s28 -19.5 43 -26.5s30.5 -10.5 46.5 -10.5h-150c-9.33301 -0 -18.166 2.33301 -26.499 7s-16.333 10.667 -24 18s-15 15.166 -22 23.499s-13.5 16.5 -19.5 24.5l-200 255l238 252c21.333 22.667 36.833 41.5 46.5 56.5
s14.167 26.833 13.5 35.5s-6.16699 14.834 -16.5 18.501s-24.833 5.5 -43.5 5.5v4h214v-4z" />
    <glyph glyph-name="L" unicode="L" horiz-adv-x="538" 
d="M530 150l-10.001 -150h-498v7h60v685h-60v8h213v-8h-60v-683h212c26.667 0 48.167 3.83301 64.5 11.5s29.333 18 39 31s16.834 28.167 21.501 45.5s8.66699 35.333 12 54z" />
    <glyph glyph-name="M" unicode="M" horiz-adv-x="876" 
d="M769 7h57.001v-7h-213v7h57v643l-247 -650h-11l-274 612v-461c0 -32.667 2.16699 -58.5 6.5 -77.5s11.5 -33.5 21.5 -43.5s23 -16.333 39 -19s35.333 -4 58 -4v-7h-261v7c23.333 0 42.833 1.33301 58.5 4s28.5 9 38.5 19s17.167 24.5 21.5 43.5s6.5 44.833 6.5 77.5v398
c0 32.667 -0.833008 58.5 -2.5 77.5s-6 33.5 -13 43.5s-17 16.333 -30 19s-31.167 4 -54.5 4v7h182l251 -574l219 574h189v-7c-22.667 0 -40.667 -1.33301 -54 -4s-23.333 -9 -30 -19s-10.834 -24.5 -12.501 -43.5s-2.5 -44.833 -2.5 -77.5v-542z" />
    <glyph glyph-name="N" unicode="N" horiz-adv-x="713" 
d="M715 700l-0.00292969 -7c-22.667 0 -42 -1.33301 -58 -4s-29 -9 -39 -19s-17.167 -24.5 -21.5 -43.5s-6.5 -44.833 -6.5 -77.5v-562h-11l-441 630v-473c0 -31.333 2.33301 -56 7 -74s11.834 -31.667 21.501 -41s22.334 -15.333 38.001 -18s34.834 -4 57.501 -4v-7h-260v7
c23.333 0 42.833 1.33301 58.5 4s28.5 9 38.5 19s17.167 24.5 21.5 43.5s6.5 44.833 6.5 77.5v398c0 32.667 -0.833008 58.5 -2.5 77.5s-6 33.5 -13 43.5s-17 16.333 -30 19s-31.167 4 -54.5 4v7h175l377 -548v397c0 32.667 -2.16699 58.5 -6.5 77.5s-11.5 33.5 -21.5 43.5
s-22.833 16.333 -38.5 19s-35.167 4 -58.5 4v7h261z" />
    <glyph glyph-name="O" unicode="O" horiz-adv-x="762" 
d="M381 715c58 0 108.833 -10.5 152.5 -31.5s80.167 -48.5 109.5 -82.5s51.333 -73 66 -117s22 -88.667 22 -134s-7.33301 -90 -22 -134s-36.667 -83 -66 -117s-65.833 -61.5 -109.5 -82.5s-94.5 -31.5 -152.5 -31.5c-58.667 0 -109.834 10.5 -153.501 31.5
s-80 48.5 -109 82.5s-50.833 73 -65.5 117s-22 88.667 -22 134s7.33301 90 22 134s36.5 83 65.5 117s65.333 61.5 109 82.5s94.834 31.5 153.501 31.5zM435 7c40.667 -1.33301 75 7.16211 103 25.4951s50.167 43.333 66.5 75s26.833 67.834 31.5 108.501
s4.16699 82.334 -1.5 125.001s-16.667 84.834 -33 126.501s-37.666 78.834 -63.999 111.501s-57.166 59.5 -92.499 80.5s-75 32.167 -119 33.5c-40 1.33301 -74 -7.16699 -102 -25.5s-50.167 -43.166 -66.5 -74.499s-27.333 -67.333 -33 -108
s-5.83398 -82.5 -0.500977 -125.5s16 -85.167 32 -126.5s37 -78.5 63 -111.5s57.167 -60 93.5 -81s77.166 -32.167 122.499 -33.5z" />
    <glyph glyph-name="P" unicode="P" horiz-adv-x="616" 
d="M307 700c96 0 168 -20.167 216 -60.5s72 -97.5 72 -171.5s-24 -131.333 -72 -172s-120.333 -61 -217 -61h-131v-228h60v-7h-213v7h60v685h-60v8h285zM307 244c60.667 0 107.334 19.667 140.001 59s49 94.333 49 165s-16.333 125.5 -49 164.5s-79.334 58.5 -140.001 58.5
h-132v-447h132z" />
    <glyph glyph-name="Q" unicode="Q" horiz-adv-x="761" 
d="M381 715c58 0 108.833 -10.5 152.5 -31.5s80.167 -48.5 109.5 -82.5s51.333 -73 66 -117s22 -88.667 22 -134s-7.33301 -90 -22 -134s-36.667 -83 -66 -117s-65.833 -61.5 -109.5 -82.5s-94.5 -31.5 -152.5 -31.5c-58.667 0 -109.834 10.5 -153.501 31.5
s-80 48.5 -109 82.5s-50.833 73 -65.5 117s-22 88.667 -22 134s7.33301 90 22 134s36.5 83 65.5 117s65.333 61.5 109 82.5s94.834 31.5 153.501 31.5zM326 693c-40 1.33301 -74 -7.17188 -102 -25.5049s-50.167 -43.166 -66.5 -74.499s-27.333 -67.333 -33 -108
s-5.83398 -82.5 -0.500977 -125.5s16 -85.167 32 -126.5s37 -78.5 63 -111.5s57.167 -60 93.5 -81s77.166 -32.167 122.499 -33.5c40.667 -1.33301 75 7.16699 103 25.5s50.167 43.333 66.5 75s26.833 67.834 31.5 108.501s4.16699 82.334 -1.5 125.001
s-16.667 84.834 -33 126.501s-37.666 78.834 -63.999 111.501s-57.166 59.5 -92.499 80.5s-75 32.167 -119 33.5zM756 -48.0049c-11.333 -20.667 -24.002 -37.8301 -38.002 -51.4971s-29.167 -24.5 -45.5 -32.5s-33.333 -13.667 -51 -17s-36.167 -5 -55.5 -5
c-27.333 0 -55.5 2.66699 -84.5 8s-57.5 11 -85.5 17l-80.5 17c-25.667 5.33301 -49.5 8 -71.5 8c-17.333 0 -33.166 -2.16699 -47.499 -6.5s-26.5 -12.166 -36.5 -23.499l-2 2c24 31.333 51.5 52.666 82.5 63.999s63.5 17 97.5 17c26 0 52.667 -2.33301 80 -7
s54.333 -9.83398 81 -15.501s52.334 -10.834 77.001 -15.501s48 -7 70 -7c23.333 0 44.333 3.66699 63 11s34 20.666 46 39.999z" />
    <glyph glyph-name="R" unicode="R" horiz-adv-x="664" 
d="M456 139c12 -12.667 26.832 -27.165 44.499 -43.498s36 -31.5 55 -45.5s37.833 -25.833 56.5 -35.5s35 -14.5 49 -14.5h-151c-9.33301 0 -18.666 2.33301 -27.999 7s-18.666 10.667 -27.999 18s-18.333 15.333 -27 24l-24 25l-125 131
c-7.33301 7.33301 -15 14.166 -23 20.499s-16.667 9.5 -26 9.5h-54v-228h60v-7h-213v7h60v685h-60v8h285c96 0 168 -20.167 216 -60.5s72 -97.5 72 -171.5c0 -68 -20.333 -121.833 -61 -161.5s-101.334 -62.834 -182.001 -69.501c15.333 -6 28 -16 38 -30zM306.999 244.002
c60.667 0 107.334 19.667 140.001 59s49 94.333 49 165s-16.333 125.5 -49 164.5s-79.334 58.5 -140.001 58.5h-132v-447h132z" />
    <glyph glyph-name="S" unicode="S" horiz-adv-x="577" 
d="M82 578c0 -26.667 6.67773 -49.333 20.0107 -68s31 -34.834 53 -48.501s47.167 -25.667 75.5 -36s57.166 -20.166 86.499 -29.499s58.166 -19.166 86.499 -29.499s53.5 -22.166 75.5 -35.499s39.667 -29 53 -47s20 -40 20 -66c0 -42.667 -8 -78.834 -24 -108.501
s-37.333 -53.834 -64 -72.501s-57.334 -32 -92.001 -40s-70.667 -12 -108 -12c-33.333 0 -66.5 2.83301 -99.5 8.5s-64.5 13.5 -94.5 23.5c-17.333 6 -29.333 14.667 -36 26s-9 22.666 -7 33.999s7.83301 21.166 17.5 29.499s21.5 12.5 35.5 12.5
c11.333 0 22.333 -2.66699 33 -8c44 -21.333 88.5 -37.666 133.5 -48.999s86.833 -17 125.5 -17c22 0 42.167 2 60.5 6s34.166 10 47.499 18s23.666 18.333 30.999 31s11 27.334 11 44.001c0 29.333 -11.833 53.333 -35.5 72s-53.334 34.834 -89.001 48.501
s-74.167 26.334 -115.5 38.001s-79.833 25.5 -115.5 41.5s-65.334 35.333 -89.001 58s-35.5 52 -35.5 88c0 43.333 6.66699 79.5 20 108.5s31.166 52.333 53.499 70s47.833 30.167 76.5 37.5s58 11 88 11c36 0 71.167 -4.16699 105.5 -12.5s64.166 -18.5 89.499 -30.5
c14 -6.66699 23.5 -14.834 28.5 -24.501s6.66699 -19.167 5 -28.5s-6.33398 -17.333 -14.001 -24s-17.5 -10 -29.5 -10c-12.667 0 -26.334 4.33301 -41.001 13c-38 23.333 -77.667 42.5 -119 57.5s-79 22.5 -113 22.5c-32 0 -58.333 -7.83301 -79 -23.5
s-31 -41.834 -31 -78.501z" />
    <glyph glyph-name="T" unicode="T" horiz-adv-x="572" 
d="M563 537l-5.99609 -1c-3.33301 18.667 -7.33301 37.334 -12 56.001s-11.834 35.334 -21.501 50.001s-22.834 26.5 -39.501 35.5s-38.334 13.5 -65.001 13.5h-87v-684h60v-7h-213v7h60v684h-87c-26.667 0 -48.167 -4.5 -64.5 -13.5s-29.333 -20.833 -39 -35.5
s-16.834 -31.334 -21.501 -50.001s-8.66699 -37.334 -12 -56.001l-6 1l10 163h534z" />
    <glyph glyph-name="U" unicode="U" horiz-adv-x="723" 
d="M726 700l0.00390625 -7.00098c-26 0 -47.167 -0.666992 -63.5 -2s-29 -6.16602 -38 -14.499s-15.167 -21.333 -18.5 -39s-5 -43.167 -5 -76.5v-352c0.666992 -37.333 -6.5 -70 -21.5 -98s-34.667 -51.333 -59 -70s-52.333 -32.667 -84 -42s-63.834 -14 -96.501 -14
s-64.834 4.66699 -96.501 14s-59.834 23.333 -84.501 42s-44.5 42 -59.5 70s-22.167 60.667 -21.5 98v483h-61v8h213v-8h-61v-483c0 -33.333 5.66699 -62.166 17 -86.499s26.5 -44.5 45.5 -60.5s40.667 -28 65 -36s49.166 -12 74.499 -12c27.333 0 54 4.16699 80 12.5
s49.167 20.833 69.5 37.5s36.833 37 49.5 61s19 52 19 84v366c0 29.333 -1.83301 52 -5.5 68s-10 27.667 -19 35s-21.5 11.666 -37.5 12.999s-36.667 2 -62 2v7h261z" />
    <glyph glyph-name="V" unicode="V" horiz-adv-x="751" 
d="M757 700v-6.99805c-14.667 0 -27.834 -0.666992 -39.501 -2s-22.167 -4.83301 -31.5 -10.5s-18.166 -13.834 -26.499 -24.501s-16.833 -25 -25.5 -43l-36 -88c-1.33301 -2.66699 -2 -5 -2 -7v3l-212 -521h-17l-283 692h-90v8h279v-8h-84l228 -575l182 447
c11.333 29.333 18.5 52.666 21.5 69.999s1.83301 30.333 -3.5 39s-15 14.167 -29 16.5s-32.333 3.5 -55 3.5v7h224z" />
    <glyph glyph-name="W" unicode="W" horiz-adv-x="1165" 
d="M1170 700v-6.99707c-14.667 0 -27.834 -0.666992 -39.501 -2s-22.167 -4.83301 -31.5 -10.5s-18.166 -13.834 -26.499 -24.501s-16.833 -25 -25.5 -43l-36 -88c0 -0.666992 -0.333008 -1.33398 -1 -2.00098l-213 -523h-17l-198 485l-198 -485h-17l-283 692h-90v8h279v-8
h-84l228 -575l157 386l-77 189h-90v8h279v-8h-83l227 -575l183 447c10.667 29.333 17.5 52.666 20.5 69.999s1.83301 30.333 -3.5 39s-15 14.167 -29 16.5s-32.333 3.5 -55 3.5v7h224zM1010 521.003v-0.999023c-0.666992 -0.666992 -1 -1.33398 -1 -2.00098z" />
    <glyph glyph-name="X" unicode="X" horiz-adv-x="729" 
d="M729 7l-0.000976562 -6.99902h-279v7h89l-208 312l-121 -184v1c-19.333 -30 -32.666 -53.5 -39.999 -70.5s-9.16602 -29.833 -5.49902 -38.5s12.667 -14.167 27 -16.5s32.833 -3.5 55.5 -3.5v-7h-224v7c19.333 0 35.833 2 49.5 6s27.167 11.5 40.5 22.5
s27.333 26.167 42 45.5s32.334 44.666 53.001 75.999l115 174l-240 361h-84v8h279v-8h-87l205 -310l120 182c20 30 33.667 53.5 41 70.5s9.16602 29.833 5.49902 38.5s-12.5 14.167 -26.5 16.5s-32.667 3.5 -56 3.5v7h224v-7c-20 0 -37.167 -2.16699 -51.5 -6.5
s-28.5 -12.5 -42.5 -24.5s-28.833 -28.667 -44.5 -50s-34.834 -49.333 -57.501 -84l-104 -158l239 -363h86z" />
    <glyph glyph-name="Y" unicode="Y" horiz-adv-x="745" 
d="M750 700l-0.00292969 -7c-20 0 -37.667 -1.66699 -53 -5s-30.666 -10.666 -45.999 -21.999s-31.666 -27.833 -48.999 -49.5s-38 -51.167 -62 -88.5l-128 -201v-320h59v-7h-213v7h61v307h-1l-234 378h-90v8h279v-8h-81l213 -347h1l137 213
c32.667 51.333 46.334 86.666 41.001 105.999s-31 29 -77 29v7h243z" />
    <glyph glyph-name="Z" unicode="Z" horiz-adv-x="573" 
d="M553 163l-9 -162.998h-520v9l400 682h-260c-26.667 0 -48.167 -4.5 -64.5 -13.5s-29.333 -20.833 -39 -35.5s-16.834 -31.334 -21.501 -50.001s-8.66699 -37.334 -12 -56.001l-6 1l10 163h509v-9l-403 -682h273c26.667 0 48.167 4.5 64.5 13.5s29.333 20.833 39 35.5
s16.834 31.167 21.501 49.5s8.66699 36.833 12 55.5h6z" />
    <glyph glyph-name="bracketleft" unicode="[" horiz-adv-x="149" 
d="M144 -64v-22h-84v832h84v-21h-55v-789h55z" />
    <glyph glyph-name="backslash" unicode="\" horiz-adv-x="510" 
d="M471 -12h-13l-434 744h13z" />
    <glyph glyph-name="bracketright" unicode="]" horiz-adv-x="149" 
d="M89 746v-832h-84v22h55v789h-55v21h84z" />
    <glyph glyph-name="underscore" unicode="_" horiz-adv-x="483" 
d="M21 10v14h440v-14h-440z" />
    <glyph glyph-name="grave" unicode="`" horiz-adv-x="269" 
d="M234 487l-4 -4l-165 111c-12.667 8.66699 -20.667 18 -24 28s-3.5 19.167 -0.5 27.5s8.33301 15.333 16 21s16.167 8.5 25.5 8.5c15.333 0 28.333 -7.66699 39 -23z" />
    <glyph glyph-name="a" unicode="a" 
d="M590 48c-18 -18.667 -36.998 -32.3359 -56.998 -41.0029s-39 -13 -57 -13c-22.667 0 -41.834 7 -57.501 21s-23.5 33.667 -23.5 59v76c-6 -27.333 -15.333 -51.166 -28 -71.499s-27.667 -37 -45 -50s-36.166 -22.667 -56.499 -29s-40.833 -9.5 -61.5 -9.5
c-22 0 -43.333 3.5 -64 10.5s-39 17.333 -55 31s-28.833 30.334 -38.5 50.001s-14.5 42.167 -14.5 67.5c0 28.667 5.16699 53 15.5 73s23.166 37 38.499 51s32.166 26 50.499 36l50.5 27.5c15.333 8.33301 28.166 17 38.499 26s15.5 19.5 15.5 31.5
c0 17.333 -5.16699 30.833 -15.5 40.5s-23.166 14.5 -38.499 14.5c-14.667 0 -29.667 -5 -45 -15l-9 -7c-12.667 -8 -24.334 -12 -35.001 -12s-19.5 3.5 -26.5 10.5s-10.833 15.333 -11.5 25s2.33301 19.334 9 29.001s18 17.167 34 22.5c34 11.333 69 21.666 105 30.999
s70.333 14 103 14c24.667 0 47.834 -3.33301 69.501 -10s40.5 -18.167 56.5 -34.5s28.5 -38 37.5 -65s13.5 -60.5 13.5 -100.5v-232c0 -25.333 4.16699 -45.166 12.5 -59.499s19.5 -21.5 33.5 -21.5c16.667 0 35 9 55 27zM395.002 423.998
c0.666992 40.667 -6.83594 69.833 -22.5029 87.5s-35.167 26.5 -58.5 26.5c-17.333 0 -35.833 -4.5 -55.5 -13.5s-38.834 -21.167 -57.501 -36.5c-7.33301 -5.33301 -10.666 -11.5 -9.99902 -18.5s5.66699 -11.5 15 -13.5c13.333 -3.33301 24.333 -10.5 33 -21.5
s13 -25.5 13 -43.5c0 -17.333 -6.5 -32.5 -19.5 -45.5l-43.5 -41.5c-16 -14.667 -30.5 -31.5 -43.5 -50.5s-19.5 -43.5 -19.5 -73.5c0 -23.333 3.33301 -43.666 10 -60.999s15.834 -31.833 27.501 -43.5s24.834 -20.334 39.501 -26.001s30 -8.5 46 -8.5
c18 0 35.667 3.66699 53 11s32.833 18 46.5 32s24.834 31.667 33.501 53s13 46 13 74v213z" />
    <glyph glyph-name="b" unicode="b" horiz-adv-x="608" 
d="M149 374c7.33301 29.333 18.1689 54.999 32.502 76.999s30.833 40.333 49.5 55s39 25.834 61 33.501s44.333 11.5 67 11.5c27.333 0 53.833 -5.33301 79.5 -16s48.5 -27 68.5 -49s36.167 -49.667 48.5 -83s18.5 -72.666 18.5 -117.999c0 -52 -7.33301 -96.5 -22 -133.5
s-33.834 -67.333 -57.501 -91s-50.667 -41 -81 -52s-61.5 -16.5 -93.5 -16.5c-24 0 -45.667 1.33301 -65 4s-37 5.66699 -53 9l-44.5 9c-13.667 2.66699 -26.834 4 -39.501 4c-10.667 0 -21 -1.16699 -31 -3.5s-20.333 -7.16602 -31 -14.499v786
c0 9.33301 -1.66699 16.666 -5 21.999s-7.83301 9.16602 -13.5 11.499s-12 3.5 -19 3.5s-14.5 -0.333008 -22.5 -1v5l153 17v-470zM149.003 201.999c0 -32 4.50098 -60.333 13.501 -85s20.667 -45.334 35 -62.001s30.833 -29.334 49.5 -38.001s38 -13 58 -13
c21.333 0 42.166 5 62.499 15s38.5 25 54.5 45s28.833 45.167 38.5 75.5s14.5 65.833 14.5 106.5c0 46 -4.66699 85.667 -14 119s-21.5 60.833 -36.5 82.5s-32.333 37.5 -52 47.5s-39.5 15 -59.5 15c-20.667 0 -40.834 -4.83301 -60.501 -14.5s-37.167 -23.667 -52.5 -42
s-27.666 -40.666 -36.999 -66.999s-14 -56.166 -14 -89.499v-95z" />
    <glyph glyph-name="c" unicode="c" horiz-adv-x="537" 
d="M518 197c-6.66699 -34.667 -17.832 -64.999 -33.499 -90.999s-34.167 -47.667 -55.5 -65s-45 -30.333 -71 -39s-52.333 -13 -79 -13c-30.667 0 -60.834 5.66699 -90.501 17s-56 28.5 -79 51.5s-41.5 51.667 -55.5 86s-21 74.166 -21 119.499
c0 51.333 7.83301 94.833 23.5 130.5s36.334 64.834 62.001 87.501s54.667 39 87 49s64.833 15 97.5 15c24 0 47.5 -2.33301 70.5 -7s44.5 -11.334 64.5 -20.001c11.333 -4.66699 19.166 -11 23.499 -19s5.83301 -15.667 4.5 -23s-5.33301 -13.833 -12 -19.5
s-16 -8.5 -28 -8.5c-16 0 -34 5.66699 -54 17c-26.667 15.333 -52.667 26.833 -78 34.5s-49.333 11.5 -72 11.5c-42 0 -76.167 -13.5 -102.5 -40.5s-39.833 -68.5 -40.5 -124.5c0 -49.333 6.66699 -91.833 20 -127.5s31 -65 53 -88s47 -40 75 -51s56.333 -16.5 85 -16.5
c21.333 0 42.5 3 63.5 9s40.5 14.667 58.5 26s34 25.333 48 42s25 35.667 33 57h3z" />
    <glyph glyph-name="d" unicode="d" horiz-adv-x="657" 
d="M650 48c-18 -18.667 -37.002 -32.3311 -57.002 -40.998s-39 -13 -57 -13c-22.667 0 -41.834 7 -57.501 21s-23.5 33.667 -23.5 59v119c-8 -33.333 -19.667 -62.833 -35 -88.5s-33.166 -47 -53.499 -64s-42.166 -29.833 -65.499 -38.5s-46.666 -13 -69.999 -13
c-25.333 0 -50 5.16699 -74 15.5s-45.167 25.666 -63.5 45.999s-33 46.166 -44 77.499s-16.5 68 -16.5 110c0 37.333 6 74.333 18 111s30 69.667 54 99s54.333 53 91 71s79.667 27 129 27c25.333 0 48.5 -3.16699 69.5 -9.5s41.167 -11.166 60.5 -14.499v264
c0 9.33301 -1.66699 16.666 -5 21.999s-7.83301 9.16602 -13.5 11.499s-12 3.5 -19 3.5s-14.5 -0.333008 -22.5 -1v5l152 17v-739c0 -25.333 4.16699 -45.166 12.5 -59.499s19.833 -21.5 34.5 -21.5c16.667 0 35 9 55 27zM454.998 356.003
c0 26.667 -5.16797 50.6689 -15.501 72.002s-23.833 39.333 -40.5 54s-35.667 26 -57 34s-43 12 -65 12s-43.333 -4 -64 -12s-39 -20.5 -55 -37.5s-29 -38.667 -39 -65s-15 -57.5 -15 -93.5c0 -46.667 5.33301 -87 16 -121s24.5 -62.333 41.5 -85s36.333 -39.5 58 -50.5
s43.834 -16.5 66.501 -16.5c21.333 0 42.166 4.83301 62.499 14.5s38.333 24.167 54 43.5s28.334 43.166 38.001 71.499s14.5 61.166 14.5 98.499v81z" />
    <glyph glyph-name="e" unicode="e" horiz-adv-x="540" 
d="M522 207c-7.33301 -36 -19.3291 -67.665 -35.9961 -94.998s-36.167 -50 -58.5 -68s-46.833 -31.5 -73.5 -40.5s-53.667 -13.5 -81 -13.5c-30 0 -59.333 5.66699 -88 17s-54.167 28.166 -76.5 50.499s-40.333 50.5 -54 84.5s-20.5 73.667 -20.5 119
c0 52.667 7.33301 97.167 22 133.5s33.834 65.666 57.501 87.999s50.167 38.5 79.5 48.5s58.333 15 87 15c23.333 0 45.666 -2.83301 66.999 -8.5s40.166 -13.5 56.499 -23.5s29.333 -22 39 -36s14.5 -29 14.5 -45c0 -11.333 -2.83301 -19.833 -8.5 -25.5
s-12.834 -9.66699 -21.501 -12s-17.5 -3.66602 -26.5 -3.99902s-17.167 -0.833008 -24.5 -1.5l-287 1c-2.66699 -13.333 -4 -28.333 -4 -45c0 -48.667 6.33301 -90.834 19 -126.501s29.5 -65 50.5 -88s45 -40 72 -51s54.5 -16.5 82.5 -16.5
c21.333 0 42.666 3.16699 63.999 9.5s41.166 15.5 59.499 27.5s35 27 50 45s27.167 38.333 36.5 61h3zM384.004 432.002c0 16 -3.16797 30.332 -9.50098 42.999s-15 23.5 -26 32.5s-23.5 15.833 -37.5 20.5s-29 7 -45 7s-32.5 -2.5 -49.5 -7.5s-33.167 -13 -48.5 -24
s-29.666 -24.667 -42.999 -41s-24.333 -36.166 -33 -59.499h257c14.667 0 24.167 2.16699 28.5 6.5s6.5 11.833 6.5 22.5z" />
    <glyph glyph-name="f" unicode="f" horiz-adv-x="308" 
d="M325 819c20 0 35 -4.33008 45 -12.9971s15.5 -18.334 16.5 -29.001s-2.5 -20.334 -10.5 -29.001s-20 -13 -36 -13c-8.66699 0 -18.667 1.66699 -30 5s-23.666 9.33301 -36.999 18c-22.667 14 -41.334 21 -56.001 21c-16.667 0 -28.334 -8.16699 -35.001 -24.5
s-10 -39.5 -10 -69.5v-142h133v-9h-133v-526h61v-8h-213v8h60v526h-57v9h57v43c0 32 5.83301 62 17.5 90s28.334 52.667 50.001 74s47.5 38.166 77.5 50.499s63.333 18.5 100 18.5z" />
    <glyph glyph-name="g" unicode="g" horiz-adv-x="630" 
d="M481 96c30 0 55.1729 -6.16504 75.5059 -18.498s35.166 -27.666 44.499 -45.999s13.166 -38.166 11.499 -59.499s-9.16699 -41.166 -22.5 -59.499s-32.833 -33.666 -58.5 -45.999s-57.834 -18.5 -96.501 -18.5c-11.333 0 -23.5 0.5 -36.5 1.5s-26.5 3.16699 -40.5 6.5
l2 5c23.333 -4.66699 46.333 -7 69 -7c29.333 0 53.5 4 72.5 12s33.667 18 44 30s16.5 25 18.5 39s0.333008 27 -5 39s-14.166 22 -26.499 30s-27.5 12 -45.5 12c-25.333 0 -47.5 -3.83301 -66.5 -11.5s-36.833 -17.5 -53.5 -29.5s-32.5 -24.667 -47.5 -38s-31 -26 -48 -38
s-35.667 -21.833 -56 -29.5s-43.833 -11.5 -70.5 -11.5c-29.333 0 -54 6 -74 18s-34.167 27.167 -42.5 45.5s-10.833 38.5 -7.5 60.5s13.666 43 30.999 63s42 37.5 74 52.5s71.667 24.833 119 29.5c-28 4.66699 -54.167 12.334 -78.5 23.001s-45.5 24.667 -63.5 42
s-32.167 38 -42.5 62s-15.5 51 -15.5 81c0 36 7.16699 67.333 21.5 94s33.5 48.834 57.5 66.501s51.833 31 83.5 40s64.834 13.5 99.501 13.5c17.333 0 32.666 2.16699 45.999 6.5s25.833 10.833 37.5 19.5s23.167 19.5 34.5 32.5s23.333 28.167 36 45.5
c7.33301 10 15.166 17.167 23.499 21.5s16.166 6.5 23.499 6.5c10 0 18.833 -3.33301 26.5 -10s12.5 -14.667 14.5 -24s0.333008 -19.333 -5 -30s-16 -20 -32 -28c-22.667 -12.667 -46.334 -22.834 -71.001 -30.501s-49.667 -12.5 -75 -14.5
c28 -4.66699 54.167 -12.334 78.5 -23.001s45.333 -24.834 63 -42.501s31.667 -38.334 42 -62.001s15.5 -50.834 15.5 -81.501c0 -35.333 -7 -66.333 -21 -93s-33 -48.834 -57 -66.501s-51.667 -31 -83 -40s-64.333 -13.5 -99 -13.5
c-47.333 0 -87.166 -4.33301 -119.499 -13s-57.833 -19.667 -76.5 -33s-31.167 -27.5 -37.5 -42.5s-7.5 -29.167 -3.5 -42.5s12.667 -24.333 26 -33s30.333 -13 51 -13c18.667 0 36.167 3.66699 52.5 11s32.166 16.666 47.499 27.999l47 36.5c16 13 33.333 25.167 52 36.5
s39.167 20.666 61.5 27.999s47.5 11 75.5 11zM256.006 537.002c-40.667 -6.66699 -71.3311 -21.834 -91.998 -45.501s-32.834 -51.334 -36.501 -83.001s-0.333984 -64.667 9.99902 -99s26.333 -65.166 48 -92.499s47.5 -49 77.5 -65s62.667 -21 98 -15
c38.667 6 67.667 20.833 87 44.5s31 51.334 35 83.001s0.833008 64.667 -9.5 99s-25.666 65.333 -45.999 93s-45.333 49.5 -75 65.5s-61.834 21 -96.501 15z" />
    <glyph glyph-name="h" unicode="h" horiz-adv-x="648" 
d="M641 48c-18 -18.667 -36.998 -32.3311 -56.998 -40.998s-39 -13 -57 -13c-22.667 0 -41.834 7 -57.501 21s-23.5 33.667 -23.5 59v325c0 42.667 -9.66699 73.167 -29 91.5s-43 27.5 -71 27.5s-58 -7.83301 -90 -23.5s-60.667 -36.5 -86 -62.5v-424h60v-8h-213v8h60v778
c0 9.33301 -1.66699 16.666 -5 21.999s-7.83301 9.16602 -13.5 11.499s-12 3.5 -19 3.5s-14.5 -0.333008 -22.5 -1v5l153 17v-399c14.667 15.333 31 29.166 49 41.499s36.667 22.833 56 31.5s39.166 15.334 59.499 20.001s39.833 7 58.5 7c20 0 38.833 -2.83301 56.5 -8.5
s33 -14.334 46 -26.001s23.333 -26.667 31 -45s11.5 -40.5 11.5 -66.5v-294c0 -25.333 4.16699 -45.166 12.5 -59.499s19.833 -21.5 34.5 -21.5c16.667 0 35 9 55 27z" />
    <glyph glyph-name="i" unicode="i" horiz-adv-x="250" 
d="M123 624c-17.333 0 -31.999 5.83203 -43.999 17.499s-18 26.167 -18 43.5s6 32 18 44s26.667 18 44 18s32 -6 44 -18c9.33301 -8.66699 15.166 -19.167 17.499 -31.5s0.833008 -24.166 -4.5 -35.499c-4.66699 -11.333 -12.167 -20.5 -22.5 -27.5
s-21.833 -10.5 -34.5 -10.5zM233.001 7.99902v-7.99805h-213v8h60v480c0 9.33301 -1.66699 16.666 -5 21.999s-7.83301 9.16602 -13.5 11.499s-12 3.5 -19 3.5s-14.5 -0.333008 -22.5 -1v5l153 16v-537h60z" />
    <glyph glyph-name="j" unicode="j" horiz-adv-x="227" 
d="M121 624c-18 0 -32.666 6 -43.999 18c-12 11.333 -18 25.666 -18 42.999s5.83301 32 17.5 44s26.167 18 43.5 18c18.667 0 33.334 -6 44.001 -18c9.33301 -8.66699 15.166 -19.167 17.499 -31.5s1.16602 -24.166 -3.50098 -35.499c-5.33301 -11.333 -13 -20.5 -23 -27.5
s-21.333 -10.5 -34 -10.5zM18.001 529l153 16.002v-535c0 -23.333 -2.16699 -46.5 -6.5 -69.5s-11.666 -44.167 -21.999 -63.5s-24.333 -36 -42 -50s-39.834 -24 -66.501 -30l-2 5c7.33301 10 13.833 20.167 19.5 30.5s10.5 23 14.5 38s7 33.667 9 56s3 50.166 3 83.499v477
c0 10 -1.66699 17.667 -5 23s-7.83301 9.16602 -13.5 11.499s-12 3.5 -19 3.5s-14.5 -0.333008 -22.5 -1v5z" />
    <glyph glyph-name="k" unicode="k" horiz-adv-x="567" 
d="M170 8l60 0.00195312v-8h-213v8h60v778c0 9.33301 -1.66699 16.666 -5 21.999s-7.83301 9.16602 -13.5 11.499s-12 3.5 -19 3.5s-14.5 -0.333008 -22.5 -1v5l153 17v-836zM404 114.002c9.33301 -12.667 19.666 -25.833 30.999 -39.5s23.833 -26 37.5 -37s28 -20 43 -27
s30.5 -10.5 46.5 -10.5h-150c-8.66699 0 -17.334 2.33301 -26.001 7s-16.667 10.667 -24 18s-14.5 15.166 -21.5 23.499s-13.5 16.5 -19.5 24.5l-138 175l164 173c21.333 22.667 36.833 41.5 46.5 56.5s14.167 26.833 13.5 35.5s-6.16699 14.834 -16.5 18.501
s-24.833 5.5 -43.5 5.5v3h214v-3c-14.667 0 -28.5 -0.833008 -41.5 -2.5s-26.667 -6 -41 -13s-30.166 -17.5 -47.499 -31.5s-37.666 -33 -60.999 -57l-121 -127z" />
    <glyph glyph-name="l" unicode="l" horiz-adv-x="256" 
d="M249 48c-18 -18.667 -36.999 -32.332 -56.999 -40.999s-39 -13 -57 -13c-22.667 0 -41.834 7 -57.501 21s-23.5 33.667 -23.5 59v712c0 9.33301 -1.66699 16.666 -5 21.999s-7.83301 9.16602 -13.5 11.499s-12 3.5 -19 3.5s-14.5 -0.333008 -22.5 -1v5l153 17v-739
c0 -25.333 4.16699 -45.166 12.5 -59.499s19.5 -21.5 33.5 -21.5c16.667 0 35 9 55 27z" />
    <glyph glyph-name="m" unicode="m" horiz-adv-x="1008" 
d="M1002 48c-18.667 -18.667 -37.834 -32.3301 -57.501 -40.9971s-38.5 -13 -56.5 -13c-23.333 0 -42.666 7 -57.999 21s-23 33.667 -23 59v325c0 42.667 -9.66699 73.167 -29 91.5s-43 27.5 -71 27.5c-26.667 0 -55 -7 -85 -21s-57.667 -32.667 -83 -56
c3.33301 -15.333 5 -29.333 5 -42v-391h60v-8h-213v8h61v391c0 42.667 -9.66699 73.167 -29 91.5s-43.333 27.5 -72 27.5c-28 0 -58.167 -7.83301 -90.5 -23.5s-61.166 -36.834 -86.499 -63.501v-423h60v-8h-213v8h60v480c0 9.33301 -1.66699 16.666 -5 21.999
s-7.83301 9.16602 -13.5 11.499s-12 3.5 -19 3.5s-14.5 -0.333008 -22.5 -1v5l153 16v-102c14.667 16 31 30.167 49 42.5s36.833 23 56.5 32s39.667 15.833 60 20.5s39.833 7 58.5 7c32.667 0 61.667 -7.33301 87 -22s42.666 -38.667 51.999 -72
c30 29.333 64.5 52.333 103.5 69s76.833 25 113.5 25c20 0 38.833 -2.83301 56.5 -8.5s33 -14.334 46 -26.001s23.333 -26.667 31 -45s11.5 -40.5 11.5 -66.5v-294c0 -25.333 4.16699 -45.166 12.5 -59.499s19.5 -21.5 33.5 -21.5c16.667 0 35 9 55 27z" />
    <glyph glyph-name="n" unicode="n" horiz-adv-x="653" 
d="M647 48c-18.667 -18.667 -37.835 -32.3301 -57.502 -40.9971s-38.5 -13 -56.5 -13c-23.333 0 -42.666 7 -57.999 21s-23 33.667 -23 59v325c0 42.667 -9.66699 73.167 -29 91.5s-43.333 27.5 -72 27.5c-28 0 -58.167 -7.83301 -90.5 -23.5
s-61.166 -36.834 -86.499 -63.501v-423h60v-8h-213v8h60v480c0 9.33301 -1.66699 16.666 -5 21.999s-7.83301 9.16602 -13.5 11.499s-12 3.5 -19 3.5s-14.5 -0.333008 -22.5 -1v5l153 16v-102c14.667 16 31 30.167 49 42.5s36.833 23 56.5 32s39.667 15.833 60 20.5
s39.833 7 58.5 7c20 0 38.833 -2.83301 56.5 -8.5s33.167 -14.334 46.5 -26.001s23.833 -26.667 31.5 -45s11.5 -40.5 11.5 -66.5v-294c0 -25.333 4.16699 -45.166 12.5 -59.499s19.5 -21.5 33.5 -21.5c16.667 0 35 9 55 27z" />
    <glyph glyph-name="o" unicode="o" horiz-adv-x="581" 
d="M290 547c40.667 0 77 -7.66699 109 -23s59 -35.666 81 -60.999s38.833 -54.833 50.5 -88.5s17.5 -69.167 17.5 -106.5c0 -36.667 -5.83301 -71.834 -17.5 -105.501s-28.5 -63.334 -50.5 -89.001s-49 -46 -81 -61s-68.333 -22.5 -109 -22.5s-77 7.5 -109 22.5
s-59 35.333 -81 61s-38.833 55.334 -50.5 89.001s-17.5 68.834 -17.5 105.501c0 37.333 5.83301 72.833 17.5 106.5s28.5 63.167 50.5 88.5s49 45.666 81 60.999s68.333 23 109 23zM355 9c27.333 1.33301 49.499 10.001 66.499 26.001s29.667 36.5 38 61.5
s12.5 53.167 12.5 84.5s-3.83301 63.166 -11.5 95.499s-18.5 63.833 -32.5 94.5s-31 57.834 -51 81.501s-42.667 42.334 -68 56.001s-52.666 19.834 -81.999 18.501c-26.667 -1.33301 -48.5 -9.83301 -65.5 -25.5s-29.833 -36 -38.5 -61s-13.167 -53.333 -13.5 -85
s3 -63.667 10 -96s17.333 -63.833 31 -94.5s30.5 -57.834 50.5 -81.501s43 -42.334 69 -56.001s54.333 -19.834 85 -18.501z" />
    <glyph glyph-name="p" unicode="p" horiz-adv-x="643" 
d="M171 377c7.33301 29.333 17.833 54.6689 31.5 76.002s29.5 39 47.5 53s37.667 24.5 59 31.5s43 10.5 65 10.5c29.333 0 58 -5.66699 86 -17s53 -28 75 -50s39.833 -49.333 53.5 -82s20.5 -70 20.5 -112c0 -54.667 -7.83301 -101.167 -23.5 -139.5s-36 -69.5 -61 -93.5
s-53 -41.5 -84 -52.5s-62.167 -16.5 -93.5 -16.5c-36 0 -70 6.33301 -102 19s-56.667 30.667 -74 54v-343h60v-7h-213v7h60v773c0 9.33301 -1.66699 16.666 -5 21.999s-7.83301 9.16602 -13.5 11.499s-12 3.5 -19 3.5s-14.5 -0.333008 -22.5 -1v5l153 16v-168zM171 209.003
c0 -34.667 4.5 -65.334 13.5 -92.001s21 -49 36 -67s32.167 -31.5 51.5 -40.5s39 -13.5 59 -13.5c22 0 43.5 5.33301 64.5 16s40 26.667 57 48s30.667 48.333 41 81s15.5 71 15.5 115c0 47.333 -4.83301 87.833 -14.5 121.5s-22.167 61.5 -37.5 83.5s-33 38.167 -53 48.5
s-40.333 15.5 -61 15.5c-21.333 0 -42.333 -5.16699 -63 -15.5s-39 -25.166 -55 -44.499s-29 -43 -39 -71s-15 -59.667 -15 -95v-90z" />
    <glyph glyph-name="q" unicode="q" horiz-adv-x="627" 
d="M631 -285v-6.99512h-213v7h60v480c-8 -34 -20.167 -63.833 -36.5 -89.5s-35.166 -47.167 -56.499 -64.5s-44.333 -30.333 -69 -39s-49.667 -13 -75 -13c-26.667 0 -52.667 5.16699 -78 15.5s-47.833 25.666 -67.5 45.999s-35.334 46.166 -47.001 77.499
s-17.5 68 -17.5 110c0.666992 42 9 81.833 25 119.5s39 71.167 69 100.5s64.167 51.666 102.5 66.999s78.5 22.333 120.5 21c16 0 31.333 -1.33301 46 -4s29 -5.83398 43 -9.50098s27.333 -6.83398 40 -9.50098s25 -4 37 -4c10.667 0 20.5 1.33301 29.5 4
s17.833 7.66699 26.5 15v-823h61zM478 356.005c0 28 -5.00098 52.667 -15.001 74s-23.167 39.5 -39.5 54.5s-35 26.333 -56 34s-42.5 11.5 -64.5 11.5c-23.333 0 -46.166 -4.33301 -68.499 -13s-42.333 -22.167 -60 -40.5s-32 -41.5 -43 -69.5s-16.5 -61.333 -16.5 -100
c0 -45.333 5.33301 -84.833 16 -118.5s24.5 -61.5 41.5 -83.5s36.5 -38.333 58.5 -49s44.333 -16 67 -16s44.667 5.16699 66 15.5s40.5 25.333 57.5 45s30.667 44.167 41 73.5s15.5 63 15.5 101v81z" />
    <glyph glyph-name="r" unicode="r" horiz-adv-x="407" 
d="M340 548c21.333 0 36.665 -5.49707 45.998 -16.4971s13.5 -22.5 12.5 -34.5s-6.66699 -22.333 -17 -31s-24.166 -10.667 -41.499 -6c-22.667 6 -43 9 -61 9c-22.667 0 -41 -4.33301 -55 -13s-24.667 -20 -32 -34s-12.333 -29.667 -15 -47s-4 -34.333 -4 -51v-316h60v-8
h-213v8h60v480c0 9.33301 -1.66699 16.666 -5 21.999s-7.83301 9.16602 -13.5 11.499s-12 3.5 -19 3.5s-14.5 -0.333008 -22.5 -1v5l153 16v-153c9.33301 47.333 28.333 85.166 57 113.499s65.334 42.5 110.001 42.5z" />
    <glyph glyph-name="s" unicode="s" horiz-adv-x="450" 
d="M82 445c0 -22 8.3291 -40.501 24.9961 -55.501s37.334 -28.333 62.001 -40s51.5 -22.667 80.5 -33s55.833 -22 80.5 -35s45.334 -28.333 62.001 -46s25 -39.5 25 -65.5c0 -32 -5.16699 -59.5 -15.5 -82.5s-24.166 -41.833 -41.499 -56.5s-37.5 -25.5 -60.5 -32.5
s-47.167 -10.5 -72.5 -10.5c-29.333 0 -58.833 4.16699 -88.5 12.5s-57.167 20.166 -82.5 35.499c-12 7.33301 -20 16 -24 26s-5 19.5 -3 28.5s6.66699 16.833 14 23.5s16.333 10 27 10c11.333 0 23.666 -4.33301 36.999 -13c32.667 -22 65.334 -38.333 98.001 -49
s63 -16 91 -16c30 0 54.5 6 73.5 18s28.833 28.667 29.5 50c0.666992 17.333 -7.5 32.166 -24.5 44.499s-38.5 23.833 -64.5 34.5s-54 21.167 -84 31.5s-58 22.5 -84 36.5s-47.667 30.333 -65 49s-26 41.334 -26 68.001c0 32.667 5.33301 59.834 16 81.501s24.5 39 41.5 52
s36.333 22.167 58 27.5s43.5 8 65.5 8c28 0 54.667 -3.16699 80 -9.5s45.666 -14.166 60.999 -23.499c10.667 -6 17.834 -13.667 21.501 -23s4.5 -18.333 2.5 -27s-6.5 -16.167 -13.5 -22.5s-15.833 -9.5 -26.5 -9.5c-9.33301 0 -19.666 3 -30.999 9l-44.5 27
c-13.667 8.66699 -27.334 16.167 -41.001 22.5s-28 11.5 -43 15.5s-31.5 6 -49.5 6c-21.333 0 -37.666 -5.66699 -48.999 -17s-17 -28 -17 -50z" />
    <glyph glyph-name="t" unicode="t" horiz-adv-x="277" 
d="M268 48c-18.667 -18.667 -38 -32.334 -58 -41.001s-39 -13 -57 -13c-23.333 0 -42.833 7 -58.5 21s-23.5 33.667 -23.5 59v460h-48v8h48v75l93 37v-111h66v-9h-66v-429c0 -25.333 4.16699 -45.166 12.5 -59.499s19.833 -21.5 34.5 -21.5c16.667 0 35 9 55 27z" />
    <glyph glyph-name="u" unicode="u" horiz-adv-x="671" 
d="M664 48c-18 -18.667 -37 -32.3291 -57 -40.9961s-39 -13 -57 -13c-22.667 0 -41.834 7 -57.501 21s-23.5 33.667 -23.5 59v109c-4.66699 -32 -13.834 -59.833 -27.501 -83.5s-30 -43.5 -49 -59.5s-39.667 -27.833 -62 -35.5s-45.166 -11.5 -68.499 -11.5
c-24 0 -47.167 4.16699 -69.5 12.5s-42.166 20.666 -59.499 36.999s-31.166 36.666 -41.499 60.999s-15.5 52.5 -15.5 84.5h-1v300c0 9.33301 -1.66699 16.666 -5 21.999s-7.83301 9.16602 -13.5 11.499s-12 3.5 -19 3.5s-14.5 -0.333008 -22.5 -1v5l153 16v-357
c0 -24.667 4 -46.834 12 -66.501s18.667 -36.167 32 -49.5s28.666 -23.666 45.999 -30.999s35 -11 53 -11c19.333 0 38.333 4.33301 57 13s35.5 22.334 50.5 41.001s27.167 42.167 36.5 70.5s14 62.5 14 102.5v231c0 9.33301 -1.66699 16.666 -5 21.999
s-7.83301 9.16602 -13.5 11.499s-12 3.5 -19 3.5s-14.5 -0.333008 -22.5 -1v5l153 16v-440c0 -25.333 4.16699 -45.166 12.5 -59.499s19.5 -21.5 33.5 -21.5c16.667 0 35 9 55 27z" />
    <glyph glyph-name="v" unicode="v" horiz-adv-x="504" 
d="M482 492l-200 -491.996h-18l-201 490c-7.33301 19.333 -15.333 30.666 -24 33.999s-20.667 4.33301 -36 3v5l140 13l173 -424l79 193c9.33301 23.333 14.833 45 16.5 65s1.66699 39 0 57s-4 35.167 -7 51.5s-4.5 32.166 -4.5 47.499c0 17.333 4.83301 30.166 14.5 38.499
s20.167 12.5 31.5 12.5c8 0 15.5 -2 22.5 -6s12.5 -9.83301 16.5 -17.5s6 -17.334 6 -29.001s-3 -25.5 -9 -41.5z" />
    <glyph glyph-name="w" unicode="w" horiz-adv-x="773" 
d="M751 492l-199.001 -491.995h-18l-132 322l-120 -322h-18l-201 490c-7.33301 19.333 -15.333 30.666 -24 33.999s-20.667 4.33301 -36 3v5l140 13l171 -420l80 216l-61 149c-8 19.333 -16.167 30.666 -24.5 33.999s-20.166 4.33301 -35.499 3v5l139 13l174 -424l78 193
c9.33301 23.333 14.833 45 16.5 65s1.83398 39 0.500977 57s-3.5 35.167 -6.5 51.5s-4.5 32.166 -4.5 47.499c0 17.333 4.66699 30.166 14 38.499s19.666 12.5 30.999 12.5c8 0 15.5 -2 22.5 -6s12.667 -9.83301 17 -17.5s6.5 -17.334 6.5 -29.001s-3.33301 -25.5 -10 -41.5
z" />
    <glyph glyph-name="x" unicode="x" horiz-adv-x="560" 
d="M395 412l-78.9971 -108.001l170 -263c7.33301 -10.667 15.166 -18.5 23.499 -23.5s20.166 -6.83301 35.499 -5.5v-5l-133 -14l-155 240l-93 -127c-16 -22 -26.667 -39.833 -32 -53.5s-6.33301 -24.167 -3 -31.5s10.833 -12.166 22.5 -14.499s26.5 -3.5 44.5 -3.5v-3h-189
v3c15.333 0 28.666 1.83301 39.999 5.5s22 9.16699 32 16.5s19.833 16.666 29.5 27.999s20.167 25 31.5 41l24 33v1l85 116l-164 254c-6.66699 10 -14.167 17.667 -22.5 23s-20.5 7.33301 -36.5 6v5l134 13l149 -230l86 120c16 22 26.833 39.833 32.5 53.5s6.66699 24 3 31
s-11.167 11.667 -22.5 14s-26 3.5 -44 3.5v3h188v-3c-14.667 0 -27.667 -1.83301 -39 -5.5s-22 -9.16699 -32 -16.5s-19.833 -16.666 -29.5 -27.999s-20.167 -25 -31.5 -41l-25 -33v-1z" />
    <glyph glyph-name="y" unicode="y" horiz-adv-x="502" 
d="M398 529c0 17.333 4.67188 30.166 14.0049 38.499s19.666 12.5 30.999 12.5c8 0 15.5 -2 22.5 -6s12.5 -9.83301 16.5 -17.5s6 -17.334 6 -29.001s-3 -25.5 -9 -41.5l-188 -464c-10 -25.333 -22.333 -52.833 -37 -82.5s-33.334 -57.167 -56.001 -82.5
s-50 -46.333 -82 -63s-70.333 -25 -115 -25c-26 0 -44.5 5.66699 -55.5 17s-15.833 23.5 -14.5 36.5s8.16602 24.167 20.499 33.5s28.833 12 49.5 8c30 -6 56.667 -9 80 -9c30 0 55.167 4.16699 75.5 12.5s37.5 19.333 51.5 33s25.5 28.834 34.5 45.501
s16.833 33.334 23.5 50.001l-202 494c-4 10 -8 17.667 -12 23s-8.16699 9.16602 -12.5 11.499s-9.5 3.5 -15.5 3.5s-13 -0.333008 -21 -1v5l140 13l173 -423l41 100l37 91c8.66699 22 13.667 42.833 15 62.5s1.16602 38.334 -0.500977 56.001s-3.83398 34.667 -6.50098 51
s-4 31.833 -4 46.5z" />
    <glyph glyph-name="z" unicode="z" horiz-adv-x="467" 
d="M444 532l-318.001 -519.999h204c17.333 0 31.666 0.666992 42.999 2s20.833 5.33301 28.5 12s13.667 17.167 18 31.5s8.5 34.166 12.5 59.499h6l-11 -117h-408v11l321 519h-197c-17.333 0 -31.666 -0.666992 -42.999 -2s-20.666 -5.33301 -27.999 -12
s-13.333 -17 -18 -31s-9 -33.667 -13 -59h-6l11 117h398v-11z" />
    <glyph glyph-name="braceleft" unicode="{" horiz-adv-x="224" 
d="M197 760c-14.667 0 -24 -11 -28 -33s-6 -51.333 -6 -88v-226c0 -2.66699 -0.5 -8 -1.5 -16s-3 -16.333 -6 -25s-7.5 -17 -13.5 -25s-14 -13.667 -24 -17c10 -2.66699 18 -7.5 24 -14.5s10.5 -14.5 13.5 -22.5s5 -16.167 6 -24.5s1.5 -15.166 1.5 -20.499v-226
c0 -36.667 1.5 -66 4.5 -88s12.833 -33 29.5 -33v-7c-17.333 0 -32.833 3.5 -46.5 10.5s-25.334 16.333 -35.001 28s-17.167 25.167 -22.5 40.5s-8 31.666 -8 48.999v238v20c0 7.33301 -1 14.333 -3 21s-5.16699 12.334 -9.5 17.001s-10.833 7.33398 -19.5 8.00098v9
c8 0.666992 14.167 3.33398 18.5 8.00098s7.5 10.167 9.5 16.5s3.16699 13.166 3.5 20.499s0.5 14 0.5 20v239c0 17.333 2.66699 33.666 8 48.999s12.833 28.666 22.5 39.999s21.334 20.5 35.001 27.5s29.167 10.5 46.5 10.5v-6z" />
    <glyph glyph-name="bar" unicode="|" horiz-adv-x="134" 
d="M60 -105v910h13v-910h-13z" />
    <glyph glyph-name="braceright" unicode="}" horiz-adv-x="224" 
d="M139 400c0 -6 0.166992 -12.6699 0.5 -20.0029s1.5 -14.166 3.5 -20.499s5.16699 -11.833 9.5 -16.5s10.5 -7.33398 18.5 -8.00098v-10c-8.66699 -0.666992 -15.167 -3.16699 -19.5 -7.5s-7.5 -9.83301 -9.5 -16.5s-3 -13.667 -3 -21v-20v-238
c0 -17.333 -2.66699 -33.666 -8 -48.999s-12.833 -28.833 -22.5 -40.5s-21.334 -21 -35.001 -28s-29.167 -10.5 -46.5 -10.5v7c16 0 25.667 11 29 33s5 51 5 87l-1 226c0 6 0.5 13 1.5 21s3 16.167 6 24.5s7.5 16 13.5 23s14 11.833 24 14.5c-10 3.33301 -18 9 -24 17
s-10.5 16.333 -13.5 25s-5 17 -6 25s-1.5 13.333 -1.5 16l1 226c0 36.667 -2.16699 66 -6.5 88s-13.5 33 -27.5 33v6c17.333 0 32.833 -3.5 46.5 -10.5s25.334 -16.167 35.001 -27.5s17.167 -24.666 22.5 -39.999s8 -31.666 8 -48.999v-239z" />
    <glyph glyph-name="uni00A0" unicode="&#xa0;" horiz-adv-x="366" 
 />
    <glyph glyph-name="exclamdown" unicode="&#xa1;" horiz-adv-x="201" 
d="M100 475c-13.333 0 -24.666 4.66699 -33.999 14s-14 20.666 -14 33.999s4.66699 24.666 14 33.999s20.666 14 33.999 14s24.666 -4.66699 33.999 -14s14 -20.666 14 -33.999s-4.66699 -24.666 -14 -33.999s-20.666 -14 -33.999 -14zM156 -79
c2 -25.333 -2.83496 -44.3311 -14.502 -56.998s-25.167 -19 -40.5 -19c-7.33301 0 -14.666 1.66699 -21.999 5s-13.666 8.16602 -18.999 14.499s-9.5 14.166 -12.5 23.499s-3.83301 20.333 -2.5 33l51 527h10z" />
    <glyph glyph-name="cent" unicode="&#xa2;" horiz-adv-x="578" 
d="M534 201c-6.66699 -34.667 -17.833 -64.834 -33.5 -90.501s-34.167 -47.167 -55.5 -64.5s-44.833 -30.333 -70.5 -39s-51.834 -13 -78.501 -13v-90h-9v90c-30 0.666992 -59.333 7 -88 19s-54 29.333 -76 52s-39.833 50.834 -53.5 84.501s-20.5 72.834 -20.5 117.501
c0 47.333 6.66699 88 20 122s31 62.333 53 85s47.333 40 76 52s58.334 19.333 89.001 22v76h9v-75c55.333 3.33301 108 -5.66699 158 -27c11.333 -4.66699 19.166 -11 23.499 -19s5.83301 -15.667 4.5 -23s-5.33301 -13.833 -12 -19.5s-16 -8.5 -28 -8.5
c-16 0 -34 5.66699 -54 17c-28 16.667 -58.667 29.667 -92 39v-438c24 -3.33301 48.167 -2.83301 72.5 1.5s47 12.166 68 23.499s39.833 26 56.5 44s29.334 39 38.001 63zM287.001 510c-16.667 4 -33.001 6 -49.001 6c-42 0 -76.167 -13.667 -102.5 -41
s-39.833 -69 -40.5 -125c0 -43.333 5.33301 -81.333 16 -114s24.834 -60.5 42.501 -83.5s38 -41 61 -54s47.167 -21.833 72.5 -26.5v438z" />
    <glyph glyph-name="sterling" unicode="&#xa3;" horiz-adv-x="540" 
d="M496 168l-16.001 -166.999v-1l-436 -1v9c14.667 7.33301 26.834 16.666 36.501 27.999s17.5 25.666 23.5 42.999s10.333 38.166 13 62.499s4 52.833 4 85.5v119h-74v9h74v155c0 36 7.66699 66 23 90s36 43.333 62 58s56.5 25.167 91.5 31.5s72.167 9.5 111.5 9.5
c15.333 0 26.666 -3.5 33.999 -10.5s11.333 -14.5 12 -22.5s-2.16602 -15.5 -8.49902 -22.5s-15.5 -10.5 -27.5 -10.5c-14 0 -29.667 5.33301 -47 16s-32.833 18.334 -46.5 23.001s-26.167 7 -37.5 7c-14.667 0 -26.834 -4.16699 -36.501 -12.5s-17.167 -20 -22.5 -35
s-9.16602 -32.833 -11.499 -53.5s-3.5 -43.334 -3.5 -68.001v-155h171v-9h-171v-119c0 -36.667 -5 -68 -15 -94s-23 -48 -39 -66h198c26.667 0 48 0.833008 64 2.5s28.5 5.83398 37.5 12.501s15.5 16.834 19.5 30.501s7.66699 32.5 11 56.5z" />
    <glyph glyph-name="yen" unicode="&#xa5;" horiz-adv-x="823" 
d="M789 700l-0.000976562 -6.99805c-20 0 -37.667 -1.66699 -53 -5s-30.666 -10.666 -45.999 -21.999s-31.666 -27.833 -48.999 -49.5s-38 -51.167 -62 -88.5l-128 -200v-6h174v-10h-174v-127h174v-10h-174v-167h59v-8h-213v8h61v167h-161v10h161v127h-161v10h155l-229 371
h-90v7h279v-7h-81l213 -348h1l137 214c16 25.333 27.5 46.666 34.5 63.999s9.16699 31.166 6.5 41.499s-10.334 17.666 -23.001 21.999s-30.667 6.5 -54 6.5v7h243z" />
    <glyph glyph-name="section" unicode="&#xa7;" horiz-adv-x="494" 
d="M366 227c11.333 -9.33301 20.166 -20.3359 26.499 -33.0029s9.5 -26 9.5 -40c0 -29.333 -4.66699 -54.333 -14 -75s-22 -37.667 -38 -51s-34.333 -23.166 -55 -29.499s-42.667 -9.5 -66 -9.5c-26 0 -52.5 3.83301 -79.5 11.5s-52.167 18.167 -75.5 31.5
c-10.667 6 -17.834 13.667 -21.501 23s-4.66699 18.166 -3 26.499s5.83398 15.5 12.501 21.5s15 9 25 9c10.667 0 22 -4 34 -12c30 -20 59.833 -34.667 89.5 -44s56.834 -14 81.501 -14c27.333 0 49.666 5.33301 66.999 16s26.333 25.667 27 45
c0.666992 12.667 -4.16602 23.834 -14.499 33.501s-24 18.667 -41 27s-36 16.166 -57 23.499s-42.167 15.333 -63.5 24c-14.667 5.33301 -30.167 11.833 -46.5 19.5s-31.5 16.667 -45.5 27s-25.5 22.5 -34.5 36.5s-13.5 30.333 -13.5 49c0 38 7.5 67.833 22.5 89.5
s33.833 37.5 56.5 47.5c-12 10.667 -21.667 22.334 -29 35.001s-11 27.334 -11 44.001c0 29.333 4.66699 53.833 14 73.5s21.833 35.334 37.5 47.001s33.334 20 53.001 25s39.5 7.5 59.5 7.5c25.333 0 49.666 -2.83301 72.999 -8.5s42 -12.834 56 -21.501
c9.33301 -5.33301 15.666 -12.166 18.999 -20.499s4 -16.5 2 -24.5s-6.16699 -14.833 -12.5 -20.5s-14.166 -8.5 -23.499 -8.5c-4 0 -8.33301 0.5 -13 1.5s-9.66699 3.16699 -15 6.5l-40.5 24.5c-12.333 7.66699 -24.666 14.5 -36.999 20.5s-25.333 10.667 -39 14
s-28.834 5 -45.501 5c-39.333 0 -59 -20.333 -59 -61c0 -20 7.5 -36.667 22.5 -50s33.833 -25.333 56.5 -36s47 -20.667 73 -30s50.333 -20 73 -32s41.5 -26 56.5 -42s22.5 -36 22.5 -60c0 -36 -7 -65.5 -21 -88.5s-32.333 -40.833 -55 -53.5zM319 257.997
c30.667 -2 55.832 2.33203 75.499 12.999s29.834 26.667 30.501 48c0.666992 16 -7.33301 29.833 -24 41.5s-37.334 22.5 -62.001 32.5l-9 3.5l-9 3.5l-78 29c-26.667 10 -50.667 21.667 -72 35c-2 0 -4 0.166992 -6 0.5s-4.33301 0.5 -7 0.5c-39.333 0 -59 -20.667 -59 -62
c0 -19.333 7.16699 -35.666 21.5 -48.999s32.5 -25.333 54.5 -36s45.833 -20.5 71.5 -29.5s49.834 -19.167 72.501 -30.5z" />
    <glyph glyph-name="dieresis" unicode="&#xa8;" horiz-adv-x="278" 
d="M80 653c12 0 22.3369 -4.33398 31.0039 -13.001s13 -19.334 13 -32.001c0 -12 -4.33301 -22.333 -13 -31s-19 -13 -31 -13c-12.667 0 -23.334 4.33301 -32.001 13c-6.66699 6.66699 -10.834 14.334 -12.501 23.001s-0.5 17.334 3.5 26.001
c3.33301 8 8.66602 14.5 15.999 19.5s15.666 7.5 24.999 7.5zM198.004 652.999c12.667 0 23.3369 -4.33398 32.0039 -13.001s12.667 -19.334 12 -32.001c0 -12.667 -4.33301 -23.167 -13 -31.5s-19 -12.5 -31 -12.5c-12.667 0 -23.334 4.33301 -32.001 13
c-6 6.66699 -9.83301 14.334 -11.5 23.001s-0.833984 17.334 2.49902 26.001c3.33301 8 8.66602 14.5 15.999 19.5s15.666 7.5 24.999 7.5z" />
    <glyph glyph-name="copyright" unicode="&#xa9;" horiz-adv-x="821" 
d="M410 720c50 0 96.834 -9.49609 140.501 -28.4961s81.834 -44.667 114.501 -77s58.5 -70.333 77.5 -114s28.5 -90.5 28.5 -140.5s-9.5 -97 -28.5 -141s-44.833 -82.167 -77.5 -114.5s-70.834 -58 -114.501 -77s-90.167 -28.5 -139.5 -28.5c-47.333 0 -93 9 -137 27
s-83.333 44.333 -118 79c-26 26 -47.333 54.667 -64 86s-28.334 64.166 -35.001 98.499s-8.5 69.166 -5.5 104.499s11.5 70 25.5 104c14 33.333 32.5 63.666 55.5 90.999s49 50.666 78 69.999s60.5 34.333 94.5 45s69 16 105 16zM410.001 16.0039c47.333 0 92 9 134 27
s78.5 42.5 109.5 73.5s55.5 67.5 73.5 109.5s27 86.667 27 134s-9 92 -27 134s-42.5 78.5 -73.5 109.5s-67.5 55.5 -109.5 73.5s-86.667 27 -134 27s-92 -9 -134 -27s-78.5 -42.5 -109.5 -73.5s-55.5 -67.5 -73.5 -109.5s-27 -86.667 -27 -134s9 -92 27 -134
s42.5 -78.5 73.5 -109.5s67.5 -55.5 109.5 -73.5s86.667 -27 134 -27zM237.001 408.004c0 -36.667 5.5 -68.5029 16.5 -95.5029s25.5 -49.5 43.5 -67.5s38.5 -31.5 61.5 -40.5s46.5 -13.5 70.5 -13.5c34.667 0 67.5 9.5 98.5 28.5s53.5 47.5 67.5 85.5l2 -1
c-4.66699 -27.333 -13.334 -51.166 -26.001 -71.499s-27.5 -37.166 -44.5 -50.499s-35.667 -23.333 -56 -30s-41.166 -10 -62.499 -10c-24.667 0 -48.667 4.5 -72 13.5s-44.166 22.333 -62.499 40s-33.166 39.834 -44.499 66.501s-17 58 -17 94
c0 37.333 5.83301 69.833 17.5 97.5s27.167 50.834 46.5 69.501s41.5 32.5 66.5 41.5s50.833 13.5 77.5 13.5c46.667 0 89.667 -12.667 129 -38c13.333 -8.66699 21.166 -17.834 23.499 -27.501s0.833008 -17.167 -4.5 -22.5s-13.333 -7.83301 -24 -7.5
s-22 6.16602 -34 17.499c-19.333 18 -40.333 31.5 -63 40.5s-45.334 13.5 -68.001 13.5c-18.667 0 -36.667 -3 -54 -9s-32.5 -15.167 -45.5 -27.5s-23.333 -27.666 -31 -45.999s-11.5 -39.5 -11.5 -63.5z" />
    <glyph glyph-name="ordfeminine" unicode="&#xaa;" horiz-adv-x="296" 
d="M259 514c-7.33301 -7.33301 -14.8301 -12.667 -22.4971 -16s-15.167 -5 -22.5 -5c-8.66699 0 -16 2.66699 -22 8s-9 13 -9 23v30c-4.66699 -21.333 -14.334 -37.166 -29.001 -47.499s-30 -15.5 -46 -15.5c-17.333 0 -32.666 5.33301 -45.999 16s-20 26 -20 46
c0 17.333 4.16699 30.666 12.5 39.999s17.666 16.833 27.999 22.5l28 15.5c8.33301 4.66699 12.5 10.334 12.5 17.001c0 7.33301 -2 12.833 -6 16.5s-9 5.5 -15 5.5c-5.33301 0 -11 -2 -17 -6l-4 -3c-6.66699 -4 -12.334 -5.33301 -17.001 -4
s-7.83398 4.16602 -9.50098 8.49902s-1.5 9 0.5 14s7 8.83301 15 11.5c13.333 4.66699 26.833 8.66699 40.5 12s26.834 5 39.501 5c19.333 0 35.666 -5.83301 48.999 -17.5s20 -33.167 20 -64.5v-90c0 -20.667 6 -31 18 -31c6.66699 0 13.667 3.33301 21 10z
M183.003 659.999c0 16 -2.83398 27.335 -8.50098 34.002s-13.167 10 -22.5 10c-14 0 -29 -6.33301 -45 -19c-2.66699 -2 -3.66699 -4.33301 -3 -7s2.66699 -4.66699 6 -6c5.33301 -1.33301 9.83301 -4.33301 13.5 -9s4.83398 -10 3.50098 -16
c0 -6.66699 -2.5 -12.5 -7.5 -17.5l-16.5 -16c-6 -5.66699 -11.5 -12.334 -16.5 -20.001s-7.5 -17.167 -7.5 -28.5c0 -18 4.83301 -31.5 14.5 -40.5s20.5 -13.5 32.5 -13.5c14 0 27 5.66699 39 17s18 27.666 18 48.999v83z" />
    <glyph glyph-name="guillemotleft" unicode="&#xab;" horiz-adv-x="299" 
d="M104 322l63 -130h-25l-103 130l103 131h25zM193 322l64 -130h-25l-104 130l104 131h25z" />
    <glyph glyph-name="uni00AD" unicode="&#xad;" horiz-adv-x="0" 
 />
    <glyph glyph-name="registered" unicode="&#xae;" horiz-adv-x="821" 
d="M410 720c50 0 96.834 -9.49609 140.501 -28.4961s81.834 -44.667 114.501 -77s58.5 -70.333 77.5 -114s28.5 -90.5 28.5 -140.5s-9.5 -97 -28.5 -141s-44.833 -82.167 -77.5 -114.5s-70.834 -58 -114.501 -77s-90.167 -28.5 -139.5 -28.5c-47.333 0 -93 9 -137 27
s-83.333 44.333 -118 79c-26 26 -47.333 54.667 -64 86s-28.334 64.166 -35.001 98.499s-8.5 69.166 -5.5 104.499s11.5 70 25.5 104c14 33.333 32.5 63.666 55.5 90.999s49 50.666 78 69.999s60.5 34.333 94.5 45s69 16 105 16zM410.001 16.0039c47.333 0 92 9 134 27
s78.5 42.5 109.5 73.5s55.5 67.5 73.5 109.5s27 86.667 27 134s-9 92 -27 134s-42.5 78.5 -73.5 109.5s-67.5 55.5 -109.5 73.5s-86.667 27 -134 27s-92 -9 -134 -27s-78.5 -42.5 -109.5 -73.5s-55.5 -67.5 -73.5 -109.5s-27 -86.667 -27 -134s9 -92 27 -134
s42.5 -78.5 73.5 -109.5s67.5 -55.5 109.5 -73.5s86.667 -27 134 -27zM505.001 232.004c7.33301 -8 16.499 -17 27.499 -27s22.167 -19.167 33.5 -27.5s22.666 -15.5 33.999 -21.5s21.333 -9 30 -9h-92c-11.333 0 -22.666 5.16699 -33.999 15.5
s-21.666 20.166 -30.999 29.499l-76 80c-4 4 -8.5 8 -13.5 12s-10.167 6 -15.5 6h-33v-138h36v-5h-129v5h36v416h-36v4h173c58.667 0 102.5 -12.167 131.5 -36.5s43.5 -59.166 43.5 -104.499c0 -41.333 -12.333 -74 -37 -98s-61.667 -38 -111 -42
c8 -2.66699 16 -8.66699 24 -18zM415 296.004c36.667 0 65 11.832 85 35.499s30 56.834 30 99.501c0 43.333 -10 76.833 -30 100.5s-48.333 35.5 -85 35.5h-80v-271h80z" />
    <glyph glyph-name="degree" unicode="&#xb0;" horiz-adv-x="235" 
d="M117 720c22 0 40.667 -7.66699 56 -23s23 -34 23 -56c0 -21.333 -7.66699 -39.833 -23 -55.5s-34 -23.5 -56 -23.5s-40.667 7.83301 -56 23.5s-23 34.167 -23 55.5c0 22 7.66699 40.667 23 56s34 23 56 23zM117 580c17.333 0 31.833 6 43.5 18s17.5 26.333 17.5 43
c0 17.333 -5.83301 31.833 -17.5 43.5s-26.167 17.5 -43.5 17.5s-31.833 -5.83301 -43.5 -17.5s-17.5 -26.167 -17.5 -43.5c0 -16.667 5.83301 -31 17.5 -43s26.167 -18 43.5 -18z" />
    <glyph glyph-name="twosuperior" unicode="&#xb2;" horiz-adv-x="283" 
d="M237 471l-7 -84.001h-189v2c4 10 14 24 30 42l51 60c18 22 34.167 44.667 48.5 68s21.5 45.333 21.5 66c0 21.333 -3.5 38.666 -10.5 51.999s-16.167 20 -27.5 20c-16 0 -32.667 -13 -50 -39c-8 -12 -16 -18.5 -24 -19.5s-14.333 0.666992 -19 5s-6.5 10.333 -5.5 18
s6.5 13.834 16.5 18.501c14 7.33301 28 12.666 42 15.999s27 5 39 5c23.333 0 42.333 -6.83301 57 -20.5s22 -36.167 22 -67.5c0 -20.667 -6 -39.667 -18 -57s-26.5 -33.666 -43.5 -48.999s-34.667 -29.666 -53 -42.999s-33.5 -26 -45.5 -38h103c12 0 21.5 0.333008 28.5 1
s12.5 2.5 16.5 5.5s7 7.5 9 13.5s3.66699 14.333 5 25h3z" />
    <glyph glyph-name="threesuperior" unicode="&#xb3;" horiz-adv-x="314" 
d="M161 567c25.333 2 46.1641 -1.1709 62.4971 -9.50391s28.166 -19.166 35.499 -32.499s10.333 -28.166 9 -44.499s-6.66602 -31.5 -15.999 -45.5s-22.666 -25.667 -39.999 -35s-38.333 -14 -63 -14c-36 -1.33301 -67 10.667 -93 36c-6 6.66699 -9.83301 13 -11.5 19
s-1.66699 11.333 0 16s4.33398 8.33398 8.00098 11.001s7.83398 4 12.501 4s9.16699 -1.66699 13.5 -5s7.5 -9 9.5 -17c5.33301 -20.667 14.333 -35.834 27 -45.501s26.334 -14.5 41.001 -14.5c13.333 0 25.166 4.33301 35.499 13s18.5 19.334 24.5 32.001
s9.83301 26.5 11.5 41.5s0.166992 28.833 -4.5 41.5s-12.5 23.334 -23.5 32.001s-25.833 13 -44.5 13v3l79 98h-107c-12 0 -21.5 -0.333008 -28.5 -1s-12.5 -2.5 -16.5 -5.5s-7 -7.5 -9 -13.5s-3.66699 -14.667 -5 -26h-3l7 82h174v-28z" />
    <glyph glyph-name="acute" unicode="&#xb4;" horiz-adv-x="269" 
d="M148 656c10.667 15.333 23.667 23 39 23c9.33301 0 17.833 -2.83301 25.5 -8.5s13 -12.667 16 -21s2.83301 -17.5 -0.5 -27.5s-11.333 -19.333 -24 -28l-165 -111l-4 4z" />
    <glyph glyph-name="periodcentered" unicode="&#xb7;" horiz-adv-x="188" 
d="M94 379c15.333 0 28.498 -5.66797 39.498 -17.001s16.5 -24.666 16.5 -39.999s-5.66699 -28.5 -17 -39.5s-24.666 -16.5 -39.999 -16.5c-7.33301 0 -14.5 1.33301 -21.5 4s-13.167 6.66699 -18.5 12c-8 8.66699 -13 18.5 -15 29.5s-1 21.833 3 32.5
c4.66699 10.667 11.834 19.167 21.501 25.5s20.167 9.5 31.5 9.5z" />
    <glyph glyph-name="cedilla" unicode="&#xb8;" horiz-adv-x="62" 
d="M32 -41c14.667 5.33301 29.6631 7.99902 44.9961 7.99902c12 0 23.667 -1.83301 35 -5.5s21.333 -9.16699 30 -16.5s15.667 -16.833 21 -28.5s8 -25.834 8 -42.501c0 -32 -9.66699 -57.5 -29 -76.5s-45 -28.5 -77 -28.5c-23.333 0 -47.666 5.33301 -72.999 16
c-14 6 -23.833 12.833 -29.5 20.5s-8.5 14.834 -8.5 21.501s2.33301 12.334 7 17.001s10.334 7 17.001 7c6 0 12 -2.16699 18 -6.5s11.667 -11.833 17 -22.5c14.667 -30.667 31.334 -46 50.001 -46c14.667 0 27.334 8.5 38.001 25.5s16 38.833 16 65.5
c0 24 -6.16699 44 -18.5 60s-26.833 24 -43.5 24c-12.667 0 -24 -4.66699 -34 -14l-6 5l14 82l8 -1z" />
    <glyph glyph-name="onesuperior" unicode="&#xb9;" horiz-adv-x="184" 
d="M139 390v-3h-95v3h27v237c0 15.333 -1.33301 25 -4 29s-9.66699 6 -21 6l67 45l-1 -317h27z" />
    <glyph glyph-name="ordmasculine" unicode="&#xba;" horiz-adv-x="360" 
d="M180 708c21.333 0 40.166 -4.5 56.499 -13.5s30.333 -21 42 -36s20.5 -32.333 26.5 -52s9 -40.5 9 -62.5s-3 -42.833 -9 -62.5s-14.833 -37 -26.5 -52s-25.667 -26.833 -42 -35.5s-35.166 -13 -56.499 -13s-40.333 4.33301 -57 13s-30.667 20.5 -42 35.5
s-20 32.333 -26 52s-9 40.5 -9 62.5s3 42.833 9 62.5s14.667 37 26 52s25.333 27 42 36s35.667 13.5 57 13.5zM199 391c12 -0.666992 22.498 1.83105 31.498 7.49805s16.5 13.334 22.5 23.001s10.5 20.834 13.5 33.501s4.5 26 4.5 40c0 29.333 -2.66699 56.333 -8 81
s-12.666 45.834 -21.999 63.501s-20.833 31.667 -34.5 42s-29.167 15.833 -46.5 16.5c-14 0.666992 -25.5 -2.33301 -34.5 -9s-16.167 -15.5 -21.5 -26.5s-9.16602 -23.5 -11.499 -37.5s-3.5 -28.333 -3.5 -43c0 -27.333 2.5 -52.5 7.5 -75.5s12.167 -43 21.5 -60
s20.833 -30.333 34.5 -40s29.167 -14.834 46.5 -15.501z" />
    <glyph glyph-name="guillemotright" unicode="&#xbb;" horiz-adv-x="299" 
d="M170 322l-103 -130h-25l64 130l-64 131h25zM260 322l-104 -130h-25l64 130l-64 131h25z" />
    <glyph glyph-name="questiondown" unicode="&#xbf;" horiz-adv-x="394" 
d="M307 475c-13.333 0 -24.666 4.66699 -33.999 14s-14 20.666 -14 33.999s4.66699 24.666 14 33.999s20.666 14 33.999 14s24.666 -4.66699 33.999 -14s14 -20.666 14 -33.999s-4.66699 -24.666 -14 -33.999s-20.666 -14 -33.999 -14zM356 -61
c7.33301 13.333 15.6582 23.002 24.9912 29.002s18.333 9 27 9s16.334 -2.5 23.001 -7.5s11.334 -11.5 14.001 -19.5s2.33398 -16.833 -0.999023 -26.5s-10.666 -18.834 -21.999 -27.501c-9.33301 -7.33301 -21.166 -14.333 -35.499 -21s-30 -12.334 -47 -17.001
s-34.833 -8.33398 -53.5 -11.001s-37.667 -4 -57 -4c-24.667 0 -48.667 2.66699 -72 8s-44.166 13.833 -62.499 25.5s-33 27.167 -44 46.5s-16.5 43 -16.5 71c0 35.333 6.66699 65.333 20 90s30 47.167 50 67.5s41.833 39.666 65.5 57.999s45.5 38.5 65.5 60.5
s36.667 47.167 50 75.5s20 62.5 20 102.5h8c0 -42.667 -4.66699 -80 -14 -112s-21.166 -60.5 -35.499 -85.5s-29.666 -47.667 -45.999 -68s-31.666 -40.666 -45.999 -60.999s-26.166 -41.333 -35.499 -63s-14 -46.5 -14 -74.5c0 -20 3 -38 9 -54s14.167 -29.667 24.5 -41
s22.333 -20.166 36 -26.499s27.834 -9.5 42.501 -9.5c21.333 0 42.666 6.66699 63.999 20s40.666 35.333 57.999 66z" />
    <glyph glyph-name="Agrave" unicode="&#xc0;" horiz-adv-x="752" 
d="M162 896c-12.667 8.66699 -20.667 17.833 -24 27.5s-3.5 18.667 -0.5 27s8.5 15.333 16.5 21s16.333 8.5 25 8.5c7.33301 0 14.333 -1.66699 21 -5s12.667 -9.33301 18 -18l113 -168l-3 -5zM758 -0.000976562l-311.998 0.00195312v7c23.333 0 41.666 1.66699 54.999 5
s22.333 10.166 27 20.499s5 25 1 44s-12 43.833 -24 74.5l-6 13h-336l-9 -22c-11.333 -30.667 -18.666 -55 -21.999 -73s-2.5 -31.667 2.5 -41s14.5 -15.166 28.5 -17.499s32.333 -3.5 55 -3.5v-7h-224v7c14.667 0 27.667 0.666992 39 2s21.666 4.66602 30.999 9.99902
s18.166 13.166 26.499 23.499s16.833 24.5 25.5 42.5l210 517l-39 98h97l207 -506c17.333 -41.333 32 -74.333 44 -99s23.667 -43.5 35 -56.5s23.833 -21.5 37.5 -25.5s30.5 -6 50.5 -6v-7zM495.002 175.001l-162 409l-166 -409h328z" />
    <glyph glyph-name="Aacute" unicode="&#xc1;" horiz-adv-x="752" 
d="M345 784l-4 5.00098l114 168c5.33301 8.66699 11.333 14.667 18 18s13.667 5 21 5c9.33301 0 17.833 -2.83301 25.5 -8.5s13 -12.667 16 -21s2.83301 -17.333 -0.5 -27s-11.333 -18.834 -24 -27.501zM758 0.000976562l-311.998 0.00195312v7
c23.333 0 41.666 1.66699 54.999 5s22.333 10.166 27 20.499s5 25 1 44s-12 43.833 -24 74.5l-6 13h-336l-9 -22c-11.333 -30.667 -18.666 -55 -21.999 -73s-2.5 -31.667 2.5 -41s14.5 -15.166 28.5 -17.499s32.333 -3.5 55 -3.5v-7h-224v7c14.667 0 27.667 0.666992 39 2
s21.666 4.66602 30.999 9.99902s18.166 13.166 26.499 23.499s16.833 24.5 25.5 42.5l210 517l-39 98h97l207 -506c17.333 -41.333 32 -74.333 44 -99s23.667 -43.5 35 -56.5s23.833 -21.5 37.5 -25.5s30.5 -6 50.5 -6v-7zM495.002 175.003l-162 409l-166 -409h328z" />
    <glyph glyph-name="Atilde" unicode="&#xc3;" horiz-adv-x="752" 
d="M494 853c-9.33301 -26 -21.166 -43.9971 -35.499 -53.9971s-30.166 -15 -47.499 -15c-15.333 0 -31.5 2.83301 -48.5 8.5s-34 12 -51 19s-33.5 13.333 -49.5 19s-30.667 8.5 -44 8.5c-12 0 -22.667 -2.83301 -32 -8.5s-16.666 -16.167 -21.999 -31.5
c-1.33301 9.33301 0 18.333 4 27c9.33301 26 21.166 43.833 35.499 53.5s30.166 14.5 47.499 14.5c16 0 32.5 -2.83301 49.5 -8.5s34 -11.834 51 -18.501s33.5 -12.834 49.5 -18.501s30.667 -8.5 44 -8.5c12 0 22.667 2.83301 32 8.5s16.666 16.167 21.999 31.5
c0 -4.66699 -0.333008 -9.33398 -1 -14.001s-2 -9 -4 -13zM758 0.00292969l-311.998 0.00195312v7c23.333 0 41.666 1.66699 54.999 5s22.333 10.166 27 20.499s5 25 1 44s-12 43.833 -24 74.5l-6 13h-336l-9 -22c-11.333 -30.667 -18.666 -55 -21.999 -73
s-2.5 -31.667 2.5 -41s14.5 -15.166 28.5 -17.499s32.333 -3.5 55 -3.5v-7h-224v7c14.667 0 27.667 0.666992 39 2s21.666 4.66602 30.999 9.99902s18.166 13.166 26.499 23.499s16.833 24.5 25.5 42.5l210 517l-39 98h97l207 -506c17.333 -41.333 32 -74.333 44 -99
s23.667 -43.5 35 -56.5s23.833 -21.5 37.5 -25.5s30.5 -6 50.5 -6v-7zM495.002 175.005l-162 409l-166 -409h328z" />
    <glyph glyph-name="Adieresis" unicode="&#xc4;" horiz-adv-x="752" 
d="M272 785c-12.667 0 -23.1699 4.33398 -31.5029 13.001s-12.5 19 -12.5 31s4.33301 22.333 13 31s19 13 31 13c12.667 0 23.334 -4.33301 32.001 -13c6.66699 -6 10.667 -13.5 12 -22.5s0.333008 -17.5 -3 -25.5c-3.33301 -8.66699 -8.66602 -15.334 -15.999 -20.001
s-15.666 -7 -24.999 -7zM389.997 785.001c-12 0 -22.335 4.33398 -31.002 13.001s-13 19 -13 31c0 12.667 4.5 23.167 13.5 31.5s19.5 12.5 31.5 12.5c12.667 0 23 -4.33301 31 -13c6.66699 -6 10.834 -13.5 12.501 -22.5s0.833984 -17.5 -2.49902 -25.5
c-3.33301 -8.66699 -8.83301 -15.334 -16.5 -20.001s-16.167 -7 -25.5 -7zM757.995 0.00195312l-311.998 0.00195312v7c23.333 0 41.666 1.66699 54.999 5s22.333 10.166 27 20.499s5 25 1 44s-12 43.833 -24 74.5l-6 13h-336l-9 -22
c-11.333 -30.667 -18.666 -55 -21.999 -73s-2.5 -31.667 2.5 -41s14.5 -15.166 28.5 -17.499s32.333 -3.5 55 -3.5v-7h-224v7c14.667 0 27.667 0.666992 39 2s21.666 4.66602 30.999 9.99902s18.166 13.166 26.499 23.499s16.833 24.5 25.5 42.5l210 517l-39 98h97l207 -506
c17.333 -41.333 32 -74.333 44 -99s23.667 -43.5 35 -56.5s23.833 -21.5 37.5 -25.5s30.5 -6 50.5 -6v-7zM494.997 175.004l-162 409l-166 -409h328z" />
    <glyph glyph-name="Aring" unicode="&#xc5;" horiz-adv-x="752" 
d="M340 784c-24.667 0 -45.667 8.66895 -63 26.002s-26 38.333 -26 63c0 25.333 8.83301 46.5 26.5 63.5s38.834 25.5 63.501 25.5c24 0 44.667 -8.66699 62 -26c13.333 -12.667 21.666 -27.834 24.999 -45.501s1.33301 -34.834 -6 -51.501
c-6.66699 -16.667 -17.5 -30 -32.5 -40s-31.5 -15 -49.5 -15zM340 942.002c-19.333 0 -35.666 -6.66699 -48.999 -20s-20 -29.666 -20 -48.999s6.66699 -35.666 20 -48.999s29.666 -20 48.999 -20s35.666 6.66699 48.999 20s20 29.666 20 48.999s-6.66699 35.666 -20 48.999
s-29.666 20 -48.999 20zM758 0.00195312l-311.998 0.00195312v7c23.333 0 41.666 1.66699 54.999 5s22.333 10.166 27 20.499s5 25 1 44s-12 43.833 -24 74.5l-6 13h-336l-9 -22c-11.333 -30.667 -18.666 -55 -21.999 -73s-2.5 -31.667 2.5 -41s14.5 -15.166 28.5 -17.499
s32.333 -3.5 55 -3.5v-7h-224v7c14.667 0 27.667 0.666992 39 2s21.666 4.66602 30.999 9.99902s18.166 13.166 26.499 23.499s16.833 24.5 25.5 42.5l210 517l-39 98h97l207 -506c17.333 -41.333 32 -74.333 44 -99s23.667 -43.5 35 -56.5s23.833 -21.5 37.5 -25.5
s30.5 -6 50.5 -6v-7zM495.002 175.004l-162 409l-166 -409h328z" />
    <glyph glyph-name="AE" unicode="&#xc6;" horiz-adv-x="954" 
d="M929 150l-10.0029 -150.003h-490v8h52v156h-286l-20 -36c-14.667 -26.667 -25.167 -48 -31.5 -64s-7.83301 -28.333 -4.5 -37s12.166 -14.334 26.499 -17.001s34.5 -4 60.5 -4v-6h-232v6c20.667 0 37.834 0.833008 51.501 2.5s26 5.83398 37 12.501s21.333 16.5 31 29.5
s20.834 30.833 33.501 53.5l295 526c5.33301 10 9.5 18.833 12.5 26.5s3.5 14 1.5 19s-7.5 8.83301 -16.5 11.5s-22.833 4 -41.5 4v9h496v-3l9 -160l-6 -1c-3.33301 18.667 -7.33301 37.334 -12 56.001s-11.834 35.334 -21.501 50.001s-22.667 26.5 -39 35.5
s-37.833 13.5 -64.5 13.5h-186v-331h157c16.667 0 29.834 2.83301 39.501 8.5s16.834 12.834 21.501 21.501s7.5 18.167 8.5 28.5s1.5 20.5 1.5 30.5h6l-5 -184h-7c0 12.667 -0.166992 24.334 -0.5 35.001s-2.5 19.667 -6.5 27s-10.5 13.166 -19.5 17.499
s-21.833 6.5 -38.5 6.5h-157v-343h214l-2 1c26.667 0 48.167 3.83301 64.5 11.5s29.333 18 39 31s16.834 28.167 21.501 45.5s8.66699 35.333 12 54zM480.997 676.997l-2 -5l-277 -497h279v502z" />
    <glyph glyph-name="Ccedilla" unicode="&#xc7;" horiz-adv-x="686" 
d="M666 257c-8 -43.333 -21.8389 -81.5 -41.5059 -114.5s-43 -60.667 -70 -83s-56.833 -39.333 -89.5 -51s-66 -18.167 -100 -19.5l-4 -44c14.667 5.33301 30 8 46 8c12 0 23.5 -1.83301 34.5 -5.5s20.833 -9.16699 29.5 -16.5s15.667 -16.833 21 -28.5s8 -25.834 8 -42.501
c0 -32 -9.66699 -57.667 -29 -77s-44.666 -29 -75.999 -29c-22 0 -46.333 5.66699 -73 17c-14 6 -23.833 12.833 -29.5 20.5s-8.5 14.667 -8.5 21s2.33301 11.833 7 16.5s10.334 7 17.001 7c6 0 12 -2.16699 18 -6.5s11.667 -11.833 17 -22.5
c7.33301 -16 15.333 -27.5 24 -34.5s17.334 -10.5 26.001 -10.5c14.667 0 27.334 8.5 38.001 25.5s16 38.833 16 65.5c0 24 -6.16699 44 -18.5 60s-26.833 24 -43.5 24c-11.333 0 -22.666 -4.66699 -33.999 -14l-7 5l11 61c-40 0 -79.5 7.33301 -118.5 22
s-73.667 36.834 -104 66.501s-54.833 66.667 -73.5 111s-28 95.833 -28 154.5c0 61.333 9.66699 114.833 29 160.5s44.833 83.667 76.5 114s68 53 109 68s83.5 22.5 127.5 22.5c37.333 0 74.166 -5.16699 110.499 -15.5s70.833 -26.166 103.5 -47.499
c22 -14 34.833 -28.833 38.5 -44.5s1.16699 -28.167 -7.5 -37.5s-21.667 -13.333 -39 -12s-36 11.333 -56 30c-31.333 30 -65.666 52.167 -102.999 66.5s-74.666 21.5 -111.999 21.5c-30.667 0 -60.334 -5 -89.001 -15s-53.667 -25 -75 -45s-38.5 -45 -51.5 -75
s-19.5 -65 -19.5 -105c0 -60 9.16699 -112.5 27.5 -157.5s42.333 -82.5 72 -112.5s63.5 -52.333 101.5 -67s76.333 -22 115 -22c28.667 0 56.834 4 84.501 12s53.667 19.833 78 35.5s46 35.167 65 58.5s34.5 50.666 46.5 81.999z" />
    <glyph glyph-name="Egrave" unicode="&#xc8;" horiz-adv-x="555" 
d="M107 902c-12.667 8.66699 -20.667 17.833 -24 27.5s-3.5 18.667 -0.5 27s8.33301 15.333 16 21s16.167 8.5 25.5 8.5c6.66699 0 13.5 -1.66699 20.5 -5s13.167 -9.33301 18.5 -18l113 -168l-4 -5zM530 149.999l-10 -150.002h-498v7h60v685h-60v8h473v-2l9 -161l-5 -1
c-3.33301 18.667 -7.33301 37.334 -12 56.001s-11.834 35.334 -21.501 50.001s-22.834 26.5 -39.501 35.5s-38.334 13.5 -65.001 13.5h-186v-331h157c16.667 0 29.834 2.83301 39.501 8.5s16.834 12.834 21.501 21.501s7.5 18.167 8.5 28.5s1.5 20.5 1.5 30.5h6l-5 -184h-7
c0 13.333 -0.166992 25.166 -0.5 35.499s-2.5 19.333 -6.5 27s-10.5 13.5 -19.5 17.5s-21.833 6 -38.5 6h-157v-342h212c26.667 0 48.167 3.83301 64.5 11.5s29.333 18 39 31s16.834 28.167 21.501 45.5s8.66699 35.333 12 54z" />
    <glyph glyph-name="Eacute" unicode="&#xc9;" horiz-adv-x="555" 
d="M286 790l-3 5.00098l113 168c5.33301 8.66699 11.333 14.667 18 18s13.667 5 21 5c9.33301 0 17.833 -2.83301 25.5 -8.5s13 -12.667 16 -21s2.83301 -17.333 -0.5 -27s-11.333 -18.834 -24 -27.501zM530 150.001l-10 -150.002h-498v7h60v685h-60v8h473v-2l9 -161l-5 -1
c-3.33301 18.667 -7.33301 37.334 -12 56.001s-11.834 35.334 -21.501 50.001s-22.834 26.5 -39.501 35.5s-38.334 13.5 -65.001 13.5h-186v-331h157c16.667 0 29.834 2.83301 39.501 8.5s16.834 12.834 21.501 21.501s7.5 18.167 8.5 28.5s1.5 20.5 1.5 30.5h6l-5 -184h-7
c0 13.333 -0.166992 25.166 -0.5 35.499s-2.5 19.333 -6.5 27s-10.5 13.5 -19.5 17.5s-21.833 6 -38.5 6h-157v-342h212c26.667 0 48.167 3.83301 64.5 11.5s29.333 18 39 31s16.834 28.167 21.501 45.5s8.66699 35.333 12 54z" />
    <glyph glyph-name="Ecircumflex" unicode="&#xca;" horiz-adv-x="555" 
d="M129 790l-6 7l148 156h8l150 -156l-5 -6l-148 69zM530 150l-10 -150.002h-498v7h60v685h-60v8h473v-2l9 -161l-5 -1c-3.33301 18.667 -7.33301 37.334 -12 56.001s-11.834 35.334 -21.501 50.001s-22.834 26.5 -39.501 35.5s-38.334 13.5 -65.001 13.5h-186v-331h157
c16.667 0 29.834 2.83301 39.501 8.5s16.834 12.834 21.501 21.501s7.5 18.167 8.5 28.5s1.5 20.5 1.5 30.5h6l-5 -184h-7c0 13.333 -0.166992 25.166 -0.5 35.499s-2.5 19.333 -6.5 27s-10.5 13.5 -19.5 17.5s-21.833 6 -38.5 6h-157v-342h212
c26.667 0 48.167 3.83301 64.5 11.5s29.333 18 39 31s16.834 28.167 21.501 45.5s8.66699 35.333 12 54z" />
    <glyph glyph-name="Edieresis" unicode="&#xcb;" horiz-adv-x="555" 
d="M215 785c-12 0 -22.3359 4.33398 -31.0029 13.001s-13 19 -13 31s4.33301 22.333 13 31s19 13 31 13c12.667 0 23.334 -4.33301 32.001 -13c6.66699 -6 10.667 -13.5 12 -22.5s0.333008 -17.5 -3 -25.5c-3.33301 -8.66699 -8.66602 -15.334 -15.999 -20.001
s-15.666 -7 -24.999 -7zM333.997 785.001c-12.667 0 -23.3369 4.33398 -32.0039 13.001s-12.667 19 -12 31c0 12.667 4.33301 23.167 13 31.5s19 12.5 31 12.5c12.667 0 23.334 -4.33301 32.001 -13c6 -6 9.83301 -13.5 11.5 -22.5s0.833984 -17.5 -2.49902 -25.5
c-3.33301 -8.66699 -8.66602 -15.334 -15.999 -20.001s-15.666 -7 -24.999 -7zM529.994 150.002l-10 -150.002h-498v7h60v685h-60v8h473v-2l9 -161l-5 -1c-3.33301 18.667 -7.33301 37.334 -12 56.001s-11.834 35.334 -21.501 50.001s-22.834 26.5 -39.501 35.5
s-38.334 13.5 -65.001 13.5h-186v-331h157c16.667 0 29.834 2.83301 39.501 8.5s16.834 12.834 21.501 21.501s7.5 18.167 8.5 28.5s1.5 20.5 1.5 30.5h6l-5 -184h-7c0 13.333 -0.166992 25.166 -0.5 35.499s-2.5 19.333 -6.5 27s-10.5 13.5 -19.5 17.5s-21.833 6 -38.5 6
h-157v-342h212c26.667 0 48.167 3.83301 64.5 11.5s29.333 18 39 31s16.834 28.167 21.501 45.5s8.66699 35.333 12 54z" />
    <glyph glyph-name="Igrave" unicode="&#xcc;" horiz-adv-x="258" 
d="M125 785l-165 111c-12.667 8.66699 -20.667 18 -24 28s-3.5 19.167 -0.5 27.5s8.33301 15.333 16 21s16.167 8.5 25.5 8.5c15.333 0 28.333 -7.66699 39 -23l113 -169zM176 692v-685h59v-7h-212v7h59v685h-59v8h212v-8h-59z" />
    <glyph glyph-name="Iacute" unicode="&#xcd;" horiz-adv-x="258" 
d="M241 958c10.667 15.333 23.667 23 39 23c9.33301 0 17.833 -2.83301 25.5 -8.5s13 -12.667 16 -21s3 -17.5 0 -27.5s-11.167 -19.333 -24.5 -28l-165 -111l-4 4zM235 700v-8h-60v-685h60v-7h-213v7h60v685h-60v8h213z" />
    <glyph glyph-name="Icircumflex" unicode="&#xce;" horiz-adv-x="257" 
d="M282 791l-6 -6l-148 69l-147 -69l-6 6l149 157h7zM235 700v-8h-60v-685h60v-7h-213v7h60v685h-60v8h213z" />
    <glyph glyph-name="Idieresis" unicode="&#xcf;" horiz-adv-x="257" 
d="M69 785c-12.667 0 -23.0029 4.33301 -31.0029 13c-8.66699 8.66699 -13 19 -13 31s4.33301 22.333 13 31s19 13 31 13c12.667 0 23.334 -4.33301 32.001 -13c6.66699 -6 10.834 -13.5 12.501 -22.5s0.833984 -17.5 -2.49902 -25.5c-8.66699 -18 -22.667 -27 -42 -27z
M187.997 785c-12.667 0 -23.1709 4.16797 -31.5039 12.501s-12.5 18.833 -12.5 31.5s4.33301 23.167 13 31.5s19 12.5 31 12.5c12.667 0 23.334 -4.33301 32.001 -13c6 -6 9.83301 -13.5 11.5 -22.5s0.833984 -17.5 -2.49902 -25.5
c-3.33301 -8.66699 -8.66602 -15.334 -15.999 -20.001s-15.666 -7 -24.999 -7zM174.993 692.001v-685h60v-7h-213v7h60v685h-60v8h213v-8h-60z" />
    <glyph glyph-name="Ntilde" unicode="&#xd1;" horiz-adv-x="714" 
d="M523 842c-9.33301 -26 -21.167 -43.8311 -35.5 -53.498s-30.166 -14.5 -47.499 -14.5c-15.333 0 -31.5 2.83301 -48.5 8.5s-34 12 -51 19s-33.667 13.333 -50 19s-31.166 8.5 -44.499 8.5c-11.333 0 -21.833 -3 -31.5 -9s-17.167 -16.667 -22.5 -32
c-1.33301 10.667 0 20 4 28c9.33301 26 21.166 43.833 35.499 53.5s30.166 14.5 47.499 14.5c16 0 32.5 -2.83301 49.5 -8.5s34 -11.834 51 -18.501s33.5 -12.834 49.5 -18.501s30.667 -8.5 44 -8.5c12 0 22.667 2.83301 32 8.5s16.666 16.167 21.999 31.5
c0.666992 -8 -0.666016 -17.333 -3.99902 -28zM715.999 700.002l-0.00292969 -7c-22.667 0 -42 -1.33301 -58 -4s-29 -9 -39 -19s-17.167 -24.5 -21.5 -43.5s-6.5 -44.833 -6.5 -77.5v-562h-11l-441 631v-474c0 -31.333 2.33301 -56 7 -74s11.834 -31.667 21.501 -41
s22.334 -15.333 38.001 -18s34.834 -4 57.501 -4v-7h-260v7c23.333 0 42.833 1.33301 58.5 4s28.5 9 38.5 19s17.167 24.5 21.5 43.5s6.5 44.833 6.5 77.5v398c0 32.667 -0.833008 58.5 -2.5 77.5s-6 33.5 -13 43.5s-17 16.333 -30 19s-31.167 4 -54.5 4v7h175l377 -548v397
c0 32.667 -2.16699 58.5 -6.5 77.5s-11.5 33.5 -21.5 43.5s-22.833 16.333 -38.5 19s-35.167 4 -58.5 4v7h261z" />
    <glyph glyph-name="Ograve" unicode="&#xd2;" horiz-adv-x="762" 
d="M188 898c-12.667 8.66699 -20.667 17.833 -24 27.5s-3.5 18.667 -0.5 27s8.33301 15.333 16 21s16.167 8.5 25.5 8.5c6.66699 0 13.5 -1.66699 20.5 -5s13.167 -9.33301 18.5 -18l113 -169l-4 -4zM381 714.999c58 0 108.833 -10.5 152.5 -31.5s80.167 -48.5 109.5 -82.5
s51.333 -73 66 -117s22 -88.667 22 -134s-7.33301 -90 -22 -134s-36.667 -83 -66 -117s-65.833 -61.5 -109.5 -82.5s-94.5 -31.5 -152.5 -31.5c-58.667 0 -109.834 10.5 -153.501 31.5s-80 48.5 -109 82.5s-50.833 73 -65.5 117s-22 88.667 -22 134s7.33301 90 22 134
s36.5 83 65.5 117s65.333 61.5 109 82.5s94.834 31.5 153.501 31.5zM435 6.99902c40.667 -1.33301 75 7.16211 103 25.4951s50.167 43.333 66.5 75s26.833 67.834 31.5 108.501s4.16699 82.334 -1.5 125.001s-16.667 84.834 -33 126.501s-37.666 78.834 -63.999 111.501
s-57.166 59.5 -92.499 80.5s-75 32.167 -119 33.5c-40 1.33301 -74 -7.16699 -102 -25.5s-50.167 -43.166 -66.5 -74.499s-27.333 -67.333 -33 -108s-5.83398 -82.5 -0.500977 -125.5s16 -85.167 32 -126.5s37 -78.5 63 -111.5s57.167 -60 93.5 -81
s77.166 -32.167 122.499 -33.5z" />
    <glyph glyph-name="Oacute" unicode="&#xd3;" horiz-adv-x="762" 
d="M343 786l-4 4.00098l113 169c5.33301 8.66699 11.5 14.667 18.5 18s13.833 5 20.5 5c9.33301 0 17.833 -2.83301 25.5 -8.5s13 -12.667 16 -21s2.83301 -17.333 -0.5 -27s-11.333 -18.834 -24 -27.501zM381 715.001c58 0 108.833 -10.5 152.5 -31.5
s80.167 -48.5 109.5 -82.5s51.333 -73 66 -117s22 -88.667 22 -134s-7.33301 -90 -22 -134s-36.667 -83 -66 -117s-65.833 -61.5 -109.5 -82.5s-94.5 -31.5 -152.5 -31.5c-58.667 0 -109.834 10.5 -153.501 31.5s-80 48.5 -109 82.5s-50.833 73 -65.5 117
s-22 88.667 -22 134s7.33301 90 22 134s36.5 83 65.5 117s65.333 61.5 109 82.5s94.834 31.5 153.501 31.5zM435 7.00098c40.667 -1.33301 75 7.16211 103 25.4951s50.167 43.333 66.5 75s26.833 67.834 31.5 108.501s4.16699 82.334 -1.5 125.001
s-16.667 84.834 -33 126.501s-37.666 78.834 -63.999 111.501s-57.166 59.5 -92.499 80.5s-75 32.167 -119 33.5c-40 1.33301 -74 -7.16699 -102 -25.5s-50.167 -43.166 -66.5 -74.499s-27.333 -67.333 -33 -108s-5.83398 -82.5 -0.500977 -125.5s16 -85.167 32 -126.5
s37 -78.5 63 -111.5s57.167 -60 93.5 -81s77.166 -32.167 122.499 -33.5z" />
    <glyph glyph-name="Ocircumflex" unicode="&#xd4;" horiz-adv-x="762" 
d="M214 785l-6 6l149 157h7l151 -157l-6 -6l-148 69zM381 715c58 0 108.833 -10.5 152.5 -31.5s80.167 -48.5 109.5 -82.5s51.333 -73 66 -117s22 -88.667 22 -134s-7.33301 -90 -22 -134s-36.667 -83 -66 -117s-65.833 -61.5 -109.5 -82.5s-94.5 -31.5 -152.5 -31.5
c-58.667 0 -109.834 10.5 -153.501 31.5s-80 48.5 -109 82.5s-50.833 73 -65.5 117s-22 88.667 -22 134s7.33301 90 22 134s36.5 83 65.5 117s65.333 61.5 109 82.5s94.834 31.5 153.501 31.5zM435 7c40.667 -1.33301 75 7.16211 103 25.4951s50.167 43.333 66.5 75
s26.833 67.834 31.5 108.501s4.16699 82.334 -1.5 125.001s-16.667 84.834 -33 126.501s-37.666 78.834 -63.999 111.501s-57.166 59.5 -92.499 80.5s-75 32.167 -119 33.5c-40 1.33301 -74 -7.16699 -102 -25.5s-50.167 -43.166 -66.5 -74.499s-27.333 -67.333 -33 -108
s-5.83398 -82.5 -0.500977 -125.5s16 -85.167 32 -126.5s37 -78.5 63 -111.5s57.167 -60 93.5 -81s77.166 -32.167 122.499 -33.5z" />
    <glyph glyph-name="Otilde" unicode="&#xd5;" horiz-adv-x="762" 
d="M522 863c-9.33301 -26 -21.165 -43.833 -35.498 -53.5s-30.166 -14.5 -47.499 -14.5c-15.333 0 -31.5 2.83301 -48.5 8.5s-34 12 -51 19s-33.5 13.333 -49.5 19s-30.667 8.5 -44 8.5c-11.333 0 -21.833 -3 -31.5 -9s-17.167 -16.667 -22.5 -32
c-1.33301 10.667 0 19.667 4 27c9.33301 26 21.166 44 35.499 54s30.166 15 47.499 15c16 0 32.5 -2.83301 49.5 -8.5s34 -12 51 -19s33.5 -13.333 49.5 -19s30.667 -8.5 44 -8.5c12 0 22.667 2.83301 32 8.5s16.666 16.167 21.999 31.5
c0.666992 -8.66699 -1 -17.667 -5 -27zM381.001 715c58 0 108.833 -10.5 152.5 -31.5s80.167 -48.5 109.5 -82.5s51.333 -73 66 -117s22 -88.667 22 -134s-7.33301 -90 -22 -134s-36.667 -83 -66 -117s-65.833 -61.5 -109.5 -82.5s-94.5 -31.5 -152.5 -31.5
c-58.667 0 -109.834 10.5 -153.501 31.5s-80 48.5 -109 82.5s-50.833 73 -65.5 117s-22 88.667 -22 134s7.33301 90 22 134s36.5 83 65.5 117s65.333 61.5 109 82.5s94.834 31.5 153.501 31.5zM435.001 7c40.667 -1.33301 75 7.16211 103 25.4951s50.167 43.333 66.5 75
s26.833 67.834 31.5 108.501s4.16699 82.334 -1.5 125.001s-16.667 84.834 -33 126.501s-37.666 78.834 -63.999 111.501s-57.166 59.5 -92.499 80.5s-75 32.167 -119 33.5c-40 1.33301 -74 -7.16699 -102 -25.5s-50.167 -43.166 -66.5 -74.499s-27.333 -67.333 -33 -108
s-5.83398 -82.5 -0.500977 -125.5s16 -85.167 32 -126.5s37 -78.5 63 -111.5s57.167 -60 93.5 -81s77.166 -32.167 122.499 -33.5z" />
    <glyph glyph-name="Odieresis" unicode="&#xd6;" horiz-adv-x="762" 
d="M289 788c-12 0 -22.333 4.33398 -31 13.001s-13 19 -13 31c0 12.667 4.5 23.167 13.5 31.5s19.5 12.5 31.5 12.5c12.667 0 23 -4 31 -12c14 -14 17.333 -30.333 10 -49c-3.33301 -8.66699 -8.83301 -15.334 -16.5 -20.001s-16.167 -7 -25.5 -7zM408 788.001
c-12 0 -22.3359 4.33594 -31.0029 13.0029s-13 19 -13 31c0 12.667 4.33301 23.167 13 31.5s19 12.5 31 12.5c12.667 0 23.334 -4 32.001 -12c6.66699 -6.66699 10.667 -14.334 12 -23.001s0.333008 -17.334 -3 -26.001s-8.66602 -15.334 -15.999 -20.001
s-15.666 -7 -24.999 -7zM380.997 715.004c58 0 108.833 -10.5 152.5 -31.5s80.167 -48.5 109.5 -82.5s51.333 -73 66 -117s22 -88.667 22 -134s-7.33301 -90 -22 -134s-36.667 -83 -66 -117s-65.833 -61.5 -109.5 -82.5s-94.5 -31.5 -152.5 -31.5
c-58.667 0 -109.834 10.5 -153.501 31.5s-80 48.5 -109 82.5s-50.833 73 -65.5 117s-22 88.667 -22 134s7.33301 90 22 134s36.5 83 65.5 117s65.333 61.5 109 82.5s94.834 31.5 153.501 31.5zM434.997 7.00391c40.667 -1.33301 75 7.16211 103 25.4951
s50.167 43.333 66.5 75s26.833 67.834 31.5 108.501s4.16699 82.334 -1.5 125.001s-16.667 84.834 -33 126.501s-37.666 78.834 -63.999 111.501s-57.166 59.5 -92.499 80.5s-75 32.167 -119 33.5c-40 1.33301 -74 -7.16699 -102 -25.5s-50.167 -43.166 -66.5 -74.499
s-27.333 -67.333 -33 -108s-5.83398 -82.5 -0.500977 -125.5s16 -85.167 32 -126.5s37 -78.5 63 -111.5s57.167 -60 93.5 -81s77.166 -32.167 122.499 -33.5z" />
    <glyph glyph-name="multiply" unicode="&#xd7;" horiz-adv-x="310" 
d="M271 254l-10 -11l-106 106l-106 -106l-11 11l106 106l-106 106l11 11l106 -106l106 105l10 -10l-106 -106z" />
    <glyph glyph-name="Oslash" unicode="&#xd8;" horiz-adv-x="761" 
d="M570 668c33.333 -20.667 61.333 -46.168 84 -76.501s40.334 -63.333 53.001 -99s20 -72.834 22 -111.501s-0.833008 -76.667 -8.5 -114s-20.667 -72.666 -39 -105.999s-41.666 -62.666 -69.999 -87.999s-61.833 -45.5 -100.5 -60.5s-82.334 -22.5 -131.001 -22.5
c-31.333 -0.666992 -62.166 2.83301 -92.499 10.5s-59.5 19.167 -87.5 34.5l-94 -161h-13l98 167c-44 28 -78.833 64 -104.5 108s-42.334 91.167 -50.001 141.5s-6.33398 101 3.99902 152s29.833 97 58.5 138s66.5 74.5 113.5 100.5s102.833 39 167.5 39
c64.667 1.33301 125 -14 181 -46l94 162h13zM326 697.999c-40.667 1.33301 -75.335 -7.66699 -104.002 -27s-51.167 -45.5 -67.5 -78.5s-26.833 -70.667 -31.5 -113s-3.66699 -85.333 3 -129s18.834 -86.5 36.501 -128.5s40.834 -79 69.501 -111l288 493
c-25.333 28 -54 50.333 -86 67s-68 25.667 -108 27zM434.999 10.999c41.333 -1.33301 76.168 7.66797 104.501 27.001s50.5 45.166 66.5 77.499s26.167 69.5 30.5 111.5s3 84.833 -4 128.5s-19.333 86.5 -37 128.5s-40.167 79 -67.5 111l-288 -493
c25.333 -28 54.666 -49.833 87.999 -65.5s69 -24.167 107 -25.5z" />
    <glyph glyph-name="Ugrave" unicode="&#xd9;" horiz-adv-x="723" 
d="M192 906c-12.667 8.66699 -20.667 18 -24 28s-3.5 19.167 -0.5 27.5s8.33301 15.333 16 21s16.167 8.5 25.5 8.5c15.333 0 28.333 -7.66699 39 -23l113 -169l-4 -4zM726 700l0.00390625 -7.00098c-26 0 -47.167 -0.666992 -63.5 -2s-29 -6.16602 -38 -14.499
s-15.167 -21.333 -18.5 -39s-5 -43.167 -5 -76.5v-352c0.666992 -37.333 -6.5 -70 -21.5 -98s-34.667 -51.333 -59 -70s-52.333 -32.667 -84 -42s-63.834 -14 -96.501 -14s-64.834 4.66699 -96.501 14s-59.834 23.333 -84.501 42s-44.5 42 -59.5 70s-22.167 60.667 -21.5 98
v483h-61v8h213v-8h-61v-483c0 -33.333 5.66699 -62.166 17 -86.499s26.5 -44.5 45.5 -60.5s40.667 -28 65 -36s49.166 -12 74.499 -12c27.333 0 54 4.16699 80 12.5s49.167 20.833 69.5 37.5s36.833 37 49.5 61s19 52 19 84v366c0 29.333 -1.83301 52 -5.5 68
s-10 27.667 -19 35s-21.5 11.666 -37.5 12.999s-36.667 2 -62 2v7h261z" />
    <glyph glyph-name="Uacute" unicode="&#xda;" horiz-adv-x="723" 
d="M375 795l-4 4l113 169c10.667 15.333 23.667 23 39 23c9.33301 0 17.833 -2.83301 25.5 -8.5s13 -12.667 16 -21s3 -17.5 0 -27.5s-11.167 -19.333 -24.5 -28zM726 700l0.00390625 -7.00098c-26 0 -47.167 -0.666992 -63.5 -2s-29 -6.16602 -38 -14.499
s-15.167 -21.333 -18.5 -39s-5 -43.167 -5 -76.5v-352c0.666992 -37.333 -6.5 -70 -21.5 -98s-34.667 -51.333 -59 -70s-52.333 -32.667 -84 -42s-63.834 -14 -96.501 -14s-64.834 4.66699 -96.501 14s-59.834 23.333 -84.501 42s-44.5 42 -59.5 70s-22.167 60.667 -21.5 98
v483h-61v8h213v-8h-61v-483c0 -33.333 5.66699 -62.166 17 -86.499s26.5 -44.5 45.5 -60.5s40.667 -28 65 -36s49.166 -12 74.499 -12c27.333 0 54 4.16699 80 12.5s49.167 20.833 69.5 37.5s36.833 37 49.5 61s19 52 19 84v366c0 29.333 -1.83301 52 -5.5 68
s-10 27.667 -19 35s-21.5 11.666 -37.5 12.999s-36.667 2 -62 2v7h261z" />
    <glyph glyph-name="Ucircumflex" unicode="&#xdb;" horiz-adv-x="723" 
d="M210 786l-6 6l149 157h7l151 -157l-6 -6l-147 69zM726 700l0.00390625 -7.00098c-26 0 -47.167 -0.666992 -63.5 -2s-29 -6.16602 -38 -14.499s-15.167 -21.333 -18.5 -39s-5 -43.167 -5 -76.5v-352c0.666992 -37.333 -6.5 -70 -21.5 -98s-34.667 -51.333 -59 -70
s-52.333 -32.667 -84 -42s-63.834 -14 -96.501 -14s-64.834 4.66699 -96.501 14s-59.834 23.333 -84.501 42s-44.5 42 -59.5 70s-22.167 60.667 -21.5 98v483h-61v8h213v-8h-61v-483c0 -33.333 5.66699 -62.166 17 -86.499s26.5 -44.5 45.5 -60.5s40.667 -28 65 -36
s49.166 -12 74.499 -12c27.333 0 54 4.16699 80 12.5s49.167 20.833 69.5 37.5s36.833 37 49.5 61s19 52 19 84v366c0 29.333 -1.83301 52 -5.5 68s-10 27.667 -19 35s-21.5 11.666 -37.5 12.999s-36.667 2 -62 2v7h261z" />
    <glyph glyph-name="Udieresis" unicode="&#xdc;" horiz-adv-x="723" 
d="M312 778c-12.667 0 -23.0029 4.66797 -31.0029 14.001c-8.66699 8.66699 -13 19 -13 31s4.33301 22.333 13 31s19 13 31 13c12.667 0 23.334 -4.33301 32.001 -13c6.66699 -6.66699 10.667 -14.334 12 -23.001s0.333008 -17 -3 -25
c-3.33301 -8.66699 -8.66602 -15.5 -15.999 -20.5s-15.666 -7.5 -24.999 -7.5zM430.997 778.001c-12 0 -22.6709 4.66797 -32.0039 14.001c-8.66699 8.66699 -12.667 19 -12 31c0 12.667 4.33301 23.167 13 31.5s19 12.5 31 12.5c12.667 0 23.334 -4.33301 32.001 -13
c6 -6.66699 9.83301 -14.334 11.5 -23.001s0.833984 -17 -2.49902 -25c-3.33301 -8.66699 -8.66602 -15.5 -15.999 -20.5s-15.666 -7.5 -24.999 -7.5zM725.993 700.002l0.00390625 -7.00098c-26 0 -47.167 -0.666992 -63.5 -2s-29 -6.16602 -38 -14.499
s-15.167 -21.333 -18.5 -39s-5 -43.167 -5 -76.5v-352c0.666992 -37.333 -6.5 -70 -21.5 -98s-34.667 -51.333 -59 -70s-52.333 -32.667 -84 -42s-63.834 -14 -96.501 -14s-64.834 4.66699 -96.501 14s-59.834 23.333 -84.501 42s-44.5 42 -59.5 70s-22.167 60.667 -21.5 98
v483h-61v8h213v-8h-61v-483c0 -33.333 5.66699 -62.166 17 -86.499s26.5 -44.5 45.5 -60.5s40.667 -28 65 -36s49.166 -12 74.499 -12c27.333 0 54 4.16699 80 12.5s49.167 20.833 69.5 37.5s36.833 37 49.5 61s19 52 19 84v366c0 29.333 -1.83301 52 -5.5 68
s-10 27.667 -19 35s-21.5 11.666 -37.5 12.999s-36.667 2 -62 2v7h261z" />
    <glyph glyph-name="Yacute" unicode="&#xdd;" horiz-adv-x="745" 
d="M223 906c-12.667 8.66699 -20.667 18 -24 28s-3.5 19.167 -0.5 27.5s8.33301 15.333 16 21s16.167 8.5 25.5 8.5c15.333 0 28.333 -7.66699 39 -23l113 -169l-4 -4zM750 700l-0.00292969 -7c-20 0 -37.667 -1.66699 -53 -5s-30.666 -10.666 -45.999 -21.999
s-31.666 -27.833 -48.999 -49.5s-38 -51.167 -62 -88.5l-128 -201v-320h59v-7h-213v7h61v307h-1l-234 378h-90v8h279v-8h-81l213 -347h1l137 213c32.667 51.333 46.334 86.666 41.001 105.999s-31 29 -77 29v7h243z" />
    <glyph glyph-name="germandbls" unicode="&#xdf;" horiz-adv-x="612" 
d="M275 415c45.333 0 86.8359 -3.33594 124.503 -10.0029s70.167 -18.334 97.5 -35.001s48.666 -39.167 63.999 -67.5s23 -64.166 23 -107.499c0 -36.667 -6.33301 -67.834 -19 -93.501s-29.334 -46.5 -50.001 -62.5s-43.834 -27.667 -69.501 -35s-51.167 -11 -76.5 -11
c-30 0 -57.667 4.16699 -83 12.5s-45 19.5 -59 33.5c-12.667 12.667 -20.667 24.667 -24 36s-3.5 21.333 -0.5 30s8.33301 15.5 16 20.5s16.167 7.5 25.5 7.5c11.333 0 22.5 -4.16699 33.5 -12.5s19.167 -22.166 24.5 -41.499c6.66699 -25.333 17.667 -44.333 33 -57
s31.666 -19 48.999 -19c12.667 0 25.334 3.66699 38.001 11s24 18.5 34 33.5s18.167 34 24.5 57s9.5 50.167 9.5 81.5c0 42 -4.16699 77.167 -12.5 105.5s-21.5 51 -39.5 68s-41 29 -69 36s-62 10.5 -102 10.5v14l153 151c-11.333 42.667 -29 75.167 -53 97.5
s-49 33.5 -75 33.5c-15.333 0 -30.333 -4.16699 -45 -12.5s-27.667 -21.166 -39 -38.499s-20.333 -39.166 -27 -65.499s-10 -57.5 -10 -93.5v-484h60v-8h-213v8h60v500c0 34 6.33301 63.667 19 89s29.167 46.5 49.5 63.5s43.5 29.667 69.5 38s52.333 12.5 79 12.5
c19.333 0 38 -2.16699 56 -6.5s35 -10.666 51 -18.999s30.333 -19 43 -32s23 -28.167 31 -45.5z" />
    <glyph glyph-name="agrave" unicode="&#xe0;" 
d="M114 730c-12.667 8.66699 -20.667 17.833 -24 27.5s-3.5 18.667 -0.5 27s8.33301 15.333 16 21s16.167 8.5 25.5 8.5c6.66699 0 13.5 -1.66699 20.5 -5s13.167 -9.33301 18.5 -18l113 -168l-4 -5zM591 47.999c-18.667 -18.667 -37.999 -32.335 -57.999 -41.002
s-38.667 -13 -56 -13c-23.333 0 -42.833 7 -58.5 21s-23.5 33.667 -23.5 59v76c-6 -27.333 -15.333 -51.166 -28 -71.499s-27.667 -37 -45 -50s-36.166 -22.667 -56.499 -29s-40.833 -9.5 -61.5 -9.5c-22 0 -43.333 3.5 -64 10.5s-39 17.333 -55 31
s-28.833 30.334 -38.5 50.001s-14.5 42.167 -14.5 67.5c0 28.667 5.16699 53 15.5 73s23.166 37 38.499 51s32.166 26 50.499 36l50.5 27.5c15.333 8.33301 28.166 17 38.499 26s15.5 19.5 15.5 31.5c0 17.333 -5.16699 30.833 -15.5 40.5s-23.166 14.5 -38.499 14.5
c-14.667 0 -29.667 -5 -45 -15l-9 -7c-12.667 -8 -24.334 -12 -35.001 -12s-19.5 3.5 -26.5 10.5s-10.833 15.333 -11.5 25s2.33301 19.334 9 29.001s18 17.167 34 22.5c34 11.333 69 21.666 105 30.999s70.333 14 103 14c24.667 0 47.834 -3.33301 69.501 -10
s40.5 -18.167 56.5 -34.5s28.5 -38 37.5 -65s13.5 -60.5 13.5 -100.5v-232c0 -26 4.16699 -46 12.5 -60s19.5 -21 33.5 -21c16.667 0 35 9 55 27zM396.001 423.998c0 40.667 -7.83398 69.8369 -23.501 87.5039s-35.167 26.5 -58.5 26.5c-17.333 0 -35.833 -4.5 -55.5 -13.5
s-38.834 -21.167 -57.501 -36.5c-7.33301 -5.33301 -10.666 -11.5 -9.99902 -18.5s5.66699 -11.5 15 -13.5c13.333 -3.33301 24.333 -10.5 33 -21.5s13 -25.5 13 -43.5c0 -17.333 -6.5 -32.5 -19.5 -45.5l-43.5 -41.5c-16 -14.667 -30.5 -31.5 -43.5 -50.5
s-19.5 -43.5 -19.5 -73.5c0 -23.333 3.5 -43.833 10.5 -61.5s16.167 -32.334 27.5 -44.001s24.333 -20.334 39 -26.001s30 -8.5 46 -8.5c18 0 35.667 3.66699 53 11s32.833 18.166 46.5 32.499s24.834 32.166 33.501 53.499s13 46 13 74v213h1z" />
    <glyph glyph-name="aacute" unicode="&#xe1;" 
d="M315 618l-4 5.00098l113 168c5.33301 8.66699 11.5 14.667 18.5 18s13.833 5 20.5 5c9.33301 0 17.833 -2.83301 25.5 -8.5s13 -12.667 16 -21s3 -17.333 0 -27s-11.167 -18.834 -24.5 -27.501zM591 48.001c-18.667 -18.667 -37.999 -32.335 -57.999 -41.002
s-38.667 -13 -56 -13c-23.333 0 -42.833 7 -58.5 21s-23.5 33.667 -23.5 59v76c-6 -27.333 -15.333 -51.166 -28 -71.499s-27.667 -37 -45 -50s-36.166 -22.667 -56.499 -29s-40.833 -9.5 -61.5 -9.5c-22 0 -43.333 3.5 -64 10.5s-39 17.333 -55 31
s-28.833 30.334 -38.5 50.001s-14.5 42.167 -14.5 67.5c0 28.667 5.16699 53 15.5 73s23.166 37 38.499 51s32.166 26 50.499 36l50.5 27.5c15.333 8.33301 28.166 17 38.499 26s15.5 19.5 15.5 31.5c0 17.333 -5.16699 30.833 -15.5 40.5s-23.166 14.5 -38.499 14.5
c-14.667 0 -29.667 -5 -45 -15l-9 -7c-12.667 -8 -24.334 -12 -35.001 -12s-19.5 3.5 -26.5 10.5s-10.833 15.333 -11.5 25s2.33301 19.334 9 29.001s18 17.167 34 22.5c34 11.333 69 21.666 105 30.999s70.333 14 103 14c24.667 0 47.834 -3.33301 69.501 -10
s40.5 -18.167 56.5 -34.5s28.5 -38 37.5 -65s13.5 -60.5 13.5 -100.5v-232c0 -26 4.16699 -46 12.5 -60s19.5 -21 33.5 -21c16.667 0 35 9 55 27zM396.001 424c0 40.667 -7.83398 69.8369 -23.501 87.5039s-35.167 26.5 -58.5 26.5c-17.333 0 -35.833 -4.5 -55.5 -13.5
s-38.834 -21.167 -57.501 -36.5c-7.33301 -5.33301 -10.666 -11.5 -9.99902 -18.5s5.66699 -11.5 15 -13.5c13.333 -3.33301 24.333 -10.5 33 -21.5s13 -25.5 13 -43.5c0 -17.333 -6.5 -32.5 -19.5 -45.5l-43.5 -41.5c-16 -14.667 -30.5 -31.5 -43.5 -50.5
s-19.5 -43.5 -19.5 -73.5c0 -23.333 3.5 -43.833 10.5 -61.5s16.167 -32.334 27.5 -44.001s24.333 -20.334 39 -26.001s30 -8.5 46 -8.5c18 0 35.667 3.66699 53 11s32.833 18.166 46.5 32.499s24.834 32.166 33.501 53.499s13 46 13 74v213h1z" />
    <glyph glyph-name="acircumflex" unicode="&#xe2;" 
d="M132 617l-6 7l149 157h7l151 -157l-6 -6l-148 69zM591 48c-18.667 -18.667 -37.999 -32.335 -57.999 -41.002s-38.667 -13 -56 -13c-23.333 0 -42.833 7 -58.5 21s-23.5 33.667 -23.5 59v76c-6 -27.333 -15.333 -51.166 -28 -71.499s-27.667 -37 -45 -50
s-36.166 -22.667 -56.499 -29s-40.833 -9.5 -61.5 -9.5c-22 0 -43.333 3.5 -64 10.5s-39 17.333 -55 31s-28.833 30.334 -38.5 50.001s-14.5 42.167 -14.5 67.5c0 28.667 5.16699 53 15.5 73s23.166 37 38.499 51s32.166 26 50.499 36l50.5 27.5
c15.333 8.33301 28.166 17 38.499 26s15.5 19.5 15.5 31.5c0 17.333 -5.16699 30.833 -15.5 40.5s-23.166 14.5 -38.499 14.5c-14.667 0 -29.667 -5 -45 -15l-9 -7c-12.667 -8 -24.334 -12 -35.001 -12s-19.5 3.5 -26.5 10.5s-10.833 15.333 -11.5 25
s2.33301 19.334 9 29.001s18 17.167 34 22.5c34 11.333 69 21.666 105 30.999s70.333 14 103 14c24.667 0 47.834 -3.33301 69.501 -10s40.5 -18.167 56.5 -34.5s28.5 -38 37.5 -65s13.5 -60.5 13.5 -100.5v-232c0 -26 4.16699 -46 12.5 -60s19.5 -21 33.5 -21
c16.667 0 35 9 55 27zM396.001 423.999c0 40.667 -7.83398 69.8369 -23.501 87.5039s-35.167 26.5 -58.5 26.5c-17.333 0 -35.833 -4.5 -55.5 -13.5s-38.834 -21.167 -57.501 -36.5c-7.33301 -5.33301 -10.666 -11.5 -9.99902 -18.5s5.66699 -11.5 15 -13.5
c13.333 -3.33301 24.333 -10.5 33 -21.5s13 -25.5 13 -43.5c0 -17.333 -6.5 -32.5 -19.5 -45.5l-43.5 -41.5c-16 -14.667 -30.5 -31.5 -43.5 -50.5s-19.5 -43.5 -19.5 -73.5c0 -23.333 3.5 -43.833 10.5 -61.5s16.167 -32.334 27.5 -44.001s24.333 -20.334 39 -26.001
s30 -8.5 46 -8.5c18 0 35.667 3.66699 53 11s32.833 18.166 46.5 32.499s24.834 32.166 33.501 53.499s13 46 13 74v213h1z" />
    <glyph glyph-name="atilde" unicode="&#xe3;" 
d="M457 687c-9.33301 -26 -21.1641 -43.9971 -35.4971 -53.9971s-30.166 -15 -47.499 -15c-16 0 -32.5 2.83301 -49.5 8.5s-34 12 -51 19s-33.5 13.333 -49.5 19s-30.667 8.5 -44 8.5c-11.333 0 -21.833 -3 -31.5 -9s-17.167 -16.667 -22.5 -32
c-0.666992 9.33301 1 18.666 5 27.999c9.33301 26 21.166 43.833 35.499 53.5s30.166 14.5 47.499 14.5c16 0 32.5 -2.83301 49.5 -8.5s34 -11.834 51 -18.501s33.5 -12.834 49.5 -18.501s30.667 -8.5 44 -8.5c11.333 0 21.666 2.83301 30.999 8.5
s16.666 16.167 21.999 31.5c1.33301 -10.667 0 -19.667 -4 -27zM591.002 48.0029c-18.667 -18.667 -37.999 -32.335 -57.999 -41.002s-38.667 -13 -56 -13c-23.333 0 -42.833 7 -58.5 21s-23.5 33.667 -23.5 59v76c-6 -27.333 -15.333 -51.166 -28 -71.499
s-27.667 -37 -45 -50s-36.166 -22.667 -56.499 -29s-40.833 -9.5 -61.5 -9.5c-22 0 -43.333 3.5 -64 10.5s-39 17.333 -55 31s-28.833 30.334 -38.5 50.001s-14.5 42.167 -14.5 67.5c0 28.667 5.16699 53 15.5 73s23.166 37 38.499 51s32.166 26 50.499 36l50.5 27.5
c15.333 8.33301 28.166 17 38.499 26s15.5 19.5 15.5 31.5c0 17.333 -5.16699 30.833 -15.5 40.5s-23.166 14.5 -38.499 14.5c-14.667 0 -29.667 -5 -45 -15l-9 -7c-12.667 -8 -24.334 -12 -35.001 -12s-19.5 3.5 -26.5 10.5s-10.833 15.333 -11.5 25
s2.33301 19.334 9 29.001s18 17.167 34 22.5c34 11.333 69 21.666 105 30.999s70.333 14 103 14c24.667 0 47.834 -3.33301 69.501 -10s40.5 -18.167 56.5 -34.5s28.5 -38 37.5 -65s13.5 -60.5 13.5 -100.5v-232c0 -26 4.16699 -46 12.5 -60s19.5 -21 33.5 -21
c16.667 0 35 9 55 27zM396.003 424.002c0 40.667 -7.83398 69.8369 -23.501 87.5039s-35.167 26.5 -58.5 26.5c-17.333 0 -35.833 -4.5 -55.5 -13.5s-38.834 -21.167 -57.501 -36.5c-7.33301 -5.33301 -10.666 -11.5 -9.99902 -18.5s5.66699 -11.5 15 -13.5
c13.333 -3.33301 24.333 -10.5 33 -21.5s13 -25.5 13 -43.5c0 -17.333 -6.5 -32.5 -19.5 -45.5l-43.5 -41.5c-16 -14.667 -30.5 -31.5 -43.5 -50.5s-19.5 -43.5 -19.5 -73.5c0 -23.333 3.5 -43.833 10.5 -61.5s16.167 -32.334 27.5 -44.001s24.333 -20.334 39 -26.001
s30 -8.5 46 -8.5c18 0 35.667 3.66699 53 11s32.833 18.166 46.5 32.499s24.834 32.166 33.501 53.499s13 46 13 74v213h1z" />
    <glyph glyph-name="adieresis" unicode="&#xe4;" 
d="M252 610c-12 0 -22.3369 4.33691 -31.0039 13.0039s-13 19 -13 31c0 9.33301 2.5 17.833 7.5 25.5s11.5 13.167 19.5 16.5c8.66699 3.33301 17.334 4.16602 26.001 2.49902s16.334 -5.83398 23.001 -12.501s10.667 -14.334 12 -23.001s0.333008 -17.334 -3 -26.001
c-3.33301 -8 -8.66602 -14.5 -15.999 -19.5s-15.666 -7.5 -24.999 -7.5zM370.996 610.004c-11.333 0 -22.0049 4.33691 -32.0049 13.0039c-8.66699 8.66699 -13 19 -13 31c0 9.33301 2.5 17.833 7.5 25.5s11.833 13.167 20.5 16.5s17.334 4.16602 26.001 2.49902
s16.334 -5.83398 23.001 -12.501c6 -6.66699 9.83301 -14.334 11.5 -23.001s0.833984 -17.334 -2.49902 -26.001c-3.33301 -8 -8.66602 -14.5 -15.999 -19.5s-15.666 -7.5 -24.999 -7.5zM590.991 48.0078c-18.667 -18.667 -37.999 -32.335 -57.999 -41.002
s-38.667 -13 -56 -13c-23.333 0 -42.833 7 -58.5 21s-23.5 33.667 -23.5 59v76c-6 -27.333 -15.333 -51.166 -28 -71.499s-27.667 -37 -45 -50s-36.166 -22.667 -56.499 -29s-40.833 -9.5 -61.5 -9.5c-22 0 -43.333 3.5 -64 10.5s-39 17.333 -55 31
s-28.833 30.334 -38.5 50.001s-14.5 42.167 -14.5 67.5c0 28.667 5.16699 53 15.5 73s23.166 37 38.499 51s32.166 26 50.499 36l50.5 27.5c15.333 8.33301 28.166 17 38.499 26s15.5 19.5 15.5 31.5c0 17.333 -5.16699 30.833 -15.5 40.5s-23.166 14.5 -38.499 14.5
c-14.667 0 -29.667 -5 -45 -15l-9 -7c-12.667 -8 -24.334 -12 -35.001 -12s-19.5 3.5 -26.5 10.5s-10.833 15.333 -11.5 25s2.33301 19.334 9 29.001s18 17.167 34 22.5c34 11.333 69 21.666 105 30.999s70.333 14 103 14c24.667 0 47.834 -3.33301 69.501 -10
s40.5 -18.167 56.5 -34.5s28.5 -38 37.5 -65s13.5 -60.5 13.5 -100.5v-232c0 -26 4.16699 -46 12.5 -60s19.5 -21 33.5 -21c16.667 0 35 9 55 27zM395.992 424.007c0 40.667 -7.83398 69.8369 -23.501 87.5039s-35.167 26.5 -58.5 26.5c-17.333 0 -35.833 -4.5 -55.5 -13.5
s-38.834 -21.167 -57.501 -36.5c-7.33301 -5.33301 -10.666 -11.5 -9.99902 -18.5s5.66699 -11.5 15 -13.5c13.333 -3.33301 24.333 -10.5 33 -21.5s13 -25.5 13 -43.5c0 -17.333 -6.5 -32.5 -19.5 -45.5l-43.5 -41.5c-16 -14.667 -30.5 -31.5 -43.5 -50.5
s-19.5 -43.5 -19.5 -73.5c0 -23.333 3.5 -43.833 10.5 -61.5s16.167 -32.334 27.5 -44.001s24.333 -20.334 39 -26.001s30 -8.5 46 -8.5c18 0 35.667 3.66699 53 11s32.833 18.166 46.5 32.499s24.834 32.166 33.501 53.499s13 46 13 74v213h1z" />
    <glyph glyph-name="aring" unicode="&#xe5;" 
d="M311 618c-24.667 0 -45.667 8.66699 -63 26s-26 38.333 -26 63s8.66699 45.667 26 63s38.333 26 63 26s45.667 -8.66699 63 -26s26 -38.333 26 -63s-8.66699 -45.667 -26 -63s-38.333 -26 -63 -26zM311 776c-18.667 0 -34.832 -6.66699 -48.499 -20
s-20.5 -29.666 -20.5 -48.999s6.66699 -35.666 20 -48.999s29.666 -20 48.999 -20s35.666 6.66699 48.999 20s20 29.666 20 48.999s-6.66699 35.666 -20 48.999s-29.666 20 -48.999 20zM591.002 48c-18.667 -18.667 -37.999 -32.335 -57.999 -41.002s-38.667 -13 -56 -13
c-23.333 0 -42.833 7 -58.5 21s-23.5 33.667 -23.5 59v76c-6 -27.333 -15.333 -51.166 -28 -71.499s-27.667 -37 -45 -50s-36.166 -22.667 -56.499 -29s-40.833 -9.5 -61.5 -9.5c-22 0 -43.333 3.5 -64 10.5s-39 17.333 -55 31s-28.833 30.334 -38.5 50.001
s-14.5 42.167 -14.5 67.5c0 28.667 5.16699 53 15.5 73s23.166 37 38.499 51s32.166 26 50.499 36l50.5 27.5c15.333 8.33301 28.166 17 38.499 26s15.5 19.5 15.5 31.5c0 17.333 -5.16699 30.833 -15.5 40.5s-23.166 14.5 -38.499 14.5c-14.667 0 -29.667 -5 -45 -15l-9 -7
c-12.667 -8 -24.334 -12 -35.001 -12s-19.5 3.5 -26.5 10.5s-10.833 15.333 -11.5 25s2.33301 19.334 9 29.001s18 17.167 34 22.5c34 11.333 69 21.666 105 30.999s70.333 14 103 14c24.667 0 47.834 -3.33301 69.501 -10s40.5 -18.167 56.5 -34.5s28.5 -38 37.5 -65
s13.5 -60.5 13.5 -100.5v-232c0 -26 4.16699 -46 12.5 -60s19.5 -21 33.5 -21c16.667 0 35 9 55 27zM396.003 423.999c0 40.667 -7.83398 69.8369 -23.501 87.5039s-35.167 26.5 -58.5 26.5c-17.333 0 -35.833 -4.5 -55.5 -13.5s-38.834 -21.167 -57.501 -36.5
c-7.33301 -5.33301 -10.666 -11.5 -9.99902 -18.5s5.66699 -11.5 15 -13.5c13.333 -3.33301 24.333 -10.5 33 -21.5s13 -25.5 13 -43.5c0 -17.333 -6.5 -32.5 -19.5 -45.5l-43.5 -41.5c-16 -14.667 -30.5 -31.5 -43.5 -50.5s-19.5 -43.5 -19.5 -73.5
c0 -23.333 3.5 -43.833 10.5 -61.5s16.167 -32.334 27.5 -44.001s24.333 -20.334 39 -26.001s30 -8.5 46 -8.5c18 0 35.667 3.66699 53 11s32.833 18.166 46.5 32.499s24.834 32.166 33.501 53.499s13 46 13 74v213h1z" />
    <glyph glyph-name="ae" unicode="&#xe6;" horiz-adv-x="928" 
d="M911 207c-7.33301 -36 -19.666 -67.6689 -36.999 -95.002s-37.666 -50.166 -60.999 -68.499s-48.833 -32.166 -76.5 -41.499s-55.834 -14 -84.501 -14c-28 0 -55.333 4.5 -82 13.5s-51 22.833 -73 41.5s-40.667 41.834 -56 69.501s-25.666 60.167 -30.999 97.5
c-1.33301 -38 -8.33301 -70.667 -21 -98s-28.667 -49.833 -48 -67.5s-41 -30.834 -65 -39.501s-48 -13 -72 -13c-22 0 -43.5 3.5 -64.5 10.5s-39.5 17.167 -55.5 30.5s-28.833 29.666 -38.5 48.999s-14.5 41.666 -14.5 66.999c0 28.667 5.16699 53 15.5 73
s23.166 37 38.499 51s32.166 26 50.499 36l50.5 27.5c15.333 8.33301 28.166 17 38.499 26s15.5 19.5 15.5 31.5c0 17.333 -5.16699 30.833 -15.5 40.5s-23.166 14.5 -38.499 14.5c-14.667 0 -29.667 -5 -45 -15l-9 -7c-12.667 -8 -24.334 -12 -35.001 -12
s-19.5 3.5 -26.5 10.5s-10.833 15.333 -11.5 25s2.33301 19.334 9 29.001s18 17.167 34 22.5c35.333 12 70.833 22.833 106.5 32.5s69.5 14.5 101.5 14.5c36 0 67.667 -8.33301 95 -25s46.666 -46.667 57.999 -90c12 20 25.833 37.167 41.5 51.5s32.334 26 50.001 35
s36.167 15.5 55.5 19.5s38.333 6 57 6c23.333 0 45.833 -2.83301 67.5 -8.5s40.667 -13.5 57 -23.5s29.333 -22 39 -36s14.5 -29 14.5 -45c0 -11.333 -2.83301 -19.833 -8.5 -25.5s-12.834 -9.66699 -21.501 -12s-17.5 -3.66602 -26.5 -3.99902
s-17.167 -0.833008 -24.5 -1.5l-286 1c-1.33301 -5.33301 -2.33301 -10.5 -3 -15.5s-1 -10.167 -1 -15.5v-45c2.66699 -43.333 10.834 -80.833 24.501 -112.5s30.667 -57.667 51 -78s43.333 -35.5 69 -45.5s51.834 -15 78.501 -15c43.333 0 84.5 12.333 123.5 37
s68.167 60 87.5 106h3zM394 423.998c0 40.667 -7.66797 69.834 -23.001 87.501s-34.666 26.5 -57.999 26.5c-17.333 0 -35.833 -4.5 -55.5 -13.5s-38.834 -21.167 -57.501 -36.5c-7.33301 -5.33301 -10.666 -11.5 -9.99902 -18.5s5.66699 -11.5 15 -13.5
c13.333 -3.33301 24.333 -10.5 33 -21.5s13 -25.5 13 -43.5c0 -17.333 -6.5 -32.5 -19.5 -45.5l-43.5 -41.5c-16 -14.667 -30.5 -31.5 -43.5 -50.5s-19.5 -43.5 -19.5 -73.5c0 -23.333 3.33301 -43.666 10 -60.999s15.667 -31.833 27 -43.5s24.333 -20.334 39 -26.001
s30 -8.5 46 -8.5c18 0 35.667 3.66699 53 11s33 18.166 47 32.499s25.333 32.333 34 54s13 46.5 13 74.5v211zM772.999 431.998c0 16 -3.16699 30.332 -9.5 42.999s-15 23.5 -26 32.5s-23.5 15.833 -37.5 20.5s-29 7 -45 7s-32.5 -2.5 -49.5 -7.5s-33.167 -13 -48.5 -24
s-29.666 -24.667 -42.999 -41s-24.333 -36.166 -33 -59.499h256c15.333 0 25.166 2.16699 29.499 6.5s6.5 11.833 6.5 22.5z" />
    <glyph glyph-name="ccedilla" unicode="&#xe7;" horiz-adv-x="537" 
d="M518 197c-6 -33.333 -16.502 -62.6689 -31.502 -88.002s-32.667 -46.666 -53 -63.999s-42.666 -30.666 -66.999 -39.999s-49.5 -14.666 -75.5 -15.999l-3 -40c14.667 5.33301 29.667 8 45 8c12 0 23.667 -1.66699 35 -5s21.333 -8.83301 30 -16.5
s15.667 -17.334 21 -29.001s8 -25.834 8 -42.501c0 -32 -9.83301 -57.667 -29.5 -77s-45.5 -29 -77.5 -29c-22.667 0 -46.667 5.33301 -72 16c-14 6 -23.833 12.833 -29.5 20.5s-8.33398 14.834 -8.00098 21.501s2.83301 12.334 7.5 17.001s10.334 7 17.001 7
c5.33301 0 11 -2.16699 17 -6.5s11.667 -11.833 17 -22.5c7.33301 -16 15.5 -27.667 24.5 -35s17.833 -11 26.5 -11c14.667 0 27.334 8.66699 38.001 26s16 39.333 16 66c0 23.333 -6.16699 43.166 -18.5 59.499s-26.833 24.5 -43.5 24.5c-12 0 -23.667 -4.66699 -35 -14
l-6 5l10 57c-30.667 0 -61 5.66699 -91 17s-56.5 28.333 -79.5 51s-41.667 51.167 -56 85.5s-21.5 74.5 -21.5 120.5c0 51.333 7.83301 94.833 23.5 130.5s36.334 64.834 62.001 87.501s54.667 39 87 49s64.833 15 97.5 15c24 0 47.5 -2.33301 70.5 -7
s44.5 -11.334 64.5 -20.001c11.333 -4.66699 19.166 -11 23.499 -19s5.83301 -15.667 4.5 -23s-5.33301 -13.833 -12 -19.5s-16 -8.5 -28 -8.5c-16 0 -34 5.66699 -54 17c-26.667 15.333 -52.667 26.833 -78 34.5s-49.333 11.5 -72 11.5c-42 0 -76.167 -13.5 -102.5 -40.5
s-39.833 -68.5 -40.5 -124.5c0 -49.333 6.66699 -91.833 20 -127.5s31 -65 53 -88s47 -40 75 -51s56.333 -16.5 85 -16.5c21.333 0 42.5 3 63.5 9s40.5 14.667 58.5 26s34 25.333 48 42s25 35.667 33 57h3z" />
    <glyph glyph-name="egrave" unicode="&#xe8;" horiz-adv-x="540" 
d="M109 728c-12.667 8.66699 -20.667 18 -24 28s-3.5 19.167 -0.5 27.5s8.5 15.333 16.5 21s16.333 8.5 25 8.5c7.33301 0 14.333 -1.66699 21 -5s12.667 -9.33301 18 -18l113 -169l-3 -4zM522 207c-7.33301 -36 -19.3291 -67.665 -35.9961 -94.998s-36.167 -50 -58.5 -68
s-46.833 -31.5 -73.5 -40.5s-53.667 -13.5 -81 -13.5c-30 0 -59.333 5.66699 -88 17s-54.167 28.166 -76.5 50.499s-40.333 50.5 -54 84.5s-20.5 73.667 -20.5 119c0 52.667 7.33301 97.167 22 133.5s33.834 65.666 57.501 87.999s50.167 38.5 79.5 48.5s58.333 15 87 15
c23.333 0 45.666 -2.83301 66.999 -8.5s40.166 -13.5 56.499 -23.5s29.333 -22 39 -36s14.5 -29 14.5 -45c0 -11.333 -2.83301 -19.833 -8.5 -25.5s-12.834 -9.66699 -21.501 -12s-17.5 -3.66602 -26.5 -3.99902s-17.167 -0.833008 -24.5 -1.5l-287 1
c-2.66699 -13.333 -4 -28.333 -4 -45c0 -48.667 6.33301 -90.834 19 -126.501s29.5 -65 50.5 -88s45 -40 72 -51s54.5 -16.5 82.5 -16.5c21.333 0 42.666 3.16699 63.999 9.5s41.166 15.5 59.499 27.5s35 27 50 45s27.167 38.333 36.5 61h3zM384.004 432.002
c0 16 -3.16797 30.332 -9.50098 42.999s-15 23.5 -26 32.5s-23.5 15.833 -37.5 20.5s-29 7 -45 7s-32.5 -2.5 -49.5 -7.5s-33.167 -13 -48.5 -24s-29.666 -24.667 -42.999 -41s-24.333 -36.166 -33 -59.499h257c14.667 0 24.167 2.16699 28.5 6.5s6.5 11.833 6.5 22.5z" />
    <glyph glyph-name="eacute" unicode="&#xe9;" horiz-adv-x="540" 
d="M282 617l-4 4l113 169c5.33301 8.66699 11.5 14.667 18.5 18s13.833 5 20.5 5c9.33301 0 17.833 -2.83301 25.5 -8.5s13 -12.667 16 -21s3 -17.5 0 -27.5s-11.167 -19.333 -24.5 -28zM522 207c-7.33301 -36 -19.3291 -67.665 -35.9961 -94.998s-36.167 -50 -58.5 -68
s-46.833 -31.5 -73.5 -40.5s-53.667 -13.5 -81 -13.5c-30 0 -59.333 5.66699 -88 17s-54.167 28.166 -76.5 50.499s-40.333 50.5 -54 84.5s-20.5 73.667 -20.5 119c0 52.667 7.33301 97.167 22 133.5s33.834 65.666 57.501 87.999s50.167 38.5 79.5 48.5s58.333 15 87 15
c23.333 0 45.666 -2.83301 66.999 -8.5s40.166 -13.5 56.499 -23.5s29.333 -22 39 -36s14.5 -29 14.5 -45c0 -11.333 -2.83301 -19.833 -8.5 -25.5s-12.834 -9.66699 -21.501 -12s-17.5 -3.66602 -26.5 -3.99902s-17.167 -0.833008 -24.5 -1.5l-287 1
c-2.66699 -13.333 -4 -28.333 -4 -45c0 -48.667 6.33301 -90.834 19 -126.501s29.5 -65 50.5 -88s45 -40 72 -51s54.5 -16.5 82.5 -16.5c21.333 0 42.666 3.16699 63.999 9.5s41.166 15.5 59.499 27.5s35 27 50 45s27.167 38.333 36.5 61h3zM384.004 432.002
c0 16 -3.16797 30.332 -9.50098 42.999s-15 23.5 -26 32.5s-23.5 15.833 -37.5 20.5s-29 7 -45 7s-32.5 -2.5 -49.5 -7.5s-33.167 -13 -48.5 -24s-29.666 -24.667 -42.999 -41s-24.333 -36.166 -33 -59.499h257c14.667 0 24.167 2.16699 28.5 6.5s6.5 11.833 6.5 22.5z" />
    <glyph glyph-name="ecircumflex" unicode="&#xea;" horiz-adv-x="540" 
d="M131 602l-6 7l149 157h7l151 -157l-6 -6l-148 69zM522 207c-7.33301 -36 -19.3291 -67.665 -35.9961 -94.998s-36.167 -50 -58.5 -68s-46.833 -31.5 -73.5 -40.5s-53.667 -13.5 -81 -13.5c-30 0 -59.333 5.66699 -88 17s-54.167 28.166 -76.5 50.499
s-40.333 50.5 -54 84.5s-20.5 73.667 -20.5 119c0 52.667 7.33301 97.167 22 133.5s33.834 65.666 57.501 87.999s50.167 38.5 79.5 48.5s58.333 15 87 15c23.333 0 45.666 -2.83301 66.999 -8.5s40.166 -13.5 56.499 -23.5s29.333 -22 39 -36s14.5 -29 14.5 -45
c0 -11.333 -2.83301 -19.833 -8.5 -25.5s-12.834 -9.66699 -21.501 -12s-17.5 -3.66602 -26.5 -3.99902s-17.167 -0.833008 -24.5 -1.5l-287 1c-2.66699 -13.333 -4 -28.333 -4 -45c0 -48.667 6.33301 -90.834 19 -126.501s29.5 -65 50.5 -88s45 -40 72 -51
s54.5 -16.5 82.5 -16.5c21.333 0 42.666 3.16699 63.999 9.5s41.166 15.5 59.499 27.5s35 27 50 45s27.167 38.333 36.5 61h3zM384.004 432.002c0 16 -3.16797 30.332 -9.50098 42.999s-15 23.5 -26 32.5s-23.5 15.833 -37.5 20.5s-29 7 -45 7s-32.5 -2.5 -49.5 -7.5
s-33.167 -13 -48.5 -24s-29.666 -24.667 -42.999 -41s-24.333 -36.166 -33 -59.499h257c14.667 0 24.167 2.16699 28.5 6.5s6.5 11.833 6.5 22.5z" />
    <glyph glyph-name="edieresis" unicode="&#xeb;" horiz-adv-x="540" 
d="M215 612c-12.667 0 -23.002 4.33301 -31.002 13c-8.66699 8.66699 -13 19 -13 31c0 12.667 4.5 23.167 13.5 31.5s19.5 12.5 31.5 12.5c12.667 0 23 -4.33301 31 -13c6.66699 -6 10.834 -13.5 12.501 -22.5s0.833984 -17.5 -2.49902 -25.5
c-3.33301 -8.66699 -8.83301 -15.5 -16.5 -20.5s-16.167 -7.16699 -25.5 -6.5zM333.998 612c-12.667 0 -23.0029 4.33301 -31.0029 13c-8.66699 8 -13 18.333 -13 31c0 12 4.33301 22.333 13 31s19 13 31 13c12.667 0 23.334 -4.33301 32.001 -13
c6.66699 -6 10.667 -13.5 12 -22.5s0.333008 -17.5 -3 -25.5c-3.33301 -8.66699 -8.66602 -15.5 -15.999 -20.5s-15.666 -7.16699 -24.999 -6.5zM521.995 207c-7.33301 -36 -19.3291 -67.665 -35.9961 -94.998s-36.167 -50 -58.5 -68s-46.833 -31.5 -73.5 -40.5
s-53.667 -13.5 -81 -13.5c-30 0 -59.333 5.66699 -88 17s-54.167 28.166 -76.5 50.499s-40.333 50.5 -54 84.5s-20.5 73.667 -20.5 119c0 52.667 7.33301 97.167 22 133.5s33.834 65.666 57.501 87.999s50.167 38.5 79.5 48.5s58.333 15 87 15
c23.333 0 45.666 -2.83301 66.999 -8.5s40.166 -13.5 56.499 -23.5s29.333 -22 39 -36s14.5 -29 14.5 -45c0 -11.333 -2.83301 -19.833 -8.5 -25.5s-12.834 -9.66699 -21.501 -12s-17.5 -3.66602 -26.5 -3.99902s-17.167 -0.833008 -24.5 -1.5l-287 1
c-2.66699 -13.333 -4 -28.333 -4 -45c0 -48.667 6.33301 -90.834 19 -126.501s29.5 -65 50.5 -88s45 -40 72 -51s54.5 -16.5 82.5 -16.5c21.333 0 42.666 3.16699 63.999 9.5s41.166 15.5 59.499 27.5s35 27 50 45s27.167 38.333 36.5 61h3zM383.999 432.002
c0 16 -3.16797 30.332 -9.50098 42.999s-15 23.5 -26 32.5s-23.5 15.833 -37.5 20.5s-29 7 -45 7s-32.5 -2.5 -49.5 -7.5s-33.167 -13 -48.5 -24s-29.666 -24.667 -42.999 -41s-24.333 -36.166 -33 -59.499h257c14.667 0 24.167 2.16699 28.5 6.5s6.5 11.833 6.5 22.5z" />
    <glyph glyph-name="igrave" unicode="&#xec;" horiz-adv-x="250" 
d="M114 617l-165 111c-12.667 8.66699 -20.667 18 -24 28s-3.5 19.167 -0.5 27.5s8.33301 15.333 16 21s16.167 8.5 25.5 8.5c6.66699 0 13.5 -1.66699 20.5 -5s13.167 -9.33301 18.5 -18l113 -169zM233 8v-7.99805h-213v8h60v480c0 9.33301 -1.66699 16.666 -5 21.999
s-7.83301 9.16602 -13.5 11.499s-12 3.5 -19 3.5s-14.5 -0.333008 -22.5 -1v5l153 16v-537h60z" />
    <glyph glyph-name="iacute" unicode="&#xed;" horiz-adv-x="251" 
d="M228 782c5.33301 8.66699 11.5 14.667 18.5 18s13.833 5 20.5 5c9.33301 0 17.833 -2.83301 25.5 -8.5s13 -12.667 16 -21s3 -17.5 0 -27.5s-11.167 -19.333 -24.5 -28l-165 -111l-4 4zM173 8l60 0.00195312v-8h-213v8h60v480c0 9.33301 -1.66699 16.666 -5 21.999
s-7.83301 9.16602 -13.5 11.499s-12 3.5 -19 3.5s-14.5 -0.333008 -22.5 -1v5l153 16v-537z" />
    <glyph glyph-name="icircumflex" unicode="&#xee;" horiz-adv-x="250" 
d="M271 618l-6 -6l-148 69l-147 -69l-6 6l149 157h7zM172 8l61 0.00195312v-8h-213v8h60v480c0 9.33301 -1.66699 16.666 -5 21.999s-7.83301 9.16602 -13.5 11.499s-12 3.5 -19 3.5s-14.5 -0.333008 -22.5 -1v5l152 16v-537z" />
    <glyph glyph-name="idieresis" unicode="&#xef;" horiz-adv-x="251" 
d="M59 612c-12.667 0 -23.0029 4.33301 -31.0029 13c-8.66699 8.66699 -13 19 -13 31s4.33301 22.333 13 31s19 13 31 13c12.667 0 23.334 -4.33301 32.001 -13c6.66699 -6 10.667 -13.5 12 -22.5s0.333008 -17.5 -3 -25.5c-3.33301 -8.66699 -8.66602 -15.5 -15.999 -20.5
s-15.666 -7.16699 -24.999 -6.5zM177.997 612c-12.667 0 -23.3369 4.33301 -32.0039 13s-12.667 19 -12 31c0 12.667 4.33301 23.167 13 31.5s19 12.5 31 12.5c12.667 0 23.334 -4.33301 32.001 -13c6 -6 9.83301 -13.5 11.5 -22.5s0.833984 -17.5 -2.49902 -25.5
c-3.33301 -8.66699 -8.66602 -15.5 -15.999 -20.5s-15.666 -7.16699 -24.999 -6.5zM233.994 8v-7.99805h-213v8h60v480c0 9.33301 -1.66699 16.666 -5 21.999s-7.83301 9.16602 -13.5 11.499s-12 3.5 -19 3.5s-14.5 -0.333008 -22.5 -1v5l152 16v-537h61z" />
    <glyph glyph-name="ntilde" unicode="&#xf1;" horiz-adv-x="653" 
d="M481 685c-9.33301 -26 -21.165 -43.834 -35.498 -53.501s-30.166 -14.5 -47.499 -14.5c-15.333 0 -31.5 2.83301 -48.5 8.5s-34 12 -51 19s-33.667 13.333 -50 19s-31.166 8.5 -44.499 8.5c-11.333 0 -21.833 -3 -31.5 -9s-17.167 -16.667 -22.5 -32
c-0.666992 8 0.666016 17.333 3.99902 28c9.33301 26 21.166 43.833 35.499 53.5s30.166 14.5 47.499 14.5c15.333 0 31.666 -2.83301 48.999 -8.5s34.5 -12 51.5 -19s33.5 -13.333 49.5 -19s30.667 -8.5 44 -8.5c11.333 0 21.833 3 31.5 9s17.167 16.667 22.5 32
c0.666992 -5.33301 0.5 -10.166 -0.5 -14.499s-2.16699 -8.83301 -3.5 -13.5zM647.001 47.999c-18.667 -18.667 -37.835 -32.3291 -57.502 -40.9961s-38.5 -13 -56.5 -13c-23.333 0 -42.666 7 -57.999 21s-23 33.667 -23 59v325c0 42.667 -9.66699 73.167 -29 91.5
s-43.333 27.5 -72 27.5c-28 0 -58.167 -7.83301 -90.5 -23.5s-61.166 -36.834 -86.499 -63.501v-423h60v-8h-213v8h60v480c0 9.33301 -1.66699 16.666 -5 21.999s-7.83301 9.16602 -13.5 11.499s-12 3.5 -19 3.5s-14.5 -0.333008 -22.5 -1v5l153 16v-102
c14.667 16 31 30.167 49 42.5s36.833 23 56.5 32s39.667 15.833 60 20.5s39.833 7 58.5 7c20 0 38.833 -2.83301 56.5 -8.5s33.167 -14.334 46.5 -26.001s23.833 -26.667 31.5 -45s11.5 -40.5 11.5 -66.5v-294c0 -26 4.16699 -46 12.5 -60s19.5 -21 33.5 -21
c16.667 0 35 9 55 27z" />
    <glyph glyph-name="ograve" unicode="&#xf2;" horiz-adv-x="581" 
d="M59 727c-12.667 8.66699 -20.667 18 -24 28s-3.5 19.167 -0.5 27.5s8.33301 15.333 16 21s16.167 8.5 25.5 8.5c6.66699 0 13.5 -1.66699 20.5 -5s13.167 -9.33301 18.5 -18l113 -169l-4 -4zM290 547c40.667 0 77 -7.66699 109 -23s59 -35.666 81 -60.999
s38.833 -54.833 50.5 -88.5s17.5 -69.167 17.5 -106.5c0 -36.667 -5.83301 -71.834 -17.5 -105.501s-28.5 -63.334 -50.5 -89.001s-49 -46 -81 -61s-68.333 -22.5 -109 -22.5s-77 7.5 -109 22.5s-59 35.333 -81 61s-38.833 55.334 -50.5 89.001s-17.5 68.834 -17.5 105.501
c0 37.333 5.83301 72.833 17.5 106.5s28.5 63.167 50.5 88.5s49 45.666 81 60.999s68.333 23 109 23zM355 9c27.333 1.33301 49.499 10.001 66.499 26.001s29.667 36.5 38 61.5s12.5 53.167 12.5 84.5s-3.83301 63.166 -11.5 95.499s-18.5 63.833 -32.5 94.5
s-31 57.834 -51 81.501s-42.667 42.334 -68 56.001s-52.666 19.834 -81.999 18.501c-26.667 -1.33301 -48.5 -9.83301 -65.5 -25.5s-29.833 -36 -38.5 -61s-13.167 -53.333 -13.5 -85s3 -63.667 10 -96s17.333 -63.833 31 -94.5s30.5 -57.834 50.5 -81.501
s43 -42.334 69 -56.001s54.333 -19.834 85 -18.501z" />
    <glyph glyph-name="oacute" unicode="&#xf3;" horiz-adv-x="581" 
d="M248 616l-4 4l113 169c5.33301 8.66699 11.5 14.667 18.5 18s13.833 5 20.5 5c9.33301 0 17.833 -2.83301 25.5 -8.5s13 -12.667 16 -21s3 -17.5 0 -27.5s-11.167 -19.333 -24.5 -28zM290 547c40.667 0 77 -7.66699 109 -23s59 -35.666 81 -60.999
s38.833 -54.833 50.5 -88.5s17.5 -69.167 17.5 -106.5c0 -36.667 -5.83301 -71.834 -17.5 -105.501s-28.5 -63.334 -50.5 -89.001s-49 -46 -81 -61s-68.333 -22.5 -109 -22.5s-77 7.5 -109 22.5s-59 35.333 -81 61s-38.833 55.334 -50.5 89.001s-17.5 68.834 -17.5 105.501
c0 37.333 5.83301 72.833 17.5 106.5s28.5 63.167 50.5 88.5s49 45.666 81 60.999s68.333 23 109 23zM355 9c27.333 1.33301 49.499 10.001 66.499 26.001s29.667 36.5 38 61.5s12.5 53.167 12.5 84.5s-3.83301 63.166 -11.5 95.499s-18.5 63.833 -32.5 94.5
s-31 57.834 -51 81.501s-42.667 42.334 -68 56.001s-52.666 19.834 -81.999 18.501c-26.667 -1.33301 -48.5 -9.83301 -65.5 -25.5s-29.833 -36 -38.5 -61s-13.167 -53.333 -13.5 -85s3 -63.667 10 -96s17.333 -63.833 31 -94.5s30.5 -57.834 50.5 -81.501
s43 -42.334 69 -56.001s54.333 -19.834 85 -18.501z" />
    <glyph glyph-name="ocircumflex" unicode="&#xf4;" horiz-adv-x="581" 
d="M122 616l-6 6l149 157h7l151 -157l-6 -6l-148 69zM290 547c40.667 0 77 -7.66699 109 -23s59 -35.666 81 -60.999s38.833 -54.833 50.5 -88.5s17.5 -69.167 17.5 -106.5c0 -36.667 -5.83301 -71.834 -17.5 -105.501s-28.5 -63.334 -50.5 -89.001s-49 -46 -81 -61
s-68.333 -22.5 -109 -22.5s-77 7.5 -109 22.5s-59 35.333 -81 61s-38.833 55.334 -50.5 89.001s-17.5 68.834 -17.5 105.501c0 37.333 5.83301 72.833 17.5 106.5s28.5 63.167 50.5 88.5s49 45.666 81 60.999s68.333 23 109 23zM355 9
c27.333 1.33301 49.499 10.001 66.499 26.001s29.667 36.5 38 61.5s12.5 53.167 12.5 84.5s-3.83301 63.166 -11.5 95.499s-18.5 63.833 -32.5 94.5s-31 57.834 -51 81.501s-42.667 42.334 -68 56.001s-52.666 19.834 -81.999 18.501
c-26.667 -1.33301 -48.5 -9.83301 -65.5 -25.5s-29.833 -36 -38.5 -61s-13.167 -53.333 -13.5 -85s3 -63.667 10 -96s17.333 -63.833 31 -94.5s30.5 -57.834 50.5 -81.501s43 -42.334 69 -56.001s54.333 -19.834 85 -18.501z" />
    <glyph glyph-name="otilde" unicode="&#xf5;" horiz-adv-x="581" 
d="M453 684c-9.33301 -26 -21.166 -43.834 -35.499 -53.501s-30.166 -14.5 -47.499 -14.5c-15.333 0 -31.5 2.83301 -48.5 8.5s-34 12 -51 19s-33.5 13.333 -49.5 19s-30.667 8.5 -44 8.5c-11.333 0 -21.833 -3 -31.5 -9s-17.167 -16.667 -22.5 -32
c-1.33301 10.667 0 19.667 4 27c9.33301 26 21.166 44 35.499 54s30.166 15 47.499 15c16 0 32.5 -2.83301 49.5 -8.5s34 -12 51 -19s33.5 -13.333 49.5 -19s30.667 -8.5 44 -8.5c11.333 0 21.833 3 31.5 9s17.167 16.667 22.5 32c0 -11.333 -1.66699 -20.666 -5 -27.999z
M290 546.999c40.667 0 77 -7.66699 109 -23s59 -35.666 81 -60.999s38.833 -54.833 50.5 -88.5s17.5 -69.167 17.5 -106.5c0 -36.667 -5.83301 -71.834 -17.5 -105.501s-28.5 -63.334 -50.5 -89.001s-49 -46 -81 -61s-68.333 -22.5 -109 -22.5s-77 7.5 -109 22.5
s-59 35.333 -81 61s-38.833 55.334 -50.5 89.001s-17.5 68.834 -17.5 105.501c0 37.333 5.83301 72.833 17.5 106.5s28.5 63.167 50.5 88.5s49 45.666 81 60.999s68.333 23 109 23zM355 8.99902c27.333 1.33301 49.499 10.001 66.499 26.001s29.667 36.5 38 61.5
s12.5 53.167 12.5 84.5s-3.83301 63.166 -11.5 95.499s-18.5 63.833 -32.5 94.5s-31 57.834 -51 81.501s-42.667 42.334 -68 56.001s-52.666 19.834 -81.999 18.501c-26.667 -1.33301 -48.5 -9.83301 -65.5 -25.5s-29.833 -36 -38.5 -61s-13.167 -53.333 -13.5 -85
s3 -63.667 10 -96s17.333 -63.833 31 -94.5s30.5 -57.834 50.5 -81.501s43 -42.334 69 -56.001s54.333 -19.834 85 -18.501z" />
    <glyph glyph-name="odieresis" unicode="&#xf6;" horiz-adv-x="581" 
d="M215 616c-11.333 0 -22.0039 4.33594 -32.0039 13.0029c-8.66699 8.66699 -13 19 -13 31c0 12.667 4.5 23.167 13.5 31.5s19.5 12.5 31.5 12.5c12.667 0 23.334 -4 32.001 -12c6 -6.66699 9.83301 -14.334 11.5 -23.001s0.833984 -17.334 -2.49902 -26.001
s-8.66602 -15.334 -15.999 -20.001s-15.666 -7 -24.999 -7zM332.996 616.003c-12 0 -22.335 4.33594 -31.002 13.0029s-13 19 -13 31s4.5 22.333 13.5 31s19.5 13 31.5 13s22.333 -4 31 -12c6.66699 -6.66699 10.667 -14.334 12 -23.001s0.333008 -17.334 -3 -26.001
s-8.66602 -15.334 -15.999 -20.001s-15.666 -7 -24.999 -7zM289.994 547.006c40.667 0 77 -7.66699 109 -23s59 -35.666 81 -60.999s38.833 -54.833 50.5 -88.5s17.5 -69.167 17.5 -106.5c0 -36.667 -5.83301 -71.834 -17.5 -105.501s-28.5 -63.334 -50.5 -89.001
s-49 -46 -81 -61s-68.333 -22.5 -109 -22.5s-77 7.5 -109 22.5s-59 35.333 -81 61s-38.833 55.334 -50.5 89.001s-17.5 68.834 -17.5 105.501c0 37.333 5.83301 72.833 17.5 106.5s28.5 63.167 50.5 88.5s49 45.666 81 60.999s68.333 23 109 23zM354.994 9.00586
c27.333 1.33301 49.499 10.001 66.499 26.001s29.667 36.5 38 61.5s12.5 53.167 12.5 84.5s-3.83301 63.166 -11.5 95.499s-18.5 63.833 -32.5 94.5s-31 57.834 -51 81.501s-42.667 42.334 -68 56.001s-52.666 19.834 -81.999 18.501
c-26.667 -1.33301 -48.5 -9.83301 -65.5 -25.5s-29.833 -36 -38.5 -61s-13.167 -53.333 -13.5 -85s3 -63.667 10 -96s17.333 -63.833 31 -94.5s30.5 -57.834 50.5 -81.501s43 -42.334 69 -56.001s54.333 -19.834 85 -18.501z" />
    <glyph glyph-name="oslash" unicode="&#xf8;" horiz-adv-x="581" 
d="M434 504c37.333 -25.333 65.668 -58.8311 85.001 -100.498s29 -86.834 29 -135.501c0 -36.667 -5.83301 -71.834 -17.5 -105.501s-28.5 -63.334 -50.5 -89.001s-49 -46 -81 -61s-68.333 -22.5 -109 -22.5c-23.333 -0.666992 -46.5 2.16602 -69.5 8.49902
s-44.833 15.5 -65.5 27.5l-75 -129h-13l79 135c-36.667 25.333 -64.834 59 -84.501 101s-29.5 87 -29.5 135c0 37.333 5.83301 72.833 17.5 106.5s28.5 63.334 50.5 89.001s49 46 81 61s68.333 22.5 109 22.5c48 0.666992 93 -11.666 135 -36.999l76 130h13z
M227.002 527.002c-25.333 -1.33301 -46.335 -9.33203 -63.002 -23.999s-29.5 -33.5 -38.5 -56.5s-14.167 -49.333 -15.5 -79s0.833984 -60 6.50098 -91s14.334 -61.667 26.001 -92s26.5 -57.833 44.5 -82.5l198 340c-20.667 27.333 -44.167 48.666 -70.5 63.999
s-55.5 22.333 -87.5 21zM355 10.0029c26 1.33301 47.3311 9.16895 63.998 23.502s29.334 33.166 38.001 56.499s13.5 49.666 14.5 78.999s-1.33301 59.5 -7 90.5s-14.667 61.5 -27 91.5s-27.166 57.333 -44.499 82l-199 -340c20.667 -26 44.5 -46.833 71.5 -62.5
s56.833 -22.5 89.5 -20.5z" />
    <glyph glyph-name="ugrave" unicode="&#xf9;" horiz-adv-x="671" 
d="M132 726c-12.667 8.66699 -20.668 18 -24.001 28s-3.33301 19.167 0 27.5s8.83301 15.333 16.5 21s16.167 8.5 25.5 8.5c14.667 0 27.334 -7.66699 38.001 -23l113 -169l-3 -4zM663.999 48c-18 -18.667 -37 -32.3281 -57 -40.9951s-39 -13 -57 -13
c-22.667 0 -41.834 7 -57.501 21s-23.5 33.667 -23.5 59v109c-4.66699 -32 -13.834 -59.833 -27.501 -83.5s-30 -43.5 -49 -59.5s-39.667 -27.833 -62 -35.5s-45.166 -11.5 -68.499 -11.5c-24 0 -47.167 4.16699 -69.5 12.5s-42.166 20.666 -59.499 36.999
s-31.166 36.666 -41.499 60.999s-15.5 52.5 -15.5 84.5h-1v300c0 9.33301 -1.66699 16.666 -5 21.999s-7.83301 9.16602 -13.5 11.499s-12 3.5 -19 3.5s-14.5 -0.333008 -22.5 -1v5l153 16v-357c0 -24.667 4 -46.834 12 -66.501s18.667 -36.167 32 -49.5
s28.666 -23.666 45.999 -30.999s35 -11 53 -11c19.333 0 38.333 4.33301 57 13s35.5 22.334 50.5 41.001s27.167 42.167 36.5 70.5s14 62.5 14 102.5v231c0 9.33301 -1.66699 16.666 -5 21.999s-7.83301 9.16602 -13.5 11.499s-12 3.5 -19 3.5s-14.5 -0.333008 -22.5 -1v5
l153 16v-440c0 -26 4.16699 -46 12.5 -60s19.5 -21 33.5 -21c16.667 0 35 9 55 27z" />
    <glyph glyph-name="uacute" unicode="&#xfa;" horiz-adv-x="671" 
d="M321 615l-3.00098 4l113 169c10.667 15.333 23.334 23 38.001 23c9.33301 0 17.833 -2.83301 25.5 -8.5s13.167 -12.667 16.5 -21s3.33301 -17.5 0 -27.5s-11.333 -19.333 -24 -28zM663.999 48c-18 -18.667 -37 -32.3281 -57 -40.9951s-39 -13 -57 -13
c-22.667 0 -41.834 7 -57.501 21s-23.5 33.667 -23.5 59v109c-4.66699 -32 -13.834 -59.833 -27.501 -83.5s-30 -43.5 -49 -59.5s-39.667 -27.833 -62 -35.5s-45.166 -11.5 -68.499 -11.5c-24 0 -47.167 4.16699 -69.5 12.5s-42.166 20.666 -59.499 36.999
s-31.166 36.666 -41.499 60.999s-15.5 52.5 -15.5 84.5h-1v300c0 9.33301 -1.66699 16.666 -5 21.999s-7.83301 9.16602 -13.5 11.499s-12 3.5 -19 3.5s-14.5 -0.333008 -22.5 -1v5l153 16v-357c0 -24.667 4 -46.834 12 -66.501s18.667 -36.167 32 -49.5
s28.666 -23.666 45.999 -30.999s35 -11 53 -11c19.333 0 38.333 4.33301 57 13s35.5 22.334 50.5 41.001s27.167 42.167 36.5 70.5s14 62.5 14 102.5v231c0 9.33301 -1.66699 16.666 -5 21.999s-7.83301 9.16602 -13.5 11.499s-12 3.5 -19 3.5s-14.5 -0.333008 -22.5 -1v5
l153 16v-440c0 -26 4.16699 -46 12.5 -60s19.5 -21 33.5 -21c16.667 0 35 9 55 27z" />
    <glyph glyph-name="ucircumflex" unicode="&#xfb;" horiz-adv-x="671" 
d="M162 623l-6 6l149 157h7l151 -157l-5 -6l-148 69zM664 48c-18 -18.667 -37 -32.3281 -57 -40.9951s-39 -13 -57 -13c-22.667 0 -41.834 7 -57.501 21s-23.5 33.667 -23.5 59v109c-4.66699 -32 -13.834 -59.833 -27.501 -83.5s-30 -43.5 -49 -59.5
s-39.667 -27.833 -62 -35.5s-45.166 -11.5 -68.499 -11.5c-24 0 -47.167 4.16699 -69.5 12.5s-42.166 20.666 -59.499 36.999s-31.166 36.666 -41.499 60.999s-15.5 52.5 -15.5 84.5h-1v300c0 9.33301 -1.66699 16.666 -5 21.999s-7.83301 9.16602 -13.5 11.499
s-12 3.5 -19 3.5s-14.5 -0.333008 -22.5 -1v5l153 16v-357c0 -24.667 4 -46.834 12 -66.501s18.667 -36.167 32 -49.5s28.666 -23.666 45.999 -30.999s35 -11 53 -11c19.333 0 38.333 4.33301 57 13s35.5 22.334 50.5 41.001s27.167 42.167 36.5 70.5s14 62.5 14 102.5v231
c0 9.33301 -1.66699 16.666 -5 21.999s-7.83301 9.16602 -13.5 11.499s-12 3.5 -19 3.5s-14.5 -0.333008 -22.5 -1v5l153 16v-440c0 -26 4.16699 -46 12.5 -60s19.5 -21 33.5 -21c16.667 0 35 9 55 27z" />
    <glyph glyph-name="udieresis" unicode="&#xfc;" horiz-adv-x="671" 
d="M250 615c-11.333 0 -22.0039 4.33496 -32.0039 13.002c-8 9.33301 -12 20 -12 32s4.33301 22.333 13 31s19 13 31 13c12.667 0 23.334 -4.33301 32.001 -13c6 -6.66699 9.83301 -14.334 11.5 -23.001s0.833984 -17.334 -2.49902 -26.001
c-3.33301 -8 -8.66602 -14.5 -15.999 -19.5s-15.666 -7.5 -24.999 -7.5zM367.996 615.002c-12 0 -22.333 4.33301 -31 13c-8.66699 10 -13 20.667 -13 32c0 12 4.5 22.333 13.5 31s19.5 13 31.5 13c12.667 0 23 -4.33301 31 -13c14 -14 17.333 -30.333 10 -49
c-3.33301 -8 -8.83301 -14.5 -16.5 -19.5s-16.167 -7.5 -25.5 -7.5zM663.996 48.002c-18 -18.667 -37 -32.3281 -57 -40.9951s-39 -13 -57 -13c-22.667 0 -41.834 7 -57.501 21s-23.5 33.667 -23.5 59v109c-4.66699 -32 -13.834 -59.833 -27.501 -83.5s-30 -43.5 -49 -59.5
s-39.667 -27.833 -62 -35.5s-45.166 -11.5 -68.499 -11.5c-24 0 -47.167 4.16699 -69.5 12.5s-42.166 20.666 -59.499 36.999s-31.166 36.666 -41.499 60.999s-15.5 52.5 -15.5 84.5h-1v300c0 9.33301 -1.66699 16.666 -5 21.999s-7.83301 9.16602 -13.5 11.499
s-12 3.5 -19 3.5s-14.5 -0.333008 -22.5 -1v5l153 16v-357c0 -24.667 4 -46.834 12 -66.501s18.667 -36.167 32 -49.5s28.666 -23.666 45.999 -30.999s35 -11 53 -11c19.333 0 38.333 4.33301 57 13s35.5 22.334 50.5 41.001s27.167 42.167 36.5 70.5s14 62.5 14 102.5v231
c0 9.33301 -1.66699 16.666 -5 21.999s-7.83301 9.16602 -13.5 11.499s-12 3.5 -19 3.5s-14.5 -0.333008 -22.5 -1v5l153 16v-440c0 -26 4.16699 -46 12.5 -60s19.5 -21 33.5 -21c16.667 0 35 9 55 27z" />
    <glyph glyph-name="yacute" unicode="&#xfd;" horiz-adv-x="502" 
d="M120 726c-12.667 8.66699 -20.667 18 -24 28s-3.5 19.167 -0.5 27.5s8.33301 15.333 16 21s16.167 8.5 25.5 8.5c15.333 0 28.333 -7.66699 39 -23l113 -169l-4 -4zM398 529c0 17.333 4.67188 30.166 14.0049 38.499s19.666 12.5 30.999 12.5c8 0 15.5 -2 22.5 -6
s12.5 -9.83301 16.5 -17.5s6 -17.334 6 -29.001s-3 -25.5 -9 -41.5l-188 -464c-10 -25.333 -22.333 -52.833 -37 -82.5s-33.334 -57.167 -56.001 -82.5s-50 -46.333 -82 -63s-70.333 -25 -115 -25c-26 0 -44.5 5.66699 -55.5 17s-15.833 23.5 -14.5 36.5
s8.16602 24.167 20.499 33.5s28.833 12 49.5 8c30 -6 56.667 -9 80 -9c30 0 55.167 4.16699 75.5 12.5s37.5 19.333 51.5 33s25.5 28.834 34.5 45.501s16.833 33.334 23.5 50.001l-202 494c-4 10 -8 17.667 -12 23s-8.16699 9.16602 -12.5 11.499s-9.5 3.5 -15.5 3.5
s-13 -0.333008 -21 -1v5l140 13l173 -423l41 100l37 91c8.66699 22 13.667 42.833 15 62.5s1.16602 38.334 -0.500977 56.001s-3.83398 34.667 -6.50098 51s-4 31.833 -4 46.5z" />
    <glyph glyph-name="ydieresis" unicode="&#xff;" horiz-adv-x="502" 
d="M215 614c-12.667 0 -23.1709 4.33301 -31.5039 13s-12.5 19 -12.5 31s4.33301 22.333 13 31s19 13 31 13c12.667 0 23.334 -4.33301 32.001 -13c6 -6 9.83301 -13.5 11.5 -22.5s0.833984 -17.5 -2.49902 -25.5c-3.33301 -8.66699 -8.66602 -15.5 -15.999 -20.5
s-15.666 -7.16699 -24.999 -6.5zM332.996 614c-12 0 -22.335 4.33301 -31.002 13s-13 19 -13 31s4.5 22.333 13.5 31s19.5 13 31.5 13c12.667 0 23 -4.33301 31 -13c6.66699 -6 10.834 -13.5 12.501 -22.5s0.833984 -17.5 -2.49902 -25.5
c-3.33301 -8.66699 -8.83301 -15.5 -16.5 -20.5s-16.167 -7.16699 -25.5 -6.5zM397.994 529c0 17.333 4.67188 30.166 14.0049 38.499s19.666 12.5 30.999 12.5c8 0 15.5 -2 22.5 -6s12.5 -9.83301 16.5 -17.5s6 -17.334 6 -29.001s-3 -25.5 -9 -41.5l-188 -464
c-10 -25.333 -22.333 -52.833 -37 -82.5s-33.334 -57.167 -56.001 -82.5s-50 -46.333 -82 -63s-70.333 -25 -115 -25c-26 0 -44.5 5.66699 -55.5 17s-15.833 23.5 -14.5 36.5s8.16602 24.167 20.499 33.5s28.833 12 49.5 8c30 -6 56.667 -9 80 -9
c30 0 55.167 4.16699 75.5 12.5s37.5 19.333 51.5 33s25.5 28.834 34.5 45.501s16.833 33.334 23.5 50.001l-202 494c-4 10 -8 17.667 -12 23s-8.16699 9.16602 -12.5 11.499s-9.5 3.5 -15.5 3.5s-13 -0.333008 -21 -1v5l140 13l173 -423l41 100l37 91
c8.66699 22 13.667 42.833 15 62.5s1.16602 38.334 -0.500977 56.001s-3.83398 34.667 -6.50098 51s-4 31.833 -4 46.5z" />
    <glyph glyph-name="dotlessi" unicode="&#x131;" horiz-adv-x="252" 
d="M234 7v-6.99902h-213v7h60v480c0 10 -1.66699 17.667 -5 23s-7.83301 9.16602 -13.5 11.499s-12 3.5 -19 3.5s-14.5 -0.333008 -22.5 -1v5l153 16v-538h60z" />
    <glyph glyph-name="OE" unicode="&#x152;" horiz-adv-x="938" 
d="M913 150l-10 -150.006h-534c-56.667 -0.666992 -106.167 8.83301 -148.5 28.5s-77.666 45.834 -105.999 78.501s-49.5 69.834 -63.5 111.501s-21 84.334 -21 128.001s7 86.667 21 129s35.167 80 63.5 113s63.666 59.667 105.999 80s91.833 30.833 148.5 31.5l1 -1v1h508
v-3l9 -160l-5 -1c-3.33301 18.667 -7.33301 37.334 -12 56.001s-11.834 35.334 -21.501 50.001s-22.834 26.5 -39.501 35.5s-38.334 13.5 -65.001 13.5h-186v-331h157c16.667 0 29.834 2.83301 39.501 8.5s16.834 12.834 21.501 21.501s7.5 18.167 8.5 28.5
s1.5 20.5 1.5 30.5h6l-5 -184h-7c0 12.667 -0.166992 24.334 -0.5 35.001s-2.5 19.667 -6.5 27s-10.5 13.166 -19.5 17.499s-21.833 6.5 -38.5 6.5h-157v-343h214l-2 1c26.667 0 48.167 3.83301 64.5 11.5s29.333 18 39 31s16.834 28.167 21.501 45.5s8.66699 35.333 12 54z
M465 690.994l-95 0.00195312v1l-1 -1c-38.667 0 -72.5 -9.83301 -101.5 -29.5s-53.167 -45.5 -72.5 -77.5s-33.833 -68.333 -43.5 -109s-14.5 -82.334 -14.5 -125.001s4.83301 -84.334 14.5 -125.001s24.167 -77 43.5 -109s43.5 -57.833 72.5 -77.5
s62.833 -29.5 101.5 -29.5h96v682z" />
    <glyph glyph-name="oe" unicode="&#x153;" horiz-adv-x="1001" 
d="M983 207c-7.33301 -36 -19.333 -67.666 -36 -94.999s-36.167 -50 -58.5 -68s-46.833 -31.667 -73.5 -41s-53.667 -14 -81 -14c-44 0 -85.667 12 -125 36s-69.333 60 -90 108c-10 -22 -23 -42 -39 -60s-34 -33.333 -54 -46s-41.5 -22.167 -64.5 -28.5
s-46.833 -9.16602 -71.5 -8.49902c-40.667 0 -77 7.5 -109 22.5s-59 35.333 -81 61s-38.833 55.334 -50.5 89.001s-17.5 68.834 -17.5 105.501c0 37.333 5.83301 72.833 17.5 106.5s28.5 63.167 50.5 88.5s49 45.666 81 60.999s68.333 23 109 23
c24.667 0.666992 48.667 -2.33301 72 -9s45 -16.334 65 -29.001s38 -28 54 -46s29 -38.333 39 -61c10.667 26 24.167 48.167 40.5 66.5s34.333 33.166 54 44.499s40.167 19.666 61.5 24.999s42.666 8 63.999 8c23.333 0 45.833 -2.83301 67.5 -8.5s40.667 -13.5 57 -23.5
s29.333 -22 39 -36s14.5 -29 14.5 -45c0 -11.333 -3 -19.833 -9 -25.5s-13.167 -9.66699 -21.5 -12s-17.166 -3.66602 -26.499 -3.99902s-17.333 -0.833008 -24 -1.5l-287 1c-2.66699 -13.333 -4 -28.333 -4 -45c0 -48.667 6.33301 -90.834 19 -126.501s29.5 -65 50.5 -88
s44.833 -40 71.5 -51s54 -16.5 82 -16.5c43.333 0 84.5 12.333 123.5 37s68.167 60 87.5 106h3zM845 432.001c0 16 -3.16797 30.332 -9.50098 42.999s-15 23.5 -26 32.5s-23.5 15.833 -37.5 20.5s-29 7 -45 7s-32.5 -2.5 -49.5 -7.5s-33.167 -13 -48.5 -24
s-29.666 -24.667 -42.999 -41s-24.333 -36.166 -33 -59.499h257c14.667 0 24.167 2.16699 28.5 6.5s6.5 11.833 6.5 22.5zM354.999 10c27.333 1.33301 49.499 9.83203 66.499 25.499s29.667 36 38 61s12.5 53.167 12.5 84.5s-3.83301 63.166 -11.5 95.499
s-18.5 63.833 -32.5 94.5s-31 57.834 -51 81.501s-42.667 42.334 -68 56.001s-52.666 19.834 -81.999 18.501c-26.667 -1.33301 -48.5 -9.83301 -65.5 -25.5s-29.833 -36 -38.5 -61s-13.167 -53.333 -13.5 -85s3 -63.667 10 -96s17.333 -63.833 31 -94.5
s30.5 -57.667 50.5 -81s43 -41.833 69 -55.5s54.333 -19.834 85 -18.501z" />
    <glyph glyph-name="Scaron" unicode="&#x160;" horiz-adv-x="577" 
d="M285 795l-149 157l6 6l147 -69l148 69l6 -6l-151 -157h-7zM82 578c0 -26.667 6.6748 -49.332 20.0078 -67.999s31 -34.834 53 -48.501s47.167 -25.667 75.5 -36s57.166 -20.333 86.499 -30l86.5 -29.5c28.333 -10 53.5 -21.667 75.5 -35s39.667 -29.166 53 -47.499
s20 -40.5 20 -66.5c0 -42.667 -8 -78.834 -24 -108.501s-37.333 -53.667 -64 -72s-57.167 -31.5 -91.5 -39.5s-70.166 -12 -107.499 -12c-34 0 -67.5 2.83301 -100.5 8.5s-64.5 13.5 -94.5 23.5c-17.333 6 -29.333 14.667 -36 26s-9 22.666 -7 33.999
s7.83301 21.166 17.5 29.499s21.5 12.5 35.5 12.5c11.333 0 22.333 -2.66699 33 -8c44 -21.333 88.5 -37.666 133.5 -48.999s86.833 -17 125.5 -17c22 0 42.167 2 60.5 6s34.166 10 47.499 18s23.666 18.333 30.999 31s11 27.334 11 44.001
c0 29.333 -11.833 53.333 -35.5 72s-53.334 34.834 -89.001 48.501s-74.167 26.334 -115.5 38.001s-79.833 25.5 -115.5 41.5s-65.334 35.333 -89.001 58s-35.5 52 -35.5 88c0 43.333 6.66699 79.5 20 108.5s31.166 52.333 53.499 70s47.833 30.167 76.5 37.5s58 11 88 11
c36 0 71.167 -4.16699 105.5 -12.5s64.166 -18.5 89.499 -30.5c14 -6.66699 23.5 -14.834 28.5 -24.501s6.66699 -19.167 5 -28.5s-6.33398 -17.333 -14.001 -24s-17.5 -10 -29.5 -10c-12.667 0 -26.334 4.33301 -41.001 13c-38 23.333 -77.667 42.5 -119 57.5
s-79 22.5 -113 22.5c-32 0 -58.333 -7.83301 -79 -23.5s-31 -41.834 -31 -78.501z" />
    <glyph glyph-name="scaron" unicode="&#x161;" horiz-adv-x="450" 
d="M229 615l-148 157l6 6l147 -69l148 69l6 -6l-151 -157h-8zM82 445c0 -22 8.3291 -40.501 24.9961 -55.501s37.334 -28.333 62.001 -40s51.5 -22.667 80.5 -33s55.833 -22 80.5 -35s45.334 -28.333 62.001 -46s25 -39.5 25 -65.5c0 -32 -5.16699 -59.5 -15.5 -82.5
s-24.166 -41.833 -41.499 -56.5s-37.5 -25.5 -60.5 -32.5s-47.167 -10.5 -72.5 -10.5c-29.333 0 -58.833 4.16699 -88.5 12.5s-57.167 20.166 -82.5 35.499c-12 7.33301 -20 16 -24 26s-5 19.5 -3 28.5s6.66699 16.833 14 23.5s16.333 10 27 10
c11.333 0 23.666 -4.33301 36.999 -13c32.667 -22 65.334 -38.333 98.001 -49s63 -16 91 -16c30 0 54.5 6 73.5 18s28.833 28.667 29.5 50c0.666992 17.333 -7.5 32.166 -24.5 44.499s-38.5 23.833 -64.5 34.5s-54 21.167 -84 31.5s-58 22.5 -84 36.5s-47.667 30.333 -65 49
s-26 41.334 -26 68.001c0 32.667 5.33301 59.834 16 81.501s24.5 39 41.5 52s36.333 22.167 58 27.5s43.5 8 65.5 8c28 0 54.667 -3.16699 80 -9.5s45.666 -14.166 60.999 -23.499c10.667 -6 17.834 -13.667 21.501 -23s4.5 -18.333 2.5 -27s-6.5 -16.167 -13.5 -22.5
s-15.833 -9.5 -26.5 -9.5c-9.33301 0 -19.666 3 -30.999 9l-44.5 27c-13.667 8.66699 -27.334 16.167 -41.001 22.5s-28 11.5 -43 15.5s-31.5 6 -49.5 6c-21.333 0 -37.666 -5.66699 -48.999 -17s-17 -28 -17 -50z" />
    <glyph glyph-name="Ydieresis" unicode="&#x178;" horiz-adv-x="745" 
d="M348 788c-12 0 -22.335 4.33789 -31.002 13.0049s-13 19 -13 31c0 9.33301 2.5 17.666 7.5 24.999s11.833 12.666 20.5 15.999c5.33301 2 11 3 17 3c12 0 22.333 -4 31 -12c6.66699 -6.66699 10.667 -14.334 12 -23.001s0.333008 -17.334 -3 -26.001
s-8.66602 -15.334 -15.999 -20.001s-15.666 -7 -24.999 -7zM466.998 788.005c-12.667 0 -23.3369 4.33594 -32.0039 13.0029s-12.667 19 -12 31c0 13.333 4.16699 24 12.5 32s18.833 12 31.5 12s23.334 -4 32.001 -12c6 -6.66699 9.83301 -14.334 11.5 -23.001
s0.833984 -17.334 -2.49902 -26.001s-8.66602 -15.334 -15.999 -20.001s-15.666 -7 -24.999 -7zM749.995 700.008l-0.00292969 -7c-20 0 -37.667 -1.66699 -53 -5s-30.666 -10.666 -45.999 -21.999s-31.666 -27.833 -48.999 -49.5s-38 -51.167 -62 -88.5l-128 -201v-320h59
v-7h-213v7h61v307h-1l-234 378h-90v8h279v-8h-81l213 -347h1l137 213c32.667 51.333 46.334 86.666 41.001 105.999s-31 29 -77 29v7h243z" />
    <glyph glyph-name="zcaron" unicode="&#x17e;" horiz-adv-x="468" 
d="M228 624l-149 157l6 7l148 -70l147 69l6 -6l-151 -157h-7zM445 532l-318.001 -519.999h204c17.333 0 31.666 0.666992 42.999 2s20.833 5.33301 28.5 12s13.667 17.167 18 31.5s8.5 34.166 12.5 59.499h6l-11 -117h-408v11l321 519h-197
c-17.333 0 -31.666 -0.666992 -42.999 -2s-20.666 -5.33301 -27.999 -12s-13.333 -17 -18 -31s-9 -33.667 -13 -59h-6l11 116h398v-10z" />
    <glyph glyph-name="circumflex" unicode="&#x2c6;" horiz-adv-x="371" 
d="M339 546l-6 -6l-148 69l-147 -70l-6 7l149 157h7z" />
    <glyph glyph-name="caron" unicode="&#x2c7;" horiz-adv-x="373" 
d="M340 696l-151 -157h-7l-149 157l6 7l147 -70l148 69z" />
    <glyph glyph-name="ring" unicode="&#x2da;" horiz-adv-x="298" 
d="M149 670c24.667 0 45.6689 -8.66895 63.002 -26.002s26 -38.333 26 -63s-8.66699 -45.667 -26 -63s-38.333 -26 -63 -26s-45.667 8.66699 -63 26c-12.667 12.667 -20.834 27.834 -24.501 45.501s-1.83398 34.834 5.49902 51.501s18.333 30 33 40s31 15 49 15z
M149.002 511.998c19.333 0 35.6689 6.66992 49.002 20.0029s20 29.666 20 48.999s-6.66699 35.666 -20 48.999s-29.333 20 -48 20s-35.334 -6.66699 -50.001 -20c-10 -10 -16.333 -21.833 -19 -35.5s-1.33398 -27.167 3.99902 -40.5
c5.33301 -12.667 13.833 -22.834 25.5 -30.501s24.5 -11.5 38.5 -11.5z" />
    <glyph glyph-name="tilde" unicode="&#x2dc;" horiz-adv-x="408" 
d="M371 650c1.33301 -10.667 0 -20 -4 -28c-9.33301 -26 -21.166 -43.833 -35.499 -53.5s-30.166 -14.5 -47.499 -14.5c-15.333 0 -31.5 2.83301 -48.5 8.5s-34 12 -51 19s-33.667 13.333 -50 19s-31.166 8.5 -44.499 8.5c-11.333 0 -21.833 -3 -31.5 -9
s-17.167 -16.667 -22.5 -32c-0.666992 8.66699 1 18 5 28c9.33301 26 21.166 43.833 35.499 53.5s30.166 14.5 47.499 14.5c15.333 0 31.5 -2.83301 48.5 -8.5s34 -12 51 -19s33.5 -13.333 49.5 -19s30.667 -8.5 44 -8.5c12 0 22.667 3 32 9s16.666 16.667 21.999 32z" />
    <glyph glyph-name="endash" unicode="&#x2013;" horiz-adv-x="483" 
d="M21 297v14h440v-14h-440z" />
    <glyph glyph-name="emdash" unicode="&#x2014;" horiz-adv-x="968" 
d="M21 297v14h925v-14h-925z" />
    <glyph glyph-name="quoteleft" unicode="&#x2018;" horiz-adv-x="156" 
d="M97 728c-9.33301 -12 -13.333 -22.333 -12 -31s4.5 -16.667 9.5 -24s10.333 -14.5 16 -21.5s8.5 -14.833 8.5 -23.5c0 -14.667 -4.33301 -25.667 -13 -33s-18 -11 -28 -11c-10.667 0 -20.167 3.83301 -28.5 11.5s-12.5 19.167 -12.5 34.5c0 9.33301 2 19 6 29
s8.83301 19.5 14.5 28.5s12 17.167 19 24.5s13.5 13 19.5 17z" />
    <glyph glyph-name="quoteright" unicode="&#x2019;" horiz-adv-x="155" 
d="M36 684c0 15.333 4.33301 26.667 13 34s18 11 28 11c10.667 0 20.167 -3.83301 28.5 -11.5s12.5 -19.5 12.5 -35.5c0 -8.66699 -2 -18 -6 -28s-8.83301 -19.5 -14.5 -28.5s-12 -17.167 -19 -24.5s-13.5 -13 -19.5 -17l-1 1c9.33301 12 13.333 22.333 12 31
s-4.5 16.5 -9.5 23.5s-10.333 14 -16 21s-8.5 14.833 -8.5 23.5z" />
    <glyph glyph-name="quotesinglbase" unicode="&#x201a;" horiz-adv-x="156" 
d="M36 70c0 15.333 4.33301 26.667 13 34s18 11 28 11c10.667 0 20.167 -3.83301 28.5 -11.5s12.5 -19.5 12.5 -35.5c0 -8.66699 -2 -18 -6 -28s-8.83301 -19.5 -14.5 -28.5s-12 -17.167 -19 -24.5s-13.5 -13 -19.5 -17l-1 1c9.33301 12 13.333 22.333 12 31
s-4.5 16.5 -9.5 23.5s-10.333 14 -16 21s-8.5 14.833 -8.5 23.5z" />
    <glyph glyph-name="quotedblleft" unicode="&#x201c;" horiz-adv-x="243" 
d="M97 728c-9.33301 -12 -13.333 -22.333 -12 -31s4.5 -16.667 9.5 -24s10.333 -14.5 16 -21.5s8.5 -14.833 8.5 -23.5c0 -14.667 -4.33301 -25.667 -13 -33s-18 -11 -28 -11c-10.667 0 -20.167 3.83301 -28.5 11.5s-12.5 19.167 -12.5 34.5c0 9.33301 2 19 6 29
s8.83301 19.5 14.5 28.5s12 17.167 19 24.5s13.5 13 19.5 17zM184 728c-9.33301 -12 -13.499 -22.333 -12.499 -31s4 -16.667 9 -24s10.5 -14.5 16.5 -21.5s9 -14.833 9 -23.5c0 -14.667 -4.33301 -25.667 -13 -33s-18.334 -11 -29.001 -11c-10 0 -19.333 3.83301 -28 11.5
s-13 19.167 -13 34.5c0 9.33301 2 19 6 29s8.83301 19.5 14.5 28.5s12 17.167 19 24.5s13.5 13 19.5 17z" />
    <glyph glyph-name="quotedblright" unicode="&#x201d;" horiz-adv-x="241" 
d="M122 684c0 15.333 4.33301 26.667 13 34s18 11 28 11c10.667 0 20.167 -3.83301 28.5 -11.5s12.5 -19.5 12.5 -35.5c0 -8.66699 -1.83301 -18 -5.5 -28s-8.5 -19.5 -14.5 -28.5s-12.333 -17.167 -19 -24.5s-13 -13 -19 -17l-2 1c9.33301 12 13.5 22.333 12.5 31
s-4 16.5 -9 23.5s-10.5 14 -16.5 21s-9 14.833 -9 23.5zM36 684.001c0 15.333 4.33301 26.667 13 34s18 11 28 11c10.667 0 20.167 -3.83301 28.5 -11.5s12.5 -19.5 12.5 -35.5c0 -8.66699 -2 -18 -6 -28s-8.83301 -19.5 -14.5 -28.5s-12 -17.167 -19 -24.5
s-13.5 -13 -19.5 -17l-1 1c9.33301 12 13.333 22.333 12 31s-4.5 16.5 -9.5 23.5s-10.333 14 -16 21s-8.5 14.833 -8.5 23.5z" />
    <glyph glyph-name="quotedblbase" unicode="&#x201e;" horiz-adv-x="242" 
d="M122 70c0 15.333 4.33301 26.667 13 34s18 11 28 11c10.667 0 20.167 -3.83301 28.5 -11.5s12.5 -19.5 12.5 -35.5c0 -8.66699 -1.83301 -18 -5.5 -28s-8.5 -19.5 -14.5 -28.5s-12.333 -17.167 -19 -24.5s-13 -13 -19 -17l-2 1c9.33301 12 13.5 22.333 12.5 31
s-4 16.5 -9 23.5s-10.5 14 -16.5 21s-9 14.833 -9 23.5zM36 70.001c0 15.333 4.33301 26.667 13 34s18 11 28 11c10.667 0 20.167 -3.83301 28.5 -11.5s12.5 -19.5 12.5 -35.5c0 -8.66699 -2 -18 -6 -28s-8.83301 -19.5 -14.5 -28.5s-12 -17.167 -19 -24.5
s-13.5 -13 -19.5 -17l-1 1c9.33301 12 13.333 22.333 12 31s-4.5 16.5 -9.5 23.5s-10.333 14 -16 21s-8.5 14.833 -8.5 23.5z" />
    <glyph glyph-name="bullet" unicode="&#x2022;" horiz-adv-x="277" 
d="M138 225c-26.667 0 -49.334 9.33301 -68.001 28s-28 41.667 -28 69c0 13.333 2.5 26 7.5 38s11.833 22.5 20.5 31.5s18.834 16 30.501 21s24.167 7.5 37.5 7.5c27.333 0 50.333 -9.5 69 -28.5s28 -42.167 28 -69.5s-9.33301 -50.333 -28 -69s-41.667 -28 -69 -28z" />
    <glyph glyph-name="ellipsis" unicode="&#x2026;" horiz-adv-x="525" 
d="M94 114c15.333 0 28.498 -5.66797 39.498 -17.001s16.5 -24.666 16.5 -39.999s-5.66699 -28.5 -17 -39.5s-24.666 -16.5 -39.999 -16.5c-7.33301 0 -14.5 1.33301 -21.5 4s-13.167 6.66699 -18.5 12c-8 8.66699 -13 18.5 -15 29.5s-1 21.833 3 32.5
c4.66699 10.667 11.834 19.167 21.501 25.5s20.167 9.5 31.5 9.5zM262.998 113.999c15.333 0 28.4971 -5.66797 39.4971 -17.001s16.5 -24.666 16.5 -39.999s-5.66699 -28.5 -17 -39.5s-24.666 -16.5 -39.999 -16.5c-16 0 -29.333 5.33301 -40 16
c-8 8.66699 -13.167 18.5 -15.5 29.5s-1.16602 21.833 3.50098 32.5s11.834 19.167 21.501 25.5s20.167 9.5 31.5 9.5zM430.995 113.998c16 0 29.499 -5.66797 40.499 -17.001s16.5 -24.666 16.5 -39.999c0 -16 -5.66699 -29.333 -17 -40s-24.666 -16 -39.999 -16
c-16 0 -29.333 5.33301 -40 16c-8 8.66699 -13.167 18.5 -15.5 29.5s-1.16602 21.833 3.50098 32.5s11.667 19.167 21 25.5s19.666 9.5 30.999 9.5z" />
    <glyph glyph-name="perthousand" unicode="&#x2030;" horiz-adv-x="903" 
d="M527 724l-434 -743h-13l434 743h13zM188 442c-32 0 -58.667 6.83301 -80 20.5s-37.333 30.5 -48 50.5s-16 42 -16 66s5.33301 46 16 66s26.667 36.833 48 50.5s48 20.5 80 20.5s58.667 -6.83301 80 -20.5s37.333 -30.5 48 -50.5s16 -42 16 -66s-5.33301 -46 -16 -66
s-26.667 -36.833 -48 -50.5s-48 -20.5 -80 -20.5zM153 703c-18 -4.66699 -31.333 -14.835 -40 -30.502s-13.334 -33.5 -14.001 -53.5s2 -40.667 8 -62s14.667 -40.333 26 -57s24.666 -29.5 39.999 -38.5s32 -11.167 50 -6.5s31.333 14.834 40 30.501
s13.334 33.334 14.001 53.001s-2 40.167 -8 61.5s-14.667 40.5 -26 57.5s-24.666 30 -39.999 39s-32 11.167 -50 6.5zM418 257.999c32 0 58.667 -6.83301 80 -20.5s37.333 -30.5 48 -50.5s16 -42 16 -66s-5.33301 -46 -16 -66s-26.667 -36.833 -48 -50.5
s-48 -20.5 -80 -20.5s-58.667 6.83301 -80 20.5s-37.333 30.5 -48 50.5s-16 42 -16 66s5.33301 46 16 66s26.667 36.833 48 50.5s48 20.5 80 20.5zM718 257.999c32 0 58.667 -6.83301 80 -20.5s37.333 -30.5 48 -50.5s16 -42 16 -66s-5.33301 -46 -16 -66
s-26.667 -36.833 -48 -50.5s-48 -20.5 -80 -20.5s-58.667 6.83301 -80 20.5s-37.333 30.5 -48 50.5s-16 42 -16 66s5.33301 46 16 66s26.667 36.833 48 50.5s48 20.5 80 20.5zM453 -3.00098c18 4.66699 31.333 14.834 40 30.501s13.334 33.5 14.001 53.5s-2 40.667 -8 62
s-14.667 40.333 -26 57s-24.666 29.5 -39.999 38.5s-32 11.167 -50 6.5s-31.333 -14.834 -40 -30.501s-13.334 -33.5 -14.001 -53.5s2 -40.667 8 -62s14.667 -40.333 26 -57s24.666 -29.5 39.999 -38.5s32 -11.167 50 -6.5zM753 -3.00098
c18 4.66699 31.3311 14.834 39.998 30.501s13.334 33.5 14.001 53.5s-2 40.667 -8 62s-14.667 40.333 -26 57s-24.666 29.5 -39.999 38.5s-32 11.167 -50 6.5s-31.167 -14.834 -39.5 -30.501s-12.833 -33.5 -13.5 -53.5s2 -40.667 8 -62s14.5 -40.333 25.5 -57
s24.167 -29.5 39.5 -38.5s32 -11.167 50 -6.5z" />
    <glyph glyph-name="guilsinglleft" unicode="&#x2039;" horiz-adv-x="210" 
d="M104 322l63 -130h-25l-103 130l103 131h25z" />
    <glyph glyph-name="guilsinglright" unicode="&#x203a;" horiz-adv-x="210" 
d="M170 322l-103 -130h-25l64 130l-64 131h25z" />
    <glyph glyph-name="Euro" unicode="&#x20ac;" horiz-adv-x="801" 
d="M755 258c-8 -44.667 -22.3389 -83.832 -43.0059 -117.499s-45 -61.667 -73 -84s-58.833 -39 -92.5 -50s-68.167 -16.5 -103.5 -16.5c-38 0 -75.167 6.5 -111.5 19.5s-69.166 32.5 -98.499 58.5s-54 58.333 -74 97s-32.333 83.667 -37 135h-83v9h82
c-0.666992 5.33301 -1 11 -1 17v18c0 31.333 3 62 9 92h-90v10h92c10 44 26 82.5 48 115.5s47.833 60.333 77.5 82s62.167 38 97.5 49s71.666 16.5 108.999 16.5c36.667 0 73.167 -5.16699 109.5 -15.5s70.833 -26.166 103.5 -47.499c22 -14 34.833 -28.833 38.5 -44.5
s1 -28.167 -8 -37.5s-22.167 -13.333 -39.5 -12s-36 11.333 -56 30c-31.333 30 -65.666 52.333 -102.999 67s-74.666 22 -111.999 22c-29.333 0 -57.666 -4.66699 -84.999 -14s-51.666 -23.5 -72.999 -42.5s-38.666 -42.5 -51.999 -70.5s-21 -60.667 -23 -98h304v-10h-305
c0 -44 5.33301 -86.333 16 -127h289v-9h-287c11.333 -38.667 27.5 -72.334 48.5 -101.001s44.667 -52.5 71 -71.5s54.833 -33.167 85.5 -42.5s61.667 -14 93 -14c28.667 0 56.834 4 84.501 12s53.5 19.833 77.5 35.5s45.5 35.167 64.5 58.5s34.5 50.666 46.5 81.999z" />
    <glyph glyph-name="trademark" unicode="&#x2122;" horiz-adv-x="400" 
d="M339 545l12.999 0.000976562v-4h-55v4h13v129l-50 -133h-3l-58 130v-96c0 -15.333 2 -24.166 6 -26.499s11.333 -3.5 22 -3.5v-4h-63v4c10.667 0 18 1.16699 22 3.5s6 11.166 6 26.499v91c0 15.333 -1.16699 24.166 -3.5 26.499s-8.83301 3.5 -19.5 3.5v4h48l54 -115
l43 115h47v-4c-5.33301 0 -9.5 -0.166992 -12.5 -0.5s-5.16699 -1.5 -6.5 -3.5s-2.16602 -5 -2.49902 -9s-0.5 -9.66699 -0.5 -17v-121zM160.999 700.001l2.00098 -37h-4c-1.33301 8.66699 -3.33301 16 -6 22s-10 9 -22 9h-17v-149h13v-5h-54v5h14v149h-17
c-12.667 0 -20.334 -3 -23.001 -9s-4.66699 -13.333 -6 -22h-4l2 37h122z" />
    <glyph glyph-name="uniF000" unicode="&#xf000;" horiz-adv-x="594" 
d="M587 48c-18 -18.667 -37.002 -32.335 -57.002 -41.002s-39 -13 -57 -13c-22.667 0 -41.834 7 -57.501 21s-23.5 33.667 -23.5 59v88c-6 -29.333 -16.5 -54.833 -31.5 -76.5s-32.333 -39.667 -52 -54s-41 -25 -64 -32s-45.833 -10.5 -68.5 -10.5
c-19.333 0 -37.833 2.66699 -55.5 8s-33.334 13 -47.001 23s-24.5 22.5 -32.5 37.5s-12 32.167 -12 51.5c0 38.667 9 69.334 27 92.001s40.333 40.5 67 53.5s55.834 23 87.501 30s60.834 14 87.501 21s49 15.5 67 25.5s27 25 27 45v48
c0 42.667 -5.83301 72.334 -17.5 89.001s-26.834 25 -45.501 25c-15.333 0 -32.166 -4.33301 -50.499 -13s-36.666 -19 -54.999 -31s-35.666 -24.167 -51.999 -36.5l-41.5 -30.5c-6.66699 -4.66699 -12.834 -7.83398 -18.501 -9.50098s-11.167 -2.5 -16.5 -2.5
c-10.667 0 -19.5 3.5 -26.5 10.5s-10.833 15.333 -11.5 25s2.33301 19.334 9 29.001s18 17.167 34 22.5c34 11.333 69 21.666 105 30.999s70.333 14 103 14c24.667 0 47.834 -3.33301 69.501 -10s40.5 -18.167 56.5 -34.5s28.5 -38 37.5 -65s13.5 -60.5 13.5 -100.5v-232
c0 -25.333 4.16699 -45.166 12.5 -59.499s19.5 -21.5 33.5 -21.5c16.667 0 35 9 55 27zM122.998 139.999c0 -19.333 2.83496 -36.165 8.50195 -50.498s13.5 -26.333 23.5 -36s21.5 -16.834 34.5 -21.501s26.5 -7 40.5 -7c18.667 0 37.667 4.16699 57 12.5
s36.666 20.666 51.999 36.999s28 37 38 62s15 54.167 15 87.5v125c-6 -13.333 -17 -24 -33 -32s-34 -15.167 -54 -21.5l-62 -19c-21.333 -6.33301 -40.833 -15 -58.5 -26s-32.334 -25.167 -44.001 -42.5s-17.5 -40 -17.5 -68z" />
    <glyph glyph-name="uniF001" unicode="&#xf001;" horiz-adv-x="598" 
d="M139 374c7.33301 29.333 18.166 55.001 32.499 77.001s30.833 40.333 49.5 55s39 25.834 61 33.501s44.333 11.5 67 11.5c27.333 0 53.833 -5.33301 79.5 -16s48.5 -27 68.5 -49s36.167 -49.667 48.5 -83s18.5 -72.666 18.5 -117.999
c0 -50.667 -7.66699 -94.334 -23 -131.001s-35.666 -67 -60.999 -91s-53.833 -41.667 -85.5 -53s-64.167 -17 -97.5 -17c-31.333 0 -62 5.16699 -92 15.5s-56.833 25.166 -80.5 44.499s-42.667 43.333 -57 72s-21.5 61.334 -21.5 98.001v563
c0 9.33301 -1.66699 16.666 -5 21.999s-7.83301 9.16602 -13.5 11.499s-12 3.5 -19 3.5s-14.5 -0.333008 -22.5 -1v5l153 17v-470zM139 195.001c0 -32 4.33496 -60.0029 13.002 -84.0029s20.167 -44.167 34.5 -60.5s30.666 -28.666 48.999 -36.999
s37.166 -12.5 56.499 -12.5c21.333 0 42.333 5 63 15s39.167 25.167 55.5 45.5s29.5 45.833 39.5 76.5s15 66.667 15 108c0 46 -4.66699 85.667 -14 119s-21.5 60.833 -36.5 82.5s-32.333 37.5 -52 47.5s-39.5 15 -59.5 15c-20.667 0 -40.834 -4.83301 -60.501 -14.5
s-37.167 -23.667 -52.5 -42s-27.666 -40.666 -36.999 -66.999s-14 -56.166 -14 -89.499v-102z" />
    <glyph glyph-name="uniF002" unicode="&#xf002;" horiz-adv-x="589" 
d="M546 844l0.000976562 -571.999c-2.66699 -45.333 -12.667 -85.166 -30 -119.499s-39.333 -63.166 -66 -86.499s-56.334 -41 -89.001 -53s-65.667 -18 -99 -18c-30 0 -58.833 5 -86.5 15s-52.167 25 -73.5 45s-38.333 45.167 -51 75.5s-19 66.166 -19 107.499
c0 49.333 8 93.166 24 131.499s37 70.833 63 97.5s55.5 46.834 88.5 60.501s66.5 20.5 100.5 20.5c25.333 0 50.5 -4 75.5 -12s48.5 -20.667 70.5 -38v288c0 9.33301 -1.66699 16.666 -5 21.999s-7.83301 9.16602 -13.5 11.499s-12 3.5 -19 3.5s-14.5 -0.333008 -22.5 -1v5z
M103.001 320.001c0 -48.667 5.83301 -92.335 17.5 -131.002s26.834 -71.5 45.501 -98.5s39.667 -47.667 63 -62s46.666 -21.5 69.999 -21.5c20 0 39.333 5.5 58 16.5s35.167 28 49.5 51s25.833 52.167 34.5 87.5s13 77.333 13 126v36c0 33.333 -5.16699 62.833 -15.5 88.5
s-24 47.167 -41 64.5s-36.333 30.5 -58 39.5s-43.834 13.5 -66.501 13.5c-21.333 0 -42.166 -4.16699 -62.499 -12.5s-38.5 -21.166 -54.5 -38.499s-28.833 -39.166 -38.5 -65.499s-14.5 -57.5 -14.5 -93.5z" />
    <glyph glyph-name="uniF003" unicode="&#xf003;" horiz-adv-x="588" 
d="M330 40c44 1.33301 83.8369 -0.167969 119.504 -4.50098s66.167 -12.833 91.5 -25.5s45 -30 59 -52s21 -50.333 21 -85s-9.33301 -67.334 -28 -98.001s-44 -57.5 -76 -80.5s-68.833 -41.167 -110.5 -54.5s-85.5 -20 -131.5 -20c-55.333 0 -102 7.5 -140 22.5
s-68 34 -90 57s-36.5 48.5 -43.5 76.5s-7.33301 55 -1 81s18.833 49.667 37.5 71s42.667 36.666 72 45.999c-12 6.66699 -21.5 15.834 -28.5 27.501s-10.167 24.5 -9.5 38.5c0 22 8.33301 41.833 25 59.5s38 33.5 64 47.5c-38 16 -69 39.5 -93 70.5s-36 70.167 -36 117.5
c0 34.667 6.66699 65 20 91s31.333 47.833 54 65.5s49.167 31.334 79.5 41.001s62.166 14.834 95.499 15.501c17.333 0 32.666 2.16699 45.999 6.5s25.833 10.833 37.5 19.5s23.167 19.5 34.5 32.5s23.333 28.167 36 45.5c7.33301 10.667 15.166 18.167 23.499 22.5
s16.166 6.5 23.499 6.5c10 0 18.833 -3.33301 26.5 -10s12.5 -14.667 14.5 -24s0.333008 -19.333 -5 -30s-16 -20 -32 -28c-43.333 -24 -89.333 -38.667 -138 -44c28.667 -4 55.334 -11.5 80.001 -22.5s46.167 -25.167 64.5 -42.5s32.833 -38.166 43.5 -62.499
s16 -51.833 16 -82.5c0 -35.333 -7 -66.333 -21 -93s-33 -48.834 -57 -66.501s-51.667 -31 -83 -40s-64.333 -13.5 -99 -13.5c-40.667 0 -80.334 6.66699 -119.001 20c-30 -18 -45 -37.667 -45 -59c0 -10.667 2.83301 -19 8.5 -25s13.334 -10.5 23.001 -13.5
s20.667 -4.83301 33 -5.5s25.166 -1 38.499 -1c19.333 0 37.833 0.333008 55.5 1s32.167 1 43.5 1zM243.004 536.999c-40.667 -6.66699 -71.3311 -21.834 -91.998 -45.501s-33 -51.334 -37 -83.001s-0.666992 -64.667 10 -99s26.667 -65.166 48 -92.499
s47.166 -49 77.499 -65s63.166 -21 98.499 -15c38.667 6 67.667 20.833 87 44.5s31 51.334 35 83.001s0.833008 64.667 -9.5 99s-25.666 65.333 -45.999 93s-45.333 49.5 -75 65.5s-61.834 21 -96.501 15zM317.007 -352.001c36 0 68.4951 4.00098 97.4951 12.001
s53.667 19.167 74 33.5s35.833 31.5 46.5 51.5s16 42.667 16 68c0 24.667 -3.66699 46.167 -11 64.5s-19.666 33.166 -36.999 44.499s-40.166 19.333 -68.499 24s-63.166 6 -104.499 4c-18 0 -35.833 0.166992 -53.5 0.5s-35.167 0.5 -52.5 0.5
c-17.333 -0.666992 -34.5 0.5 -51.5 3.5s-33.5 7.16699 -49.5 12.5c-16 -16.667 -27.5 -36.167 -34.5 -58.5s-9.5 -45.5 -7.5 -69.5s8.5 -47.5 19.5 -70.5s26.333 -43.5 46 -61.5s43.834 -32.5 72.501 -43.5s61.334 -16.167 98.001 -15.5z" />
    <glyph glyph-name="uniF004" unicode="&#xf004;" horiz-adv-x="615" 
d="M599 8l0.000976562 -7.99707h-213v8h60v391c0 42.667 -9.66699 73.167 -29 91.5s-43 27.5 -71 27.5s-58 -7.83301 -90 -23.5s-60.667 -36.5 -86 -62.5v-424h60v-8h-213v8h60v778c0 9.33301 -1.66699 16.666 -5 21.999s-7.83301 9.16602 -13.5 11.499s-12 3.5 -19 3.5
s-14.5 -0.333008 -22.5 -1v5l153 17v-399c14.667 15.333 31 29.166 49 41.499s36.667 22.833 56 31.5s39.166 15.334 59.499 20.001s39.833 7 58.5 7c20 0 38.833 -2.83301 56.5 -8.5s33 -14.334 46 -26.001s23.333 -26.667 31 -45s11.5 -40.5 11.5 -66.5v-391h61z" />
    <glyph glyph-name="uniF005" unicode="&#xf005;" horiz-adv-x="247" 
d="M230 8v-7.99805h-213v8h60v778c0 9.33301 -1.66699 16.666 -5 21.999s-7.83301 9.16602 -13.5 11.499s-12 3.5 -19 3.5s-14.5 -0.333008 -22.5 -1v5l153 17v-836h60z" />
    <glyph glyph-name="uniF006" unicode="&#xf006;" horiz-adv-x="975" 
d="M958 8v-7.99609h-213v8h61v391c0 42.667 -9.66699 73.167 -29 91.5s-43 27.5 -71 27.5c-26.667 0 -55 -7 -85 -21s-57.667 -32.667 -83 -56c3.33301 -15.333 5 -29.333 5 -42v-391h60v-8h-213v8h61v391c0 42.667 -9.66699 73.167 -29 91.5s-43.333 27.5 -72 27.5
c-28 0 -58.167 -7.83301 -90.5 -23.5s-61.166 -36.834 -86.499 -63.501v-423h60v-8h-213v8h60v480c0 9.33301 -1.66699 16.666 -5 21.999s-7.83301 9.16602 -13.5 11.499s-12 3.5 -19 3.5s-14.5 -0.333008 -22.5 -1v5l153 16v-102c14.667 16 31 30.167 49 42.5
s36.833 23 56.5 32s39.667 15.833 60 20.5s39.833 7 58.5 7c32.667 0 61.667 -7.33301 87 -22s42.666 -38.667 51.999 -72c30 29.333 64.5 52.333 103.5 69s76.833 25 113.5 25c20 0 38.833 -2.83301 56.5 -8.5s33 -14.334 46 -26.001s23.333 -26.667 31 -45
s11.5 -40.5 11.5 -66.5v-391h60z" />
    <glyph glyph-name="uniF007" unicode="&#xf007;" horiz-adv-x="619" 
d="M603 8l-0.000976562 -7.99609h-213v8h61v391c0 42.667 -9.66699 73.167 -29 91.5s-43.333 27.5 -72 27.5c-28 0 -58.167 -7.83301 -90.5 -23.5s-61.166 -36.834 -86.499 -63.501v-423h60v-8h-213v8h60v480c0 9.33301 -1.66699 16.666 -5 21.999
s-7.83301 9.16602 -13.5 11.499s-12 3.5 -19 3.5s-14.5 -0.333008 -22.5 -1v5l153 16v-102c14.667 16 31 30.167 49 42.5s36.833 23 56.5 32s39.667 15.833 60 20.5s39.833 7 58.5 7c20 0 38.833 -2.83301 56.5 -8.5s33.167 -14.334 46.5 -26.001s23.833 -26.667 31.5 -45
s11.5 -40.5 11.5 -66.5v-391h60z" />
    </font>
</defs>
</svg>
